<?xml version="1.0" encoding="UTF-8" standalone="no"?>
<!-- Created with Inkscape (http://www.inkscape.org/) -->

<svg
   width="210mm"
   height="297mm"
   viewBox="0 0 210 297"
   version="1.1"
   id="svg62448"
   inkscape:version="1.1.2 (0a00cf5339, 2022-02-04)"
   sodipodi:docname="bullet.svg"
   xmlns:inkscape="http://www.inkscape.org/namespaces/inkscape"
   xmlns:sodipodi="http://sodipodi.sourceforge.net/DTD/sodipodi-0.dtd"
   xmlns="http://www.w3.org/2000/svg"
   xmlns:svg="http://www.w3.org/2000/svg">
  <sodipodi:namedview
     id="namedview62450"
     pagecolor="#ffffff"
     bordercolor="#666666"
     borderopacity="1.0"
     inkscape:pageshadow="2"
     inkscape:pageopacity="0.0"
     inkscape:pagecheckerboard="0"
     inkscape:document-units="mm"
     showgrid="false"
     inkscape:zoom="0.75187991"
     inkscape:cx="397.00489"
     inkscape:cy="561.92484"
     inkscape:window-width="1846"
     inkscape:window-height="1016"
     inkscape:window-x="74"
     inkscape:window-y="27"
     inkscape:window-maximized="1"
     inkscape:current-layer="layer1" />
  <defs
     id="defs62445" />
  <g
     inkscape:label="Layer 1"
     inkscape:groupmode="layer"
     id="layer1">
    <path
       d="m 133.36056,235.62201 v 0.51858 c 0,0.16934 -0.004,0.33514 -0.0106,0.50095 -0.007,0.14817 -0.0176,0.29633 -0.0282,0.4445 -0.16228,1.92264 -0.81491,3.77825 -1.89441,5.52803 -4.445,7.22136 -16.12195,12.67178 -30.41651,13.87828 -0.37394,0.0282 -0.74789,0.0564 -1.125357,0.0847 -0.03881,0.004 -0.08114,0.004 -0.123472,0.007 -0.137584,0.0106 -0.278695,0.0176 -0.416278,0.0282 -0.218723,0.0141 -0.440973,0.0247 -0.659695,0.0353 -0.215194,0.0106 -0.430389,0.0212 -0.642055,0.0318 -0.211667,0.007 -0.423334,0.0141 -0.635,0.0212 -0.130528,0.007 -0.261056,0.0106 -0.388056,0.0141 -0.659694,0.0176 -1.326445,0.0282 -1.996722,0.0282 h -0.01411 c -0.673806,0 -1.344084,-0.0106 -2.010834,-0.0282 -0.127,-0.004 -0.254,-0.007 -0.381,-0.0141 -0.211667,-0.007 -0.426861,-0.0141 -0.635,-0.0212 -0.218722,-0.0106 -0.433917,-0.0212 -0.645583,-0.0318 -0.22225,-0.0106 -0.4445,-0.0212 -0.663223,-0.0388 -0.141111,-0.007 -0.275166,-0.0141 -0.41275,-0.0247 -0.03881,-0.004 -0.07408,-0.004 -0.112889,-0.007 -0.381,-0.0282 -0.754944,-0.0564 -1.132416,-0.0847 -17.76589,-1.49931 -31.481891,-9.5497 -32.310919,-19.40631 -0.01411,-0.14817 -0.02469,-0.29633 -0.02822,-0.4445 v -0.004 c -0.01058,-0.1658 -0.01411,-0.33161 -0.01411,-0.49742 v -0.51505 C 56.730164,93.967613 83.752944,30.848609 92.392472,14.289219 c 0.758473,-1.456972 1.689806,-2.183694 2.617612,-2.183694 h 0.01411 c 0.229305,0 0.455083,0.04233 0.680861,0.134055 h 0.0035 c 0.687916,0.275167 1.354666,0.959556 1.926166,2.049639 6.487579,12.435418 23.336249,51.121031 31.361949,129.603511 2.65994,26.03147 4.34975,56.44445 4.36386,91.72928"
       style="fill:#b36727;fill-opacity:1;fill-rule:nonzero;stroke:none;stroke-width:0.0352778"
       id="path61985" />
    <path
       d="M 95.024195,245.31635 V 12.105525 c 0.229305,0 0.455083,0.04233 0.680861,0.134055 h 0.0035 c 0.687916,0.275167 1.354666,0.959556 1.926166,2.049639 6.487578,12.435418 23.336248,51.121031 31.361948,129.603511 2.65994,26.03147 4.34975,56.44445 4.36386,91.72928 v 0.51858 c 0,0.16934 -0.004,0.33514 -0.0106,0.50095 v 0 c -0.0917,0.89605 -0.76552,1.76389 -1.92263,2.57528 -4.44853,3.11502 -16.11842,5.46805 -30.40945,5.99016 -0.49036,0.0176 -0.98072,0.0318 -1.478138,0.0459 -0.201083,0.007 -0.402166,0.0141 -0.606777,0.0141 -0.04586,0.004 -0.09172,0.004 -0.137584,0.004 -0.246944,0.007 -0.497416,0.0141 -0.747889,0.0176 -0.165805,0.004 -0.335139,0.007 -0.500944,0.007 -0.119945,0.004 -0.239889,0.004 -0.363361,0.007 -0.391584,0.004 -0.786695,0.007 -1.181806,0.0106 -0.324555,0 -0.652639,0.004 -0.977194,0.004"
       style="fill:#c38755;fill-opacity:1;fill-rule:nonzero;stroke:none;stroke-width:0.0352778"
       id="path62011" />
  </g>
</svg>
