<?xml version="1.0" encoding="UTF-8" standalone="no"?>
<!-- Created with Inkscape (http://www.inkscape.org/) -->

<svg
   version="1.1"
   id="svg2"
   xml:space="preserve"
   width="466.66666"
   height="372.60001"
   viewBox="0 0 466.66666 372.60001"
   sodipodi:docname="cow_002.svg"
   inkscape:version="1.1.2 (0a00cf5339, 2022-02-04)"
   xmlns:inkscape="http://www.inkscape.org/namespaces/inkscape"
   xmlns:sodipodi="http://sodipodi.sourceforge.net/DTD/sodipodi-0.dtd"
   xmlns="http://www.w3.org/2000/svg"
   xmlns:svg="http://www.w3.org/2000/svg"><defs
     id="defs6" /><sodipodi:namedview
     id="namedview4"
     pagecolor="#ffffff"
     bordercolor="#666666"
     borderopacity="1.0"
     inkscape:pageshadow="2"
     inkscape:pageopacity="0.0"
     inkscape:pagecheckerboard="0"
     showgrid="false"
     inkscape:zoom="2.2651637"
     inkscape:cx="233.31647"
     inkscape:cy="186.52074"
     inkscape:window-width="1846"
     inkscape:window-height="1016"
     inkscape:window-x="74"
     inkscape:window-y="27"
     inkscape:window-maximized="1"
     inkscape:current-layer="g8" /><g
     id="g8"
     inkscape:groupmode="layer"
     inkscape:label="ink_ext_XXXXXX"
     transform="matrix(1.3333333,0,0,-1.3333333,0,372.6)"><g
       id="g10"
       transform="scale(0.1)"><path
         d="m 2965.9,1715.55 c -22.6,0 -45.29,1.48 -67.72,4.42 l 9.88,57.58 c 19.13,-2.41 38.52,-3.65 57.84,-3.65 121.66,0.02 236.09,47.43 322.25,133.49 86.05,86.15 133.46,200.58 133.48,322.24 -0.02,121.69 -47.43,236.12 -133.48,322.27 -86.12,86.08 -200.57,133.49 -322.25,133.49 -44.92,0 -89.18,-6.51 -131.78,-19.35 l -19.33,55.15 c 48.8,14.98 99.53,22.56 151.11,22.56 283.46,-0.04 514.07,-230.67 514.09,-514.12 -0.02,-283.42 -230.63,-514.03 -514.09,-514.08 v 0"
         style="fill:#ffffff;fill-opacity:1;fill-rule:nonzero;stroke:none"
         id="path12" /><path
         d="m 2965.9,2763.75 c 294.99,-0.03 534.07,-239.11 534.1,-534.11 -0.03,-294.99 -239.11,-534.05 -534.1,-534.09 -30.93,0 -61.31,2.65 -90.87,7.7 l 16.62,96.96 c 24.11,-4.14 48.9,-6.3 74.25,-6.3 120.49,0.02 229.11,48.71 308.12,127.62 78.92,79.02 127.59,187.65 127.61,308.11 -0.02,120.51 -48.69,229.12 -127.61,308.13 -79.01,78.93 -187.63,127.61 -308.12,127.62 -50.65,0 -99.08,-8.61 -144.19,-24.4 l -32.54,92.82 c 55.35,19.4 114.9,29.95 176.73,29.94 m -144.19,-122.76 c 0,-0.01 0,-0.01 0,-0.01 v 0.01 m 144.19,82.76 c -42.56,0.01 -84.51,-5.37 -125.21,-16 l 6.1,-17.39 c 38.74,9.98 78.65,15.03 119.11,15.03 127.01,-0.01 246.48,-49.5 336.39,-139.33 89.84,-89.94 139.32,-209.4 139.34,-336.41 -0.02,-127 -49.5,-246.47 -139.32,-336.39 -89.95,-89.85 -209.42,-139.33 -336.4,-139.35 -13.78,0 -27.58,0.6 -41.31,1.78 l -3.12,-18.16 c 14.77,-1.32 29.61,-1.98 44.42,-1.98 272.42,0.04 494.07,221.68 494.1,494.1 -0.03,272.42 -221.68,494.07 -494.11,494.1 h 0.01 v 0"
         style="fill:#100f0d;fill-opacity:1;fill-rule:nonzero;stroke:none"
         id="path14" /><path
         d="m 2600.14,2756.04 c 53.17,57.11 164.8,49.21 213.4,-14.9 78.66,-107.06 -49.68,-238.05 -145.17,-257.08 -43.67,-11.47 -85.11,-15.96 -126.14,-12.21 -65.71,9.14 -150.85,30.11 -194.25,89.46 -18.03,22.97 -30.35,52.3 -36.8,80.6 -3.33,14.55 -11.82,56.98 10.39,60.56 21.29,3.42 45.49,-45.66 58.31,-58.58 21.9,-22.1 47.35,-41.06 80.02,-35.1 71.83,13.09 95.95,96.72 138.07,144.85 0.7,0.82 1.43,1.62 2.17,2.4"
         style="fill:#100f0d;fill-opacity:1;fill-rule:nonzero;stroke:none"
         id="path16" /><path
         d="m 2363.25,187.012 h -124.77 c -20.86,182.664 -17.87,367.422 8.86,549.718 h 125.23 c -28.45,-182.062 -31.59,-366.761 -9.32,-549.718 v 0"
         style="fill:#ffffff;fill-opacity:1;fill-rule:nonzero;stroke:none"
         id="path18" /><path
         d="m 2396.06,756.738 c -32.82,-195.086 -36.18,-393.875 -10.11,-589.726 h -165.23 c -24.05,195.968 -20.86,394.414 9.41,589.726 h 165.93 m -46.74,-40 h -84.63 c -23.41,-169.121 -26.18,-340.261 -8.27,-509.726 h 84.37 c -18.72,169.707 -15.85,340.773 8.53,509.726 v 0"
         style="fill:#100f0d;fill-opacity:1;fill-rule:nonzero;stroke:none"
         id="path20" /><path
         d="m 2415.5,0 c -17.64,79.6289 -26.1,131.105 -29.55,167.012 H 2220.72 C 2193.7,131.121 2158.14,79.6875 2107.27,0 h 308.23"
         style="fill:#100f0d;fill-opacity:1;fill-rule:nonzero;stroke:none"
         id="path22" /><path
         d="m 1330.49,187.012 h -124.77 c -21.97,192.324 -17.56,386.386 13.08,577.558 37.13,-17.441 77.7,-26.757 121.01,-27.754 C 1311.38,554.727 1308.25,370 1330.49,187.012 v 0"
         style="fill:#ffffff;fill-opacity:1;fill-rule:nonzero;stroke:none"
         id="path24" /><path
         d="m 1203.65,795.266 c 40.78,-24.387 88.36,-38.528 143.93,-38.528 h 15.72 c -32.81,-195.086 -36.17,-393.875 -10.11,-589.726 h -165.22 c -25.63,208.867 -20.39,420.558 15.68,628.254 m 31.03,-58.996 c -25.96,-175.372 -29.66,-352.989 -11.02,-529.258 h 84.37 c -18.76,170.156 -15.83,341.66 8.74,511.066 -28.63,2.516 -56.06,8.602 -82.09,18.192 v 0"
         style="fill:#100f0d;fill-opacity:1;fill-rule:nonzero;stroke:none"
         id="path26" /><path
         d="m 1382.75,0 c -17.64,79.6289 -26.1,131.105 -29.56,167.012 H 1187.97 C 1160.95,131.121 1125.38,79.6875 1074.52,0 h 308.23"
         style="fill:#100f0d;fill-opacity:1;fill-rule:nonzero;stroke:none"
         id="path28" /><path
         d="m 1719.68,0 c -17.64,79.6289 -26.09,131.105 -29.55,167.012 H 1524.91 C 1497.89,131.121 1462.31,79.6875 1411.45,0 h 308.23"
         style="fill:#100f0d;fill-opacity:1;fill-rule:nonzero;stroke:none"
         id="path30" /><path
         d="m 2700.18,187 h -124.77 c -21.52,188.371 -17.68,378.898 11.44,566.652 l 3.56,23.078 h -23.34 -866.83 -16.92 l -2.81,-16.683 C 1648.61,570.457 1644.22,377.793 1667.41,187 h -124.73 c -21.55,188.34 -17.72,378.879 11.4,566.652 l 3.58,23.078 h -23.34 -186.74 c -318.48,0 -360.857,508.73 -374.799,675.88 -0.769,9.5 -1.476,17.99 -2.144,25.32 l 14.871,114.57 c 108.112,345.9 395.822,587.36 700.182,587.36 h 725.03 c 131.72,0 256,-42.88 359.42,-124.02 138.38,-108.52 219.81,-271.39 223.42,-446.86 l 0.09,-3.51 0.08,-4.18 v -0.41 l 0.05,-1.15 V 1084.3 l -5.15,-58.35 c -4.82,-22.15 -15,-55.618 -36.18,-91.575 -32.28,-54.766 -96.93,-125.078 -221.58,-149.023 l -13.58,-2.606 -2.37,-13.625 C 2681.57,576.387 2676.62,380.672 2700.18,187 v 0"
         style="fill:#ffffff;fill-opacity:1;fill-rule:nonzero;stroke:none"
         id="path32" /><path
         d="m 2410.73,2199.85 c 140.29,0 269.34,-47.93 371.77,-128.27 137.68,-107.99 227.21,-274.56 231.06,-462.19 0.05,-2.64 0.14,-5.28 0.16,-7.93 0,-0.39 0.06,-0.78 0.06,-1.17 v -517.03 l -5.32,-60.17 c -6.15,-28.91 -18.16,-63.883 -38.77,-98.871 -39.75,-67.43 -111.55,-134.785 -235.07,-158.516 -34.25,-197.969 -38.2,-399.844 -11.74,-598.691 h -165.22 c -24.05,195.968 -20.86,394.414 9.41,589.726 h -866.82 c -32.83,-195.086 -36.19,-393.875 -10.12,-589.726 h -165.22 c -24.06,195.968 -20.87,394.414 9.4,589.726 h -186.73 c -356.912,0 -384.26,582.902 -397.06,721.552 l 15.386,118.53 c 103.454,333.04 386.734,603.03 719.784,603.03 h 725.04 m 0,-40 h -725.04 c -295.21,0 -574.64,-234.9 -680.56,-571.64 L 990.754,1477.5 c 0.609,-6.84 1.258,-14.61 1.973,-23.21 6.906,-82.99 21.293,-255.7 74.233,-402.41 61.96,-171.685 153.75,-255.142 280.62,-255.142 h 186.73 46.67 l -7.15,-46.121 C 1545.92,570.48 1541.49,387.793 1560.6,207.012 h 84.37 c -20.44,185.359 -15.14,372.285 15.83,556.367 l 5.61,33.359 h 33.84 866.82 46.68 l -7.15,-46.121 c -27.92,-180.109 -32.36,-362.804 -13.25,-543.605 h 84.38 c -20.77,188.328 -14.91,378.328 17.48,565.508 l 4.71,27.246 27.15,5.214 c 117.36,22.551 177.97,88.333 208.16,139.551 19.49,33.086 29.01,63.889 33.61,84.599 l 4.94,55.9 v 514.17 c -0.04,0.75 -0.06,1.51 -0.06,2.26 -0.01,1.16 -0.05,2.61 -0.08,4.06 l -0.07,3.14 c -3.48,169.34 -82.12,326.63 -215.76,431.44 -99.87,78.34 -219.89,119.75 -347.08,119.75 v 0"
         style="fill:#000000;fill-opacity:1;fill-rule:nonzero;stroke:none"
         id="path34" /><path
         d="m 2752.43,0 c -17.63,79.6289 -26.08,131.105 -29.55,167.012 H 2557.66 C 2530.64,131.121 2495.07,79.6875 2444.21,0 h 308.22"
         style="fill:#100f0d;fill-opacity:1;fill-rule:nonzero;stroke:none"
         id="path36" /><path
         d="m 1769.27,2150.07 c 2.82,-56.47 58.63,-95.69 17.27,-139.4 -72.25,-76.38 -89.49,-196.04 -14.16,-278.75 36.53,-40.12 83.46,-71.04 139.14,-71.98 24.25,-0.42 42.91,-0.53 63.94,8.44 23.25,9.91 41.18,23.01 70.87,15.56 37.71,-9.45 49.27,-55.44 67.99,-86.64 31.25,-52.04 89.76,-74.89 146.88,-86.36 59.3,-11.89 120.18,-13.21 179.25,0.83 51.12,12.13 99.55,68.91 127.42,109.69 42.03,61.52 12.67,154.36 82.79,193.44 75.49,42.07 124.06,76.25 130.93,175.1 1.77,25.38 3.33,54.43 0.91,81.58 -102.43,80.34 -231.48,128.27 -371.77,128.27 h -610.12 c -3.76,-15.1 -32.25,-31.69 -31.34,-49.78"
         style="fill:#100f0d;fill-opacity:1;fill-rule:nonzero;stroke:none"
         id="path38" /><path
         d="m 3013.78,1600.29 c 0,0.39 -0.06,0.78 -0.06,1.17 -0.02,2.65 -0.11,5.29 -0.16,7.93 -47.06,-25.6 -98.72,-47.18 -109.81,-106.04 -7.14,-37.96 16.36,-72.2 19.44,-108.6 4.95,-58.32 -38.47,-76.31 -71.81,-117.87 -47.04,-58.65 -79.58,-154.96 -49,-225.76 29.85,-69.12 91.06,-119.39 167.31,-126.901 20.61,34.988 32.62,69.961 38.77,98.871 l 5.32,60.17 v 517.03"
         style="fill:#100f0d;fill-opacity:1;fill-rule:nonzero;stroke:none"
         id="path40" /><path
         d="m 1940.25,1286.8 c -62,4.33 -113.81,-1.72 -157.43,-48.3 -85.16,-90.98 -88.44,-206.83 7.73,-288.207 46.34,-39.211 135.8,-65.539 198.04,-50.332 50.24,13.098 100.18,51.758 159.07,37.031 3.32,-0.762 10.07,-2.929 13.39,-4.238 12.31,-29.649 69.6,-28.371 102.35,-28.867 79.6,-1.211 144.07,46.406 158.75,122.233 24.55,51.11 -17.39,131.2 -67.56,174.06 -68.28,58.75 -132.85,14.23 -193.74,8.73 -85.56,-7.74 -137.7,72.11 -220.6,77.89"
         style="fill:#100f0d;fill-opacity:1;fill-rule:nonzero;stroke:none"
         id="path42" /><path
         d="m 572.883,2376.64 c -19.613,80.97 -27.856,142.39 6.39,216.34 21.418,46.24 59.34,95.64 101.512,95.64 10.949,0 22.219,-3.33 33.653,-9.93 -8.094,-82.23 -0.571,-188.63 67.359,-271.03 l -208.914,-31.02 v 0"
         style="fill:#f5f013;fill-opacity:1;fill-rule:nonzero;stroke:none"
         id="path44" /><path
         d="m 680.793,2708.62 c 17.254,0 35.637,-5.92 54.848,-19.92 -13.02,-108.44 5.558,-220.86 87.175,-295.16 L 557.828,2354.2 c -22.601,89.96 -36.851,160.51 3.301,247.19 23.059,49.79 65.918,107.23 119.664,107.23 m 0,-40 c -30.699,0 -63.992,-42.21 -83.371,-84.04 -29.285,-63.23 -25.18,-115.69 -9.301,-185.44 l 157.969,23.45 c -50.227,77.55 -58.32,168.86 -52.785,243.87 -4.317,1.44 -8.496,2.16 -12.512,2.16 v 0"
         style="fill:#000000;fill-opacity:1;fill-rule:nonzero;stroke:none"
         id="path46" /><path
         d="m 1421.78,2376.66 -208.89,31.02 c 67.9,82.37 75.41,188.77 67.33,271 11.44,6.59 22.7,9.93 33.65,9.93 42.18,0 80.11,-49.38 101.52,-95.63 34.24,-73.93 26.02,-135.35 6.39,-216.32 v 0"
         style="fill:#f5f013;fill-opacity:1;fill-rule:nonzero;stroke:none"
         id="path48" /><path
         d="m 1313.86,2708.62 c 53.75,0 96.61,-57.44 119.67,-107.23 40.15,-86.68 25.91,-157.23 3.31,-247.19 l -264.99,39.34 c 81.61,74.3 100.19,186.72 87.17,295.16 19.21,14 37.58,19.92 54.84,19.92 m 0,-40 c -4.02,0 -8.19,-0.72 -12.51,-2.16 5.54,-75 -2.56,-166.32 -52.78,-243.87 l 157.97,-23.45 c 15.88,69.75 19.98,122.21 -9.31,185.44 -19.37,41.83 -52.66,84.04 -83.37,84.04 v 0"
         style="fill:#000000;fill-opacity:1;fill-rule:nonzero;stroke:none"
         id="path50" /><path
         d="M 245.117,2166.5 C 142.727,2105.29 13.0664,2125.96 0.390625,2077.42 -4.14453,2054.06 30.9063,2005.89 98.2617,1975.05 c 65.7153,-30.83 163.7263,-44.32 247.3833,2.33 85.464,43.25 129.101,132.03 140.324,203.75 12.094,73.09 -8.227,129.1 -30.117,138.4 -47.321,16.63 -102.715,-102.4 -210.735,-153.03"
         style="fill:#100f0d;fill-opacity:1;fill-rule:nonzero;stroke:none"
         id="path52" /><path
         d="m 1790.88,1967.02 c -40.86,0 -78.38,9.35 -111.49,27.83 -80.78,40.9 -120.15,124.57 -130.31,189.37 -11.5,69.45 8.94,111.48 17.7,116.64 0.64,0.17 1.26,0.25 1.93,0.25 13.22,0 37.58,-24.9 61.11,-48.97 33.56,-34.31 75.28,-76.98 131.02,-103.32 53.01,-31.44 111.66,-42.14 158.84,-50.75 33.38,-6.09 71.14,-12.98 75.66,-24.98 0.66,-10.05 -22.71,-50.57 -86.63,-79.85 -36.1,-16.95 -77.91,-26.22 -117.83,-26.22 v 0"
         style="fill:#ffffff;fill-opacity:1;fill-rule:nonzero;stroke:none"
         id="path54" /><path
         d="m 1568.71,2321.11 c 45.42,0.01 100.41,-107.24 201.48,-154.61 102.39,-61.21 232.04,-40.54 244.72,-89.08 4.53,-23.36 -30.52,-71.53 -97.87,-102.37 -35.18,-16.5 -79.63,-28.04 -126.15,-28.04 -40.4,0 -82.36,8.69 -121.24,30.37 -85.47,43.25 -129.1,132.03 -140.32,203.75 -12.1,73.09 8.22,129.1 30.11,138.4 3.05,1.06 6.13,1.58 9.27,1.58 m 5.83,-44.22 c -6.13,-14.64 -12.92,-45.89 -5.75,-89.22 9.43,-60.25 45.58,-137.48 118.92,-174.6 l 0.72,-0.36 0.7,-0.39 c 30.11,-16.79 64.35,-25.31 101.76,-25.31 37.05,0 75.82,8.62 109.17,24.26 40.19,18.4 62.34,41.53 71.07,54.81 -12.95,4.63 -36.66,8.96 -55.07,12.31 -48.52,8.86 -108.8,19.87 -164.67,52.75 -58.51,27.91 -101.36,71.73 -135.85,107 -13.08,13.38 -29.93,30.61 -41,38.75 v 0"
         style="fill:#100f0d;fill-opacity:1;fill-rule:nonzero;stroke:none"
         id="path56" /><path
         d="m 1384.23,1200.21 h -773.8 c -101.055,0 -183.274,82.23 -183.274,183.29 v 845.91 c 0,101.05 82.219,183.29 183.274,183.29 h 773.8 c 90.82,0 168.83,-67.75 181.44,-157.6 1.22,-8.67 1.83,-17.34 1.83,-25.69 V 1383.5 c 0,-101.06 -82.21,-183.29 -183.27,-183.29 v 0"
         style="fill:#ffffff;fill-opacity:1;fill-rule:nonzero;stroke:none"
         id="path58" /><path
         d="m 1384.22,2432.69 c 102.6,0 187.4,-76.03 201.25,-174.8 1.31,-9.31 2.03,-18.81 2.03,-28.48 V 1383.5 c 0,-112.28 -91,-203.29 -203.28,-203.29 H 610.434 c -112.266,0 -203.278,91.01 -203.278,203.29 v 845.91 c 0,112.27 91.012,203.28 203.278,203.28 h 773.786 m 0,-40 H 610.434 c -90.028,0 -163.278,-73.25 -163.278,-163.28 V 1383.5 c 0,-90.04 73.25,-163.29 163.278,-163.29 h 773.786 c 90.03,0 163.28,73.25 163.28,163.29 v 845.91 c 0,7.45 -0.55,15.16 -1.64,22.93 -11.22,80 -80.72,140.35 -161.64,140.35 v 0"
         style="fill:#000000;fill-opacity:1;fill-rule:nonzero;stroke:none"
         id="path60" /><path
         d="m 505.805,2186.07 c 11.519,8.24 26.883,28.13 38.113,34.28 17.234,9.44 43.305,4.83 62.613,4.85 45.086,0.06 78.137,-25.57 123.746,-25.38 121.672,0.49 185.547,98.06 197.828,211.45 0.786,7.27 1.469,14.4 1.977,21.42 H 610.434 c -112.266,0 -203.278,-91.01 -203.278,-203.28 v -37.53 c 29.114,-21.2 67.973,-27.78 98.649,-5.81"
         style="fill:#100f0d;fill-opacity:1;fill-rule:nonzero;stroke:none"
         id="path62" /><path
         d="m 1585.47,2257.89 c -30.64,-9.72 -66.05,-31.82 -72.6,-50.8 -4.4,-12.73 -2.8,-26.78 0.06,-40.76 1.37,-6.73 6.22,-13.54 8.3,-20.24 2.29,-7.33 3.66,-14.98 3.69,-22.68 0.06,-14.6 -4.82,-29.43 -16.96,-38.34 -6.29,-4.6 -13.81,-7.34 -21.16,-9.76 -16.34,-5.37 -29.67,-8.92 -39.8,-23.9 -12.09,-17.86 -19.46,-38.84 -24.37,-59.7 -1.85,-7.83 -3.27,-15.71 -4.08,-23.7 -6.02,-59.05 7.17,-103.31 42.63,-149.88 31.04,-40.8 62,-75.66 111.57,-95 4.5,-1.76 9.5,-3.39 14.75,-4.92 v 511.2 c 0,9.67 -0.72,19.17 -2.03,28.48"
         style="fill:#100f0d;fill-opacity:1;fill-rule:nonzero;stroke:none"
         id="path64" /><path
         d="m 762.773,979.668 c -49.863,0 -93.183,37.242 -100.8,86.602 l -6.16,40.08 661.347,101.78 6.16,-40.06 c 4.14,-26.96 -2.46,-53.92 -18.58,-75.94 -16.13,-21.99 -39.86,-36.39 -66.85,-40.55 L 778.453,980.871 c -5.191,-0.793 -10.488,-1.203 -15.68,-1.203 v 0"
         style="fill:#f14563;fill-opacity:1;fill-rule:nonzero;stroke:none"
         id="path66" /><path
         d="m 1333.87,1230.94 9.2,-59.83 c 10.27,-66.66 -35.45,-129.03 -102.12,-139.28 L 781.5,961.105 c -6.297,-0.968 -12.547,-1.437 -18.723,-1.437 -59.246,0 -111.269,43.202 -120.558,103.562 l -9.211,59.82 700.862,107.89 m -33.45,-45.63 -621.791,-95.7 3.125,-20.29 c 6.105,-39.71 40.941,-69.652 81.023,-69.652 4.196,0 8.45,0.324 12.645,0.962 l 459.438,70.73 c 21.69,3.34 40.77,14.92 53.75,32.6 12.96,17.7 18.27,39.39 14.93,61.07 l -3.12,20.28 v 0"
         style="fill:#000000;fill-opacity:1;fill-rule:nonzero;stroke:none"
         id="path68" /><path
         d="M 1446.52,1141.19 H 548.152 c -101.082,0 -183.293,82.22 -183.293,183.28 v 262.29 c 0,6.49 0.371,13.28 1.133,20.15 14.02,178.29 164.676,317.46 343.035,317.46 107.364,0 206.672,-48.85 272.473,-134.01 l 15.836,-20.5 15.844,20.5 c 65.77,85.16 165.06,134.01 272.44,134.01 178.38,0 329.04,-139.17 343,-316.83 0.81,-7.38 1.18,-14.17 1.18,-20.78 v -262.29 c 0,-101.06 -82.22,-183.28 -183.28,-183.28 v 0"
         style="fill:#f14563;fill-opacity:1;fill-rule:nonzero;stroke:none"
         id="path70" /><path
         d="m 1285.63,1944.38 c 191.39,0 348.18,-147.68 362.92,-335.29 0.81,-7.33 1.25,-14.77 1.25,-22.32 v -262.3 c 0,-112.26 -91.01,-203.28 -203.28,-203.28 H 548.145 c -112.27,0 -203.286,91.02 -203.286,203.28 v 262.3 c 0,7.55 0.446,14.99 1.25,22.32 14.735,187.61 171.524,335.29 362.922,335.29 117.371,0 221.699,-55.59 288.305,-141.8 66.594,86.21 170.924,141.8 288.294,141.8 m 0,-40 c -101.12,0 -194.66,-46.02 -256.64,-126.25 l -31.654,-40.98 -31.656,40.98 c -61.985,80.23 -155.528,126.25 -256.649,126.25 -82.09,0 -160.394,-30.75 -220.48,-86.59 -59.774,-55.55 -96.196,-130.78 -102.567,-211.83 l -0.046,-0.62 -0.071,-0.62 c -0.668,-6.1 -1.008,-12.14 -1.008,-17.95 v -262.3 c 0,-90.02 73.25,-163.28 163.286,-163.28 h 898.375 c 90.03,0 163.28,73.26 163.28,163.28 v 262.3 c 0,5.84 -0.34,11.88 -1.01,17.95 l -0.06,0.62 -0.05,0.62 c -6.37,81.05 -42.8,156.28 -102.57,211.83 -60.09,55.84 -138.39,86.59 -220.48,86.59 v 0"
         style="fill:#000000;fill-opacity:1;fill-rule:nonzero;stroke:none"
         id="path72" /><path
         d="m 681.309,1725.58 c -88.582,-0.03 -160.368,-71.79 -160.387,-160.38 0.019,-88.59 71.805,-160.37 160.387,-160.39 88.574,0.02 160.351,71.81 160.367,160.39 -0.016,88.57 -71.793,160.35 -160.367,160.38 z m 632.031,0 c -88.57,-0.03 -160.35,-71.79 -160.38,-160.38 0.03,-88.59 71.81,-160.37 160.38,-160.39 88.59,0.02 160.37,71.81 160.39,160.39 -0.02,88.57 -71.8,160.37 -160.39,160.38"
         style="fill:#100f0d;fill-opacity:1;fill-rule:nonzero;stroke:none"
         id="path74" /><path
         d="m 767.004,2058.91 c 0,-43.46 35.226,-78.7 78.684,-78.7 43.46,0 78.687,35.24 78.687,78.7 0,43.46 -35.227,78.69 -78.687,78.69 -43.458,0 -78.684,-35.23 -78.684,-78.69"
         style="fill:#100f0d;fill-opacity:1;fill-rule:nonzero;stroke:none"
         id="path76" /><path
         d="m 799.684,2089.28 c 0,-11.83 9.586,-21.42 21.414,-21.42 11.828,0 21.414,9.59 21.414,21.42 0,11.83 -9.586,21.41 -21.414,21.41 -11.828,0 -21.414,-9.58 -21.414,-21.41"
         style="fill:#ffffff;fill-opacity:1;fill-rule:nonzero;stroke:none"
         id="path78" /><path
         d="m 1070.28,2058.91 c 0,-43.46 35.24,-78.7 78.69,-78.7 43.47,0 78.69,35.24 78.69,78.7 0,43.46 -35.22,78.69 -78.69,78.69 -43.45,0 -78.69,-35.23 -78.69,-78.69"
         style="fill:#100f0d;fill-opacity:1;fill-rule:nonzero;stroke:none"
         id="path80" /><path
         d="m 1102.96,2089.28 c 0,-11.83 9.59,-21.42 21.42,-21.42 11.83,0 21.42,9.59 21.42,21.42 0,11.83 -9.59,21.41 -21.42,21.41 -11.83,0 -21.42,-9.58 -21.42,-21.41"
         style="fill:#ffffff;fill-opacity:1;fill-rule:nonzero;stroke:none"
         id="path82" /></g></g></svg>
