<?xml version="1.0" encoding="UTF-8" standalone="no"?>
<!-- Created with Inkscape (http://www.inkscape.org/) -->

<svg
   width="210mm"
   height="297mm"
   viewBox="0 0 210 297"
   version="1.1"
   id="svg9816"
   inkscape:version="1.1.2 (0a00cf5339, 2022-02-04)"
   sodipodi:docname="farmerWeaponized.svg"
   xmlns:inkscape="http://www.inkscape.org/namespaces/inkscape"
   xmlns:sodipodi="http://sodipodi.sourceforge.net/DTD/sodipodi-0.dtd"
   xmlns="http://www.w3.org/2000/svg"
   xmlns:svg="http://www.w3.org/2000/svg">
  <sodipodi:namedview
     id="namedview9818"
     pagecolor="#ffffff"
     bordercolor="#666666"
     borderopacity="1.0"
     inkscape:pageshadow="2"
     inkscape:pageopacity="0.0"
     inkscape:pagecheckerboard="0"
     inkscape:document-units="mm"
     showgrid="false"
     inkscape:zoom="0.71051718"
     inkscape:cx="589.71129"
     inkscape:cy="570.71104"
     inkscape:window-width="1846"
     inkscape:window-height="1016"
     inkscape:window-x="74"
     inkscape:window-y="27"
     inkscape:window-maximized="1"
     inkscape:current-layer="layer1" />
  <defs
     id="defs9813">
    <clipPath
       clipPathUnits="userSpaceOnUse"
       id="clipPath8071">
      <path
         d="m 10119.2,981 c -2223.37,0 -4025.74,200.5 -4025.74,447.9 0,247.3 1802.37,447.9 4025.74,447.9 2223.3,0 4025.7,-200.6 4025.7,-447.9 0,-247.4 -1802.4,-447.9 -4025.7,-447.9"
         id="path8069" />
    </clipPath>
  </defs>
  <g
     inkscape:label="Layer 1"
     inkscape:groupmode="layer"
     id="layer1">
    <g
       id="g8065"
       transform="matrix(0.01616876,0,0,-0.01597298,-50.950459,303.67252)"
       style="fill:#1a1a1a">
      <g
         id="g8067"
         clip-path="url(#clipPath8071)"
         style="fill:#1a1a1a">
        <path
           d="m 6093.46,981 h 8051.44 v 895.801 H 6093.46 Z"
           style="fill:#1a1a1a;fill-opacity:1;fill-rule:nonzero;stroke:none"
           id="path8073" />
      </g>
    </g>
    <path
       d="m 155.10094,109.35157 c 0.23283,-1.69793 5.17562,-6.44031 -1.02187,-11.134773 -4.52078,-13.2416 -22.52631,-34.442545 -23.56272,-35.083061 -1.22237,-0.753927 -10.922,-2.263369 -17.64335,-2.565263 -0.76317,2.340045 -3.81082,6.866784 -7.33221,6.866784 -3.52139,0 -7.103252,-3.470927 -8.746002,-6.18633 -5.99505,0.980733 -16.458822,3.99803 -18.215557,5.130517 -9.929072,9.732344 -20.087417,29.954143 -20.087417,29.954143 0,0 10.125684,4.561883 17.33226,9.259543 l 4.656764,-8.232483 -1.348636,19.985393 h 52.019568 l 3.6396,-13.44126 20.30957,5.44679"
       style="fill:#e73838;fill-opacity:1;fill-rule:nonzero;stroke:none;stroke-width:0.0160706"
       id="path8075" />
    <path
       d="m 80.480838,97.360647 1.607175,-10.22431 c 0,0 -5.911137,3.40545 -1.607175,10.22431"
       style="fill:#c43030;fill-opacity:1;fill-rule:nonzero;stroke:none;stroke-width:0.0160706"
       id="path8077" />
    <path
       d="m 154.50593,107.62329 c 0.59986,-2.0701 2.24584,-8.278803 -4.49006,-7.34277 2.79396,3.25209 4.49006,7.34277 4.49006,7.34277"
       style="fill:#911414;fill-opacity:1;fill-rule:nonzero;stroke:none;stroke-width:0.0160706"
       id="path8079" />
    <path
       d="m 84.662564,89.992307 c -1.348636,6.44031 -7.586542,32.746223 -7.586542,32.746223 0,0 -2.452639,65.19374 -4.873587,96.0184 -2.42111,30.82307 0.677794,44.98792 0.677794,44.98792 l 14.10433,-1.55577 c 6.011219,-19.53975 20.168091,-98.55332 20.168091,-98.55332 0,0 17.78224,89.45031 21.82766,99.21939 16.85916,0 15.48159,0 15.48159,0 0,0 -2.35417,-123.68362 -14.49206,-173.897893 l -45.307276,1.03505"
       style="fill:#265177;fill-opacity:1;fill-rule:nonzero;stroke:none;stroke-width:0.0160706"
       id="path8119" />
    <path
       d="m 124.31725,92.947307 c -0.66292,-6.73261 -3.10926,-25.186201 -4.31383,-31.62331 -0.10024,-0.536691 0.36056,-1.009497 0.90707,-0.931225 l 3.01386,0.434463 c 0.3363,0.0479 0.60632,0.300289 0.67261,0.630937 1.13828,5.747077 3.62989,24.408315 4.37204,31.715955 0.13743,1.34972 -0.94265,2.34802 -2.32669,2.14837 -1.20296,-0.17411 -2.21027,-1.20117 -2.32506,-2.37519"
       style="fill:#265177;fill-opacity:1;fill-rule:nonzero;stroke:none;stroke-width:0.0160706"
       id="path8081" />
    <path
       d="m 126.14432,72.308617 c -0.0275,0 -0.055,0.0018 -0.084,0.0062 l -4.17477,0.621349 c -0.30883,0.04477 -0.52225,0.332245 -0.47699,0.637322 l 0.37836,2.472624 c 0.0226,0.148543 0.10186,0.279525 0.22312,0.368972 0.12289,0.08785 0.27326,0.124587 0.42201,0.102228 l 4.17478,-0.621349 c 0.15036,-0.02078 0.28133,-0.100631 0.37187,-0.220429 0.0906,-0.121394 0.12774,-0.268341 0.1051,-0.416893 l -0.37673,-2.472615 c -0.0437,-0.277929 -0.28619,-0.477595 -0.56267,-0.477595 z m -3.79967,5.235947 c -0.33954,0 -0.66777,-0.107017 -0.94586,-0.309876 -0.3444,-0.25078 -0.56914,-0.618156 -0.6322,-1.036646 l -0.37674,-2.472623 c -0.13097,-0.860944 0.47051,-1.667573 1.34201,-1.796958 l 4.17477,-0.621349 c 0.86989,-0.129386 1.68802,0.464814 1.81899,1.327355 l 0.37835,2.472614 c 0.0631,0.416902 -0.042,0.833796 -0.29589,1.174014 -0.25385,0.33863 -0.62573,0.560656 -1.04774,0.622954 l -4.17477,0.621349 c -0.0808,0.01275 -0.16168,0.01918 -0.24092,0.01918"
       style="fill:#f89f2f;fill-opacity:1;fill-rule:nonzero;stroke:none;stroke-width:0.0160706"
       id="path8083" />
    <path
       d="m 90.818337,23.985546 c -0.588546,-4.547502 2.374211,-6.159181 5.178201,-7.614325 2.48385,-1.29061 4.323522,-3.857471 6.215592,-4.127418 3.01514,-0.43127 4.12497,1.167628 6.5089,3.43899 2.53024,2.410316 7.53609,2.768114 6.77292,7.925789 l -24.675613,0.376964"
       style="fill:#bf6a19;fill-opacity:1;fill-rule:nonzero;stroke:none;stroke-width:0.0160706"
       id="path8085" />
    <path
       d="m 73.853588,33.869626 c 0,7.323615 13.477306,13.26077 30.102182,13.26077 16.62487,0 30.10154,-5.937155 30.10154,-13.26077 0,-7.323606 -13.47667,-13.260771 -30.10154,-13.260771 -16.624876,0 -30.102182,5.937165 -30.102182,13.260771"
       style="fill:#d47b26;fill-opacity:1;fill-rule:nonzero;stroke:none;stroke-width:0.0160706"
       id="path8087" />
    <path
       d="m 78.009282,27.145 c 6.858464,14.677581 41.020778,15.036975 51.897508,13.446059 -5.23384,3.913381 -14.89629,6.539337 -25.95102,6.539337 -16.625038,0 -30.102182,-5.937155 -30.102182,-13.26077 0,-2.455044 1.516144,-4.753554 4.155694,-6.724626"
       style="fill:#c47223;fill-opacity:1;fill-rule:nonzero;stroke:none;stroke-width:0.0160706"
       id="path8089" />
    <path
       d="m 101.8713,53.958847 c -1.26828,3.383085 -3.390912,10.487867 -3.390912,10.487867 0,0 3.667072,3.470927 7.638752,3.470927 3.9717,0 6.18633,-2.413518 6.18633,-2.413518 l -3.57524,-10.337719 -6.85893,-1.207557"
       style="fill:#ffa678;fill-opacity:1;fill-rule:nonzero;stroke:none;stroke-width:0.0160706"
       id="path8091" />
    <path
       d="m 109.92511,58.749155 0.0338,-0.03032 -1.22867,-3.5524 -6.85893,-1.207558 c -0.67974,1.814538 -1.60476,4.696063 -2.316992,6.980196 1.601032,0.55427 8.605172,-0.445639 10.370802,-2.189896"
       style="fill:#e3824f;fill-opacity:1;fill-rule:nonzero;stroke:none;stroke-width:0.0160706"
       id="path8093" />
    <path
       d="m 114.52868,37.634464 c 1.15768,-2.292124 4.64044,-2.609991 4.99452,1.220338 0.3541,3.83032 -2.46896,4.386178 -3.73982,3.498084 -0.39775,-2.054124 -1.2547,-4.718422 -1.2547,-4.718422"
       style="fill:#ffa678;fill-opacity:1;fill-rule:nonzero;stroke:none;stroke-width:0.0160706"
       id="path8095" />
    <path
       d="m 117.53606,38.228655 0.64514,-0.86733 c -2.02918,-0.841778 -1.66053,2.231422 -1.66053,2.231422 l 0.66615,-0.894489 0.55298,1.903985 c 0,0 1.11725,-2.071694 -0.20374,-2.373588"
       style="fill:#e37f4b;fill-opacity:1;fill-rule:nonzero;stroke:none;stroke-width:0.0160706"
       id="path8097" />
    <path
       d="m 93.279388,37.4955 c -1.28672,-2.221844 -4.782889,-2.344834 -4.917254,1.498266 -0.134521,3.844689 2.716357,4.240819 3.933694,3.284042 0.28037,-2.073291 0.98356,-4.782308 0.98356,-4.782308"
       style="fill:#ffa678;fill-opacity:1;fill-rule:nonzero;stroke:none;stroke-width:0.0160706"
       id="path8099" />
    <path
       d="m 90.31047,38.257409 -0.693639,-0.828997 c 1.978571,-0.953584 1.785028,2.133993 1.785028,2.133993 l -0.715305,-0.854559 -0.442859,1.931134 c 0,0 -1.235292,-2.006213 0.06679,-2.381571"
       style="fill:#e37f4b;fill-opacity:1;fill-rule:nonzero;stroke:none;stroke-width:0.0160706"
       id="path8101" />
    <path
       d="m 116.78745,48.198998 c -0.78095,8.173376 -6.7283,10.300973 -11.94127,10.300973 -10.520512,0 -14.00764,-7.076028 -13.275511,-15.58963 0.240579,-2.761728 -0.144232,-11.045322 -0.214239,-12.080371 2.047118,-1.496671 5.103828,-2.129195 5.103828,-2.129195 3.544192,-5.004342 12.415012,-6.731021 8.460622,-1.667582 5.37029,-2.876735 16.95326,-0.174104 11.32007,3.392664 0.6613,2.129195 -0.42685,6.90352 -0.42685,6.90352 0,0 1.56028,4.726405 0.97335,10.869621"
       style="fill:#4d0002;fill-opacity:1;fill-rule:nonzero;stroke:none;stroke-width:0.0160706"
       id="path8103" />
    <path
       d="m 112.67089,31.972036 c -0.30236,0.832199 0.18756,3.774417 1.46974,6.438715 1.28218,2.664298 -1.46974,4.825439 -2.58539,4.496397 -4.90753,-1.447153 -9.314,-0.554262 -13.435592,0.222025 -4.12156,0.777884 -5.3242,-2.830411 -5.2482,-5.884453 1.29673,-0.166114 2.34592,-3.940531 2.45328,-5.994664 2.33671,0.944006 4.834132,-0.05592 3.24733,-1.776187 3.474352,0.388139 6.829842,-1.221943 6.829842,-1.221943 0,0 2.28141,3.164252 7.26899,3.72011"
       style="fill:#ffa678;fill-opacity:1;fill-rule:nonzero;stroke:none;stroke-width:0.0160706"
       id="path8105" />
    <path
       d="m 103.56077,36.254399 -0.5035,4.68008 c 0,0 -3.380072,-1.9503 0.5035,-4.68008"
       style="fill:#e37f4b;fill-opacity:1;fill-rule:nonzero;stroke:none;stroke-width:0.0160706"
       id="path8107" />
    <path
       d="m 96.397038,36.244811 3.56537,-1.263461 c -0.8875,-1.335346 -3.6357,-0.407314 -3.56537,1.263461"
       style="fill:#4d0002;fill-opacity:1;fill-rule:nonzero;stroke:none;stroke-width:0.0160706"
       id="path8109" />
    <path
       d="m 107.01554,35.383866 3.85738,0.583016 c 0.0243,-1.384855 -3.53788,-2.501369 -3.85738,-0.583016"
       style="fill:#4d0002;fill-opacity:1;fill-rule:nonzero;stroke:none;stroke-width:0.0160706"
       id="path8111" />
    <path
       d="m 99.423338,37.733499 c 0,0.46641 -0.38239,0.844971 -0.85403,0.844971 -0.47181,0 -0.8542,-0.378561 -0.8542,-0.844971 0,-0.464823 0.38239,-0.843375 0.8542,-0.843375 0.47164,0 0.85403,0.378552 0.85403,0.843375"
       style="fill:#4d0002;fill-opacity:1;fill-rule:nonzero;stroke:none;stroke-width:0.0160706"
       id="path8113" />
    <path
       d="m 109.57522,37.733499 c 0,0.46641 -0.38256,0.844971 -0.85419,0.844971 -0.47182,0 -0.85421,-0.378561 -0.85421,-0.844971 0,-0.464823 0.38239,-0.843375 0.85421,-0.843375 0.47163,0 0.85419,0.378552 0.85419,0.843375"
       style="fill:#4d0002;fill-opacity:1;fill-rule:nonzero;stroke:none;stroke-width:0.0160706"
       id="path8115" />
    <path
       d="m 100.11989,46.693123 c 2.47334,-0.146946 6.41398,0 7.96134,0.801849 -0.61328,-3.6099 -4.59177,-5.895638 -7.96134,-0.801849"
       style="fill:#ffffff;fill-opacity:1;fill-rule:nonzero;stroke:none;stroke-width:0.0160706"
       id="path8117" />
    <path
       d="m 90.12793,102.22123 c 0,0 7.371818,-1.04144 16.53125,-1.04144 9.15977,0 17.51578,1.04144 17.51578,1.04144 0,0 0.66292,20.37673 -16.69214,20.37673 -17.35489,0 -17.35489,-20.37673 -17.35489,-20.37673"
       style="fill:#113f65;fill-opacity:1;fill-rule:nonzero;stroke:none;stroke-width:0.0160706"
       id="path8121" />
    <path
       d="m 130.02158,138.88881 c -0.33308,7.67821 1.66215,17.53356 8.81198,23.44835 l -8.81198,-23.44835"
       style="fill:#113f65;fill-opacity:1;fill-rule:nonzero;stroke:none;stroke-width:0.0160706"
       id="path8123" />
    <path
       d="m 86.018314,138.88881 c 0.332591,7.67821 -1.662957,17.53356 -8.813266,23.44835 l 8.813266,-23.44835"
       style="fill:#113f65;fill-opacity:1;fill-rule:nonzero;stroke:none;stroke-width:0.0160706"
       id="path8125" />
    <path
       d="m 117.6153,226.82489 c 3.84816,18.91521 9.68508,34.9984 9.91306,38.80317 -1.61687,7.98809 -0.0323,14.30222 -0.0323,14.30222 h 10.94463 l 1.93216,-1.18201 4.23137,1.81772 h 21.06142 c 0,0 -0.55135,-5.45157 -5.05758,-6.45148 -4.50785,-0.99991 -10.11841,-3.99804 -10.11841,-3.99804 l -5.347,-5.65284 0.084,-39.38779 c 0,0 -6.84261,-1.91515 -14.83483,-1.54298 -7.9906,0.37056 -12.77655,3.29203 -12.77655,3.29203"
       style="fill:#3a3a3c;fill-opacity:1;fill-rule:nonzero;stroke:none;stroke-width:0.0160706"
       id="path8127" />
    <path
       d="m 97.879228,226.82489 c -3.84945,18.91521 -9.68573,34.9984 -9.913224,38.80317 1.616877,7.98809 0.03153,14.30222 0.03153,14.30222 H 77.052577 l -1.93152,-1.18201 -4.230879,1.81772 H 49.827947 c 0,0 0.55184,-5.45157 5.058718,-6.45148 4.506719,-0.99991 10.117116,-3.99804 10.117116,-3.99804 l 5.348301,-5.65284 -0.08424,-39.38779 c 0,0 6.842133,-1.91515 14.833541,-1.54298 7.991245,0.37056 12.777845,3.29203 12.777845,3.29203"
       style="fill:#3a3a3c;fill-opacity:1;fill-rule:nonzero;stroke:none;stroke-width:0.0160706"
       id="path8129" />
    <path
       d="m 90.703369,94.916777 c 0.452241,-6.77893 2.479649,-26.432094 3.491489,-32.85323 0.0723,-0.458428 -0.35491,-0.838585 -0.8099,-0.723577 l -3.516056,0.896085 c -0.2511,0.06386 -0.439627,0.268341 -0.482154,0.520718 -0.945225,5.609708 -2.81336,25.021674 -3.328174,32.385224 -0.09443,1.34972 1.016853,2.34963 2.393942,2.14996 1.197946,-0.1741 2.172443,-1.20117 2.250853,-2.37518"
       style="fill:#265177;fill-opacity:1;fill-rule:nonzero;stroke:none;stroke-width:0.0160706"
       id="path8131" />
    <path
       d="m 87.876107,77.840063 4.207111,0.337025 c 0.15069,0.01275 0.29815,-0.03354 0.41376,-0.130973 0.1156,-0.09744 0.18594,-0.23321 0.19822,-0.381753 l 0.2047,-2.493386 c 0.0123,-0.148552 -0.0351,-0.293903 -0.13339,-0.408911 -0.0981,-0.113403 -0.23558,-0.183684 -0.38676,-0.194868 l -4.207267,-0.337025 c -0.310764,-0.0256 -0.586606,0.204447 -0.611991,0.512726 l -0.204696,2.493386 c -0.01229,0.148544 0.03508,0.293903 0.133392,0.408911 0.09814,0.113403 0.235741,0.183684 0.386921,0.194868 z m 4.255781,1.357706 c -0.044,0 -0.0878,-0.0018 -0.1321,-0.0045 l -4.207116,-0.337034 c -0.879094,-0.07028 -1.536192,-0.833796 -1.464726,-1.702723 l 0.204697,-2.491781 c 0.07114,-0.868935 0.842715,-1.520635 1.723264,-1.447153 l 4.207111,0.337026 c 0.42588,0.03353 0.8128,0.230008 1.08945,0.551068 0.27665,0.32106 0.41005,0.729962 0.37528,1.151654 l -0.20454,2.491781 c -0.0344,0.421691 -0.23283,0.803444 -0.5583,1.076584 -0.29185,0.244385 -0.65452,0.375367 -1.03302,0.375367"
       style="fill:#f89f2f;fill-opacity:1;fill-rule:nonzero;stroke:none;stroke-width:0.0160706"
       id="path8133" />
    <path
       d="m 91.519574,133.14333 8.320764,5.42442 c 0,0 -0.51466,1.7794 -1.88722,1.61008 -1.3724,-0.17091 -6.09044,-1.44076 -6.09044,-1.44076 l -0.343104,-5.59374"
       style="fill:#ffa678;fill-opacity:1;fill-rule:nonzero;stroke:none;stroke-width:0.0160706"
       id="path8135" />
    <path
       d="m 119.04946,94.988667 c -0.22475,-2.98216 2.96212,-7.40189 2.96212,-7.40189 l -2.96212,7.40189"
       style="fill:#e37f4b;fill-opacity:1;fill-rule:nonzero;stroke:none;stroke-width:0.0160706"
       id="path8159" />
    <path
       d="m 122.3107,96.130727 c -0.27972,-2.70582 2.51586,-5.35734 3.18686,-5.57777 -1.45357,2.20906 -3.18686,5.57777 -3.18686,5.57777"
       style="fill:#e37f4b;fill-opacity:1;fill-rule:nonzero;stroke:none;stroke-width:0.0160706"
       id="path8161" />
    <path
       d="m 125.54283,98.033107 c -0.39128,-3.87025 1.84486,-6.854 3.1319,-7.18465 -1.40831,2.32247 -3.1319,7.18465 -3.1319,7.18465"
       style="fill:#e37f4b;fill-opacity:1;fill-rule:nonzero;stroke:none;stroke-width:0.0160706"
       id="path8163" />
    <path
       d="m 116.53037,94.673987 c -0.78256,-3.92136 1.51017,-6.40676 1.51017,-6.40676 l -1.51017,6.40676"
       style="fill:#e37f4b;fill-opacity:1;fill-rule:nonzero;stroke:none;stroke-width:0.0160706"
       id="path8165" />
    <path
       d="m 130.28675,98.799817 c 0.83754,-5.7998 3.52155,-7.84274 3.52155,-7.84274 l -3.52155,7.84274"
       style="fill:#e37f4b;fill-opacity:1;fill-rule:nonzero;stroke:none;stroke-width:0.0160706"
       id="path8167" />
    <path
       d="m 126.06863,22.491105 0.31242,0.118368 0.81922,-2.226825 -1.82263,-0.690578 -0.2244,0.609997 c -0.1804,0.490358 -0.1439,1.032171 0.10057,1.474248 v 0 c 0.18343,0.332519 0.47091,0.584484 0.81482,0.71479"
       style="fill:#656565;fill-opacity:1;fill-rule:nonzero;stroke:none;stroke-width:0.0086918"
       id="path7102" />
    <path
       d="m 130.52844,18.755088 -7.65029,20.795584 -2.47185,-0.936571 7.65028,-20.795582 2.47186,0.936569"
       style="fill:#989898;fill-opacity:1;fill-rule:nonzero;stroke:none;stroke-width:0.0086918"
       id="path7104" />
    <path
       d="m 102.25375,86.436811 0.36987,0.140148 2.42416,-6.589509 -0.3519,-0.189031 -2.44213,6.63838"
       style="fill:#656565;fill-opacity:1;fill-rule:nonzero;stroke:none;stroke-width:0.0086918"
       id="path7106" />
    <path
       d="m 106.13472,78.397744 -2.96409,8.057221 -0.4407,-0.166978 2.96409,-8.057223 0.4407,0.16698"
       style="fill:#b2b2b2;fill-opacity:1;fill-rule:nonzero;stroke:none;stroke-width:0.0086918"
       id="path7108" />
    <path
       d="m 111.05443,70.769505 4.65649,1.764309 9.87889,-29.439619 -4.2929,-1.626552 -6.9532,18.900717 -3.28928,10.401145"
       style="fill:#cc6119;fill-opacity:1;fill-rule:nonzero;stroke:none;stroke-width:0.0086918"
       id="path7110" />
    <path
       d="m 126.57928,40.952993 -0.81239,2.208296 -6.30441,-2.388697 0.81239,-2.208297 6.30441,2.388698"
       style="fill:#4c4c4c;fill-opacity:1;fill-rule:nonzero;stroke:none;stroke-width:0.0086918"
       id="path7112" />
    <path
       d="m 124.92222,41.323521 2.70035,-6.865006 0.7547,0.285952 -2.38683,6.982843 c -0.11124,0.323592 -0.44914,0.497011 -0.74898,0.383406 v 0 c -0.29984,-0.113616 -0.44442,-0.468859 -0.31924,-0.787195"
       style="fill:#656565;fill-opacity:1;fill-rule:nonzero;stroke:none;stroke-width:0.0086918"
       id="path7114" />
    <path
       d="m 127.23223,34.310618 c 0.16766,-0.45102 0.65256,-0.691624 1.07437,-0.531795 0.4226,0.160117 0.63454,0.663768 0.46809,1.11622 l -1.54246,-0.584425"
       style="fill:#b2b2b2;fill-opacity:1;fill-rule:nonzero;stroke:none;stroke-width:0.0086918"
       id="path7116" />
    <path
       d="m 114.75057,60.522511 -3.69612,10.246999 -2.46791,-0.935086 3.82522,-10.198068 2.33888,0.886171"
       style="fill:#b14b04;fill-opacity:1;fill-rule:nonzero;stroke:none;stroke-width:0.0086918"
       id="path7118" />
    <path
       d="m 112.64071,59.723105 6.9532,-18.900707 1.703,0.645245 -6.9532,18.900717 -1.703,-0.645255"
       style="fill:#989898;fill-opacity:1;fill-rule:nonzero;stroke:none;stroke-width:0.0086918"
       id="path7120" />
    <path
       d="m 85.481555,136.90786 -0.633623,-0.89295 c -0.30813,-0.43468 -0.379286,-1.01393 -0.187582,-1.53504 v 0 l 0.605907,-0.38932 c 0.7727,-0.49663 1.155319,-1.466 0.934362,-2.36935 v 0 c -0.136369,-0.55733 -0.101615,-1.15208 0.09986,-1.69973 l 2.45117,-6.66298 c 0.203955,-0.55439 0.786874,-0.84712 1.306872,-0.65682 v 0 l 0.279389,0.10585 -2.806229,8.52742 -2.05016,5.5729"
       style="fill:#b2b2b2;fill-opacity:1;fill-rule:nonzero;stroke:none;stroke-width:0.0086918"
       id="path7122" />
    <path
       d="m 115.97849,72.6352 -1.19301,3.242938 -7.68394,-2.911378 1.19301,-3.24295 7.68394,2.91139"
       style="fill:#4c4c4c;fill-opacity:1;fill-rule:nonzero;stroke:none;stroke-width:0.0086918"
       id="path7124" />
    <path
       d="m 104.89031,80.415467 -0.70261,-0.454359 0.14909,-0.405276 0.82284,0.122669 -0.26937,0.736948"
       style="fill:#4c4c4c;fill-opacity:1;fill-rule:nonzero;stroke:none;stroke-width:0.0086918"
       id="path7126" />
    <path
       d="m 92.005632,128.8134 -3.865804,10.50833 -3.508295,-1.32927 3.865805,-10.50832 3.508294,1.32926"
       style="fill:#4c4c4c;fill-opacity:1;fill-rule:nonzero;stroke:none;stroke-width:0.0086918"
       id="path7128" />
    <path
       d="m 102.0559,85.612126 0.74526,0.282366 0.64843,-1.762576 -0.37304,-0.14134 -0.47764,1.298359 -0.46345,0.106222 -0.0797,0.216533"
       style="fill:#4c4c4c;fill-opacity:1;fill-rule:nonzero;stroke:none;stroke-width:0.0086918"
       id="path7130" />
    <path
       d="m 88.203243,139.09818 -0.159936,0.43476 -3.591724,-1.36088 0.159937,-0.43476 3.591723,1.36088"
       style="fill:#656565;fill-opacity:1;fill-rule:nonzero;stroke:none;stroke-width:0.0086918"
       id="path7132" />
    <path
       d="m 94.760985,128.85996 c 1.251279,-0.24489 2.589661,-0.16117 3.881084,0.32814 3.666471,1.3892 5.556511,5.45755 4.221341,9.08688 -1.33512,3.62925 -5.389873,5.44519 -9.056341,4.05598 -1.419693,-0.53791 -2.568642,-1.48028 -3.37116,-2.64047 0.671768,1.98844 2.069902,3.60862 4.018438,4.3469 3.727081,1.41217 8.029883,-0.92455 9.609873,-5.2194 1.57994,-4.29469 -0.16099,-8.92188 -3.88807,-10.33405 -1.795073,-0.68013 -3.721932,-0.48287 -5.415165,0.37602"
       style="fill:#4c4c4c;fill-opacity:1;fill-rule:nonzero;stroke:none;stroke-width:0.0086918"
       id="path7134" />
    <path
       d="m 101.93217,134.52036 c -0.15642,0.70305 -0.48744,1.39093 -0.99931,1.98033 -1.451403,1.67368 -3.778665,1.92342 -5.196256,0.55842 -1.418402,-1.36522 -1.390906,-3.82857 0.06139,-5.50229 0.562134,-0.64811 1.256055,-1.07925 1.976992,-1.28895 -1.082732,-0.0109 -2.150018,0.42857 -2.921917,1.3178 -1.475767,1.70092 -1.311831,4.38973 0.366798,6.00551 1.67787,1.61539 4.234726,1.54583 5.710633,-0.1555 0.7112,-0.81933 1.03781,-1.86801 1.00163,-2.91534"
       style="fill:#b2b2b2;fill-opacity:1;fill-rule:nonzero;stroke:none;stroke-width:0.0086918"
       id="path7136" />
    <path
       d="m 88.398424,138.34338 -0.16338,0.44411 -3.519322,-1.33344 0.163377,-0.44411 3.519325,1.33344"
       style="fill:#656565;fill-opacity:1;fill-rule:nonzero;stroke:none;stroke-width:0.0086918"
       id="path7138" />
    <path
       d="m 114.45967,75.754683 -6.9723,27.605297 -4.33454,24.53727 c -0.11641,0.65765 -0.44441,1.25911 -0.92822,1.7017 v 0 c -2.15922,1.97447 -3.725978,4.57104 -4.496288,7.44979 v 0 c -0.2515,0.93958 -0.391106,1.90157 -0.488953,2.8671 -1.665679,16.43434 0.799792,60.53216 0.799792,60.53216 0.06922,2.53436 -2.159569,4.5322 -4.497785,4.0318 L 81.5636,201.91619 c -1.88766,-0.40409 -3.095252,-2.30825 -2.751322,-4.3375 l 5.831899,-34.36699 c 0.229007,-1.35128 0.830705,-2.61396 1.728395,-3.62828 v 0 c 1.193341,-1.34752 1.851486,-3.11948 1.832166,-4.93157 l -0.161434,-15.11892 2.294822,-13.77433 4.4722,-10.08734 6.863124,-22.04134 6.98022,-19.398296 1.20776,-0.21911 4.59825,1.742237"
       style="fill:#cc6119;fill-opacity:1;fill-rule:nonzero;stroke:none;stroke-width:0.0086918"
       id="path7140" />
    <path
       d="m 98.92101,107.88528 -5.785912,15.7277 -2.752813,-1.04302 5.7859,-15.7277 2.752825,1.04302"
       style="fill:#b2b2b2;fill-opacity:1;fill-rule:nonzero;stroke:none;stroke-width:0.0086918"
       id="path7142" />
    <path
       d="m 94.744975,119.48545 -1.581381,4.29865 -2.140542,-0.81105 1.581381,-4.29864 2.140542,0.81104"
       style="fill:#656565;fill-opacity:1;fill-rule:nonzero;stroke:none;stroke-width:0.0086918"
       id="path7144" />
    <path
       d="m 98.92101,107.88528 -2.529847,6.87681 v 0 c -1.129306,-0.42788 -1.683291,-1.75424 -1.238805,-2.96245 l 1.724879,-4.68873 2.043773,0.77437"
       style="fill:#656565;fill-opacity:1;fill-rule:nonzero;stroke:none;stroke-width:0.0086918"
       id="path7146" />
    <path
       d="m 101.78458,96.55005 -0.85733,2.33046 -2.914935,-1.10445 0.857328,-2.33046 2.914937,1.10445"
       style="fill:#4c4c4c;fill-opacity:1;fill-rule:nonzero;stroke:none;stroke-width:0.0086918"
       id="path7148" />
    <path
       d="m 87.823676,131.44558 1.473999,0.55849 1.069804,-3.62705 c 0.178219,-0.48446 0.617227,-0.81251 1.103666,-0.82595 l 0.435105,-0.0127 c 0.409319,-0.011 0.810494,-0.14602 1.156923,-0.38819 v 0 c 0.511277,-0.35635 0.863485,-0.91889 0.971066,-1.5501 l 2.58e-4,-7e-4 c 0.08697,-0.50943 0.0077,-1.03001 -0.22466,-1.47326 v 0 c -0.213995,-0.41034 -0.24245,-0.90589 -0.07752,-1.35413 l 5.06466,-13.76903 c 0.277099,-0.75322 0.265539,-1.58223 -0.03154,-2.30533 v 0 c -0.295653,-0.71969 -0.308611,-1.54249 -0.03618,-2.29271 l 2.030153,-5.58681 -2.20037,-0.83371 -3.072781,8.16004 c -0.112317,0.29823 0.02437,0.6284 0.304539,0.73456 l 2.033521,0.77048 c 0.542998,0.20575 0.809341,0.84425 0.595787,1.42476 l -4.953687,13.46548 c -0.213868,0.58136 -0.827049,0.88566 -1.370056,0.67991 l -1.746289,-0.66166 c -0.115675,-0.0438 -0.246207,0.021 -0.291466,0.14399 l -1.491185,4.05346 c -0.242068,0.65802 -0.410377,1.34208 -0.500789,2.03644 v 0 c -0.09076,0.6952 -0.258817,1.37868 -0.50105,2.03713 v 0 c -0.09254,0.25158 0.02364,0.52802 0.258169,0.61687"
       style="fill:#b14b04;fill-opacity:1;fill-rule:nonzero;stroke:none;stroke-width:0.0086918"
       id="path7150" />
    <path
       d="m 99.012877,95.49986 2.979143,-7.900779 v 0 c 0.51401,-0.220006 0.92325,-0.657215 1.1241,-1.203184 l 2.7341,-7.432035 c 0.14166,-0.385043 0.17128,-0.801966 0.0862,-1.197079 l -0.14302,-0.661838 1.49614,-4.066937 2.57181,0.974434 -8.07683,22.537608 -2.771703,-1.05018"
       style="fill:#b14b04;fill-opacity:1;fill-rule:nonzero;stroke:none;stroke-width:0.0086918"
       id="path7152" />
    <path
       d="m 98.715047,122.45268 -0.560396,1.52333 -5.578023,-2.11347 c -0.3927,-0.1488 -0.5859,-0.61079 -0.431223,-1.03122 v 0 c 0.154667,-0.42043 0.598921,-0.64089 0.991629,-0.4921 l 5.578013,2.11346"
       style="fill:#4c4c4c;fill-opacity:1;fill-rule:nonzero;stroke:none;stroke-width:0.0086918"
       id="path7154" />
    <path
       d="m 99.780117,122.32153 c 0.638223,0.24181 0.952893,0.99271 0.701203,1.67685 -0.25168,0.68415 -0.974243,1.04203 -1.612472,0.80022 -0.639019,-0.24212 -0.952888,-0.99271 -0.701213,-1.67686 0.251685,-0.68415 0.973452,-1.04233 1.612482,-0.80021"
       style="fill:#b2b2b2;fill-opacity:1;fill-rule:nonzero;stroke:none;stroke-width:0.0086918"
       id="path7156" />
    <path
       d="m 93.01852,124.89262 c 0.426541,0.16161 0.63515,0.66208 0.467463,1.1179 -0.16769,0.45582 -0.648431,0.69509 -1.074972,0.53348 -0.425755,-0.16132 -0.63516,-0.66208 -0.467472,-1.1179 0.167679,-0.45581 0.649229,-0.69479 1.074981,-0.53348"
       style="fill:#565655;fill-opacity:1;fill-rule:nonzero;stroke:none;stroke-width:0.0086918"
       id="path7158" />
    <path
       d="m 92.827816,137.63685 c 0.745252,0.28237 1.11167,1.15828 0.818081,1.95634 -0.293592,0.79805 -1.135966,1.21596 -1.881229,0.93358 -0.74604,-0.28267 -1.11167,-1.15827 -0.818081,-1.95633 0.293592,-0.79805 1.13519,-1.21625 1.881229,-0.93359"
       style="fill:#565655;fill-opacity:1;fill-rule:nonzero;stroke:none;stroke-width:0.0086918"
       id="path7160" />
    <path
       d="m 102.42846,105.98486 c 0.74526,0.28235 1.11161,1.15844 0.81809,1.95632 -0.29384,0.79872 -1.13597,1.21595 -1.88123,0.93358 -0.74605,-0.28268 -1.11269,-1.15789 -0.81885,-1.95663 0.29352,-0.79788 1.13595,-1.21595 1.88199,-0.93327"
       style="fill:#565655;fill-opacity:1;fill-rule:nonzero;stroke:none;stroke-width:0.0086918"
       id="path7162" />
    <path
       d="m 100.09774,146.27951 c -1.801362,-1.18679 -4.031842,-2.88153 -4.031842,-2.88153 l -4.546324,-10.25465 c 0,0 -3.08823,-1.18679 -5.147002,-1.18679 C 84.735647,129.198 75.953586,112.9423 75.953586,112.9423 c 0,0 -2.023681,-3.45656 -3.820839,-5.13692 0.812966,-1.3529 1.561741,-2.45185 2.108406,-3.21536 -5.094129,-3.13709 -11.090312,-6.069743 -13.995352,-7.441813 -1.62868,2.969383 -3.851075,8.042393 -5.097848,13.708013 3.517028,8.47367 21.273881,25.67657 24.790909,28.38879 1.201014,7.6271 2.573581,10.17 2.573581,10.17 l 3.860129,10.16841 c 0,0 1.286709,-1.44077 0.943609,-3.64344 -0.343102,-2.20427 -1.201016,-6.52497 -1.201016,-6.52497 l 7.891973,6.35565 c 0,0 0.77206,-1.44076 0,-2.7122 -0.7719,-1.27146 -3.431178,-4.40696 -3.431178,-4.40696 l 6.867838,4.99955 c 0,0 1.37774,-1.35611 0,-2.62596 -1.3779,-1.27146 -4.20856,-5.0858 -4.20856,-5.0858 l 7.377162,3.47572 c 0,0 1.28671,-1.95031 -0.51466,-3.1355"
       style="fill:#ffa678;fill-opacity:1;fill-rule:nonzero;stroke:none;stroke-width:0.0160706"
       id="path8145" />
    <path
       d="m 72.132747,107.80538 c -4.272594,-4.75515 -7.419519,-1.49667 -7.419519,-1.49667 l 7.419519,1.49667"
       style="fill:#e37f4b;fill-opacity:1;fill-rule:nonzero;stroke:none;stroke-width:0.0160706"
       id="path8147" />
    <path
       d="m 78.768081,128.04635 c -3.118952,0.0511 -6.122461,7.15111 -6.122461,7.15111 l 6.122461,-7.15111"
       style="fill:#e37f4b;fill-opacity:1;fill-rule:nonzero;stroke:none;stroke-width:0.0160706"
       id="path8149" />
    <path
       d="m 74.310356,125.53699 c -1.995548,0.16293 -5.067127,3.16425 -5.401497,5.03789 1.151862,-0.7715 5.401497,-5.03789 5.401497,-5.03789"
       style="fill:#e37f4b;fill-opacity:1;fill-rule:nonzero;stroke:none;stroke-width:0.0160706"
       id="path8151" />
    <path
       d="m 70.48224,123.61704 c -2.01398,0.0463 -5.080546,2.08128 -4.714485,3.25689 0.915474,-0.95039 4.714485,-3.25689 4.714485,-3.25689"
       style="fill:#e37f4b;fill-opacity:1;fill-rule:nonzero;stroke:none;stroke-width:0.0160706"
       id="path8153" />
    <path
       d="m 70.925426,120.12695 c -3.257519,0.13416 -5.661167,2.31448 -6.027227,3.49009 2.059737,-1.40083 6.027227,-3.49009 6.027227,-3.49009"
       style="fill:#e37f4b;fill-opacity:1;fill-rule:nonzero;stroke:none;stroke-width:0.0160706"
       id="path8155" />
    <path
       d="m 116.56756,86.449497 c 13.29719,7.11916 29.85238,8.50242 36.02884,15.592833 3.61857,4.15298 3.6024,9.66046 3.6024,9.66046 l -1.62981,2.28893 c 0,0 -3.25962,1.10214 -5.66068,0.93123 -9.20003,1.91516 -33.71348,-14.15207 -40.2324,-21.779163 -5.06115,-1.1852 -11.232112,-5.67681 -11.232112,-5.67681 l 2.25975,-8.32512 2.023032,-3.847891 3.0892,-0.878514 3.86013,2.288931 2.59315,-0.08464 c 0,0 4.95572,2.881525 5.2985,9.829774"
       style="fill:#ffa678;fill-opacity:1;fill-rule:nonzero;stroke:none;stroke-width:0.0160706"
       id="path8157" />
    <path
       style="fill:#00112b;stroke:#000003;stroke-width:1.40964"
       d="m 343.41182,1086.3856 c -4.25746,-0.2682 -19.77433,-1.1652 -34.48192,-1.9934 -79.54043,-4.4793 -135.07461,-15.3197 -127.18449,-24.8267 0.93066,-1.1214 2.94521,-2.7096 4.47678,-3.5292 2.43249,-1.3019 2.68629,-1.1141 2.0068,1.4842 l -0.77787,2.9746 h 41.20838 c 38.88602,0 41.58733,-0.1676 47.93264,-2.9744 6.35266,-2.8101 6.9874,-2.849 11.48606,-0.7038 3.69844,1.7637 9.28578,2.2708 25.02045,2.2708 h 20.25865 l 0.88226,-8.0927 c 0.48524,-4.451 1.00582,-9.3594 1.15683,-10.9076 0.25492,-2.6131 1.63597,-2.8785 19.27484,-3.7041 10.45013,-0.4891 42.51041,-0.9641 71.24504,-1.0556 l 52.24482,-0.1662 0.97169,8.7964 c 1.83477,16.6098 -0.3992,15.1298 22.83688,15.1298 15.80033,0 21.28554,-0.4967 24.6398,-2.2313 4.03226,-2.0851 4.77733,-2.0391 11.37719,0.7037 6.60318,2.7442 9.70409,2.935 47.69004,2.935 44.97255,0 42.65984,0.551 38.58834,-9.1935 -1.96789,-4.7098 -1.93092,-4.8797 1.05557,-4.8503 4.15182,0.041 26.81918,5.0859 34.94829,7.7784 3.58587,1.1877 7.58539,3.3369 8.88784,4.7761 2.22902,2.463 2.1935,2.7794 -0.6047,5.3863 -8.42794,7.8518 -50.89102,14.8418 -122.47093,20.1604 -19.0006,1.4117 -185.45297,2.9173 -202.66928,1.8331 z"
       id="path830"
       transform="scale(0.26458333)" />
  </g>
</svg>
