<?xml version="1.0" encoding="UTF-8" standalone="no"?>
<!-- Created with Inkscape (http://www.inkscape.org/) -->

<svg
   width="210mm"
   height="297mm"
   viewBox="0 0 210 297"
   version="1.1"
   id="svg14356"
   inkscape:version="1.1.2 (0a00cf5339, 2022-02-04)"
   sodipodi:docname="separateUFO2ndModel.svg"
   xmlns:inkscape="http://www.inkscape.org/namespaces/inkscape"
   xmlns:sodipodi="http://sodipodi.sourceforge.net/DTD/sodipodi-0.dtd"
   xmlns="http://www.w3.org/2000/svg"
   xmlns:svg="http://www.w3.org/2000/svg">
  <sodipodi:namedview
     id="namedview14358"
     pagecolor="#ffffff"
     bordercolor="#666666"
     borderopacity="1.0"
     inkscape:pageshadow="2"
     inkscape:pageopacity="0.0"
     inkscape:pagecheckerboard="0"
     inkscape:document-units="mm"
     showgrid="false"
     inkscape:zoom="0.75187991"
     inkscape:cx="397.00489"
     inkscape:cy="399.66489"
     inkscape:window-width="1846"
     inkscape:window-height="1016"
     inkscape:window-x="74"
     inkscape:window-y="27"
     inkscape:window-maximized="1"
     inkscape:current-layer="layer1" />
  <defs
     id="defs14353" />
  <g
     inkscape:label="Layer 1"
     inkscape:groupmode="layer"
     id="layer1">
    <path
       d="m 152.11392,46.751876 c -0.73995,0 -0.74188,1.298104 0,1.298104 0.73996,0 0.74189,-1.298104 0,-1.298104"
       style="fill:#fdefdb;fill-opacity:1;fill-rule:nonzero;stroke:none;stroke-width:0.0205305"
       id="path2232" />
    <path
       d="m 106.62129,22.155472 c -0.74189,0 -0.74189,1.300292 0,1.300292 0.73996,0 0.73996,-1.300292 0,-1.300292"
       style="fill:#fdefdb;fill-opacity:1;fill-rule:nonzero;stroke:none;stroke-width:0.0205305"
       id="path2234" />
    <path
       d="m 146.32568,61.737914 c -0.73996,0 -0.73996,1.298102 0,1.298102 0.73996,0 0.74189,-1.298102 0,-1.298102"
       style="fill:#fdefdb;fill-opacity:1;fill-rule:nonzero;stroke:none;stroke-width:0.0205305"
       id="path2264" />
    <path
       d="m 157.56988,98.198361 c -0.73996,0 -0.74189,1.2981 0,1.2981 0.73994,0 0.74187,-1.2981 0,-1.2981"
       style="fill:#fdefdb;fill-opacity:1;fill-rule:nonzero;stroke:none;stroke-width:0.0205305"
       id="path2268" />
    <path
       d="m 101.49185,17.141942 c -0.73996,0 -0.74188,1.298106 0,1.298106 0.73995,0 0.74188,-1.298106 0,-1.298106"
       style="fill:#fdefdb;fill-opacity:1;fill-rule:nonzero;stroke:none;stroke-width:0.0205305"
       id="path2278" />
    <path
       d="m 73.037061,55.101212 c -0.739953,0 -0.741307,1.298103 0,1.298103 0.740343,0 0.74169,-1.298103 0,-1.298103"
       style="fill:#fdefdb;fill-opacity:1;fill-rule:nonzero;stroke:none;stroke-width:0.0205305"
       id="path2282" />
    <path
       d="M 157.95821,65.182806 H 52.566438 c 0.0056,-7.097038 1.11302,-13.901742 3.137749,-20.211201 7.33945,-22.885944 26.757528,-39.2377316 49.556983,-39.2377316 1.78901,0 3.55487,0.100358 5.29752,0.296712 23.7809,2.679116 42.90377,23.2132006 46.70979,49.5549516 0.45209,3.124193 0.6878,6.331273 0.68973,9.597269"
       style="fill:#f4df89;fill-opacity:1;fill-rule:nonzero;stroke:none;stroke-width:0.0205305"
       id="path2396" />
    <path
       d="m 145.24182,42.621925 c -0.4598,0 -0.93121,-0.07194 -1.37751,-0.167991 -3.2071,-0.695961 -6.20555,-2.369313 -8.86398,-4.516101 -2.65649,-2.144602 -4.99226,-4.75609 -7.1986,-7.476656 -2.73571,-3.372896 -5.35356,-7.062143 -6.48764,-11.451706 -0.74381,-2.886381 -0.12557,-6.420721 2.3184,-6.420721 0.49845,0 1.07031,0.146174 1.72527,0.475609 4.39529,2.212236 8.75193,5.174973 12.53091,8.840219 4.29868,4.169214 7.83229,9.235104 9.83384,15.265296 0.53323,1.607915 0.74767,3.671792 -0.62597,4.845543 -0.52936,0.453795 -1.18238,0.606508 -1.85472,0.606508"
       style="fill:#f8ecb8;fill-opacity:1;fill-rule:nonzero;stroke:none;stroke-width:0.0205305"
       id="path2398" />
    <path
       d="m 115.98373,16.627062 c -0.21638,0 -0.43084,-0.04581 -0.62983,-0.146173 -0.71484,-0.355616 -1.07032,-1.282836 -1.1708,-2.159875 -0.20478,-1.819531 0.5487,-4.6120966 2.50001,-4.7604526 0.0599,-0.0044 0.11592,-0.0065 0.17195,-0.0065 2.06722,0 2.10781,3.0260066 1.53786,4.6513676 -0.24922,0.715595 -0.59119,1.415919 -1.12442,1.89371 -0.36321,0.325071 -0.82883,0.527968 -1.28477,0.527968"
       style="fill:#f8ecb8;fill-opacity:1;fill-rule:nonzero;stroke:none;stroke-width:0.0205305"
       id="path2400" />
    <path
       d="m 91.505365,7.7803004 c 4.38524,-1.335194 8.996525,-2.046427 13.755805,-2.046427 -4.75908,0 -9.370375,0.711233 -13.755805,2.046427"
       style="fill:#81674f;fill-opacity:1;fill-rule:nonzero;stroke:none;stroke-width:0.0205305"
       id="path2402" />
    <path
       d="m 54.12942,50.812001 c 0.0058,-0.02617 0.01161,-0.05235 0.01758,-0.07852 0.05465,-0.248714 0.110512,-0.495254 0.168086,-0.74178 0.04326,-0.183259 0.0879,-0.366529 0.132728,-0.551977 0.06317,-0.257432 0.12635,-0.517054 0.192423,-0.776674 0.03883,-0.150537 0.07961,-0.301072 0.11959,-0.45162 0.278015,-1.05374 0.580375,-2.094411 0.907849,-3.121991 0.01254,-0.03924 0.02414,-0.08074 0.03653,-0.117813 5.809115,-18.108045 19.178121,-32.127602 35.801179,-37.1913086 4.38544,-1.335196 8.996725,-2.046427 13.755795,-2.046427 v 0 c 1.78903,0 3.55486,0.100358 5.29754,0.29671 -4.99036,0.589057 -9.88699,1.568636 -14.698235,3.663061 -6.52434,2.8383816 -12.52376,7.1646756 -17.563745,12.6341756 -4.367464,4.740822 -10.626929,11.083001 -6.107227,18.140768 2.497297,3.900877 6.268547,4.225945 10.074762,4.225945 0.37944,0 0.75985,-0.0045 1.13872,-0.0068 0.37886,-0.0045 0.75676,-0.0068 1.13272,-0.0068 0.31782,0 0.63409,0.0023 0.94823,0.009 5.46986,0.11346 10.93836,0.322891 16.401275,0.654521 8.12674,0.490882 16.25849,1.223919 24.33615,2.408575 -6.76584,-0.37307 -13.77898,-0.571597 -20.96019,-0.571597 -18.614175,0 -36.073208,1.3221 -51.131741,3.630346"
       style="fill:#f3c46d;fill-opacity:1;fill-rule:nonzero;stroke:none;stroke-width:0.0205305"
       id="path2404" />
    <path
       d="m 118.35428,65.182806 h -9.23685 c 2.94434,0 6.20555,-0.442881 9.23685,0"
       style="fill:#f2a951;fill-opacity:1;fill-rule:nonzero;stroke:none;stroke-width:0.0205305"
       id="path2406" />
    <path
       d="m 208.02773,74.59681 c 0,0.469064 -0.0465,0.938127 -0.13137,1.402822 -0.0193,0.09596 -0.0387,0.194175 -0.0618,0.290166 -0.9544,4.17795 -5.41923,8.104991 -12.61592,11.5717 l -0.0155,0.009 c -17.12518,8.238063 -49.69858,13.877742 -87.28936,14.130812 -0.43857,0.004 -0.88098,0.005 -1.32341,0.006 -0.4405,0.004 -0.8868,0.004 -1.32921,0.004 -0.44302,0 -0.88602,0 -1.32903,-0.004 -0.44319,-0.004 -0.88427,-0.005 -1.3236,-0.006 -0.84043,-0.007 -1.67698,-0.0131 -2.51353,-0.024 C 47.843094,101.28574 5.8618502,90.187454 2.6873952,76.287903 c -0.02199,-0.09382 -0.0421,-0.194175 -0.06048,-0.287983 -0.08597,-0.464695 -0.131758,-0.933776 -0.131758,-1.402839 0,-5.085507 5.189911,-9.845974 14.2335718,-13.92573 l 0.0077,-0.0072 C 34.622111,52.594683 67.572637,47.18191 105.26118,47.18191 c 56.75423,0 102.76657,12.2742 102.76657,27.415146"
       style="fill:#4492aa;fill-opacity:1;fill-rule:nonzero;stroke:none;stroke-width:0.0205305"
       id="path2408" />
    <path
       d="m 207.83454,76.289798 c -0.0329,-0.09596 -0.0676,-0.189816 -0.10433,-0.283614 0,0 0.003,-0.0036 0.003,-0.0036 0.0908,-0.05018 0.12945,-0.172353 0.085,-0.274888 -0.86361,-2.022423 -2.81299,-3.988132 -5.76121,-5.862192 -10.78731,-12.059523 -51.44996,-21.026277 -99.96482,-21.026277 -20.073405,0 -40.27143,1.354833 -60.079575,5.168438 -8.130019,1.568622 -17.093307,3.311808 -25.276458,6.656331 17.886005,-8.070072 50.836531,-13.482852 88.525093,-13.482852 56.75423,0 102.76656,12.274207 102.76656,27.415144 0,0.469063 -0.0465,0.938126 -0.13138,1.40283 -0.0193,0.09596 -0.0387,0.194167 -0.0618,0.290167 v 0"
       style="fill:#8fbecc;fill-opacity:1;fill-rule:nonzero;stroke:none;stroke-width:0.0205305"
       id="path2410" />
    <path
       d="m 157.56794,98.198361 h 0.002 c 11.22101,-1.77373 21.07031,-4.10159 29.0166,-6.839616 -7.94629,2.738026 -17.79559,5.065886 -29.01853,6.839616 m 29.03014,-6.843966 c 0.0135,-0.0045 0.0289,-0.01128 0.0426,-0.01525 -0.0134,0.0045 -0.0289,0.01128 -0.0426,0.01525 m 0.0618,-0.02184 c 0.0135,-0.0045 0.0308,-0.01128 0.0465,-0.01525 -0.0135,0.0045 -0.0328,0.01128 -0.0465,0.01525 m 0.087,-0.02834 v -0.0036 0.0036 m 8.46406,-3.440542 0.008,-0.0036 v 0 0 c 7.19667,-3.4667 11.66151,-7.39375 12.61592,-11.571709 v 0 c -0.95441,4.180134 -5.42117,8.107175 -12.62364,11.573884"
       style="fill:#213671;fill-opacity:1;fill-rule:nonzero;stroke:none;stroke-width:0.0205305"
       id="path2412" />
    <path
       d="m 157.56988,98.198361 c 2.93856,-3.79615 5.42503,-8.222808 5.80563,-10.14924 0.0522,-0.26616 0.0792,-0.536697 0.0792,-0.798498 0,-4.051411 -6.08383,-7.827913 -17.1329,-10.640117 -10.96986,-2.792564 -25.55254,-4.328479 -41.06065,-4.328479 -15.507145,0 -30.089055,1.535915 -41.058718,4.328479 -11.048684,2.812204 -17.133497,6.588706 -17.133497,10.640117 0,0.261801 0.02645,0.532338 0.07863,0.798498 0.201897,1.021031 0.733195,2.478391 1.621716,4.186668 -5.970826,-1.893707 -10.996711,-4.003412 -14.889676,-6.281093 1.248837,-0.890134 2.027433,-1.998429 2.027433,-2.781657 0,-1.518451 -2.920011,-2.748937 -6.520865,-2.748937 -0.789794,0 -1.546365,0.0611 -2.246713,0.167994 -1.168468,-1.396287 -1.937972,-2.834026 -2.273179,-4.304482 3.78922,-11.082995 40.371504,-20.032295 87.295949,-21.648931 23.16266,0.357792 45.08111,2.511134 62.34348,6.150202 13.2071,2.783828 22.91731,6.265814 28.38291,10.096855 1.2925,1.73445 1.9687,3.529981 1.9687,5.366974 0,0.469054 -0.0425,0.938117 -0.12943,1.40283 -0.0173,0.09596 -0.0387,0.194158 -0.0618,0.290149 -0.80757,3.525622 -4.11127,6.872339 -9.44745,9.915805 v 0 l -0.008,0.0036 c -2.50193,1.204295 -5.33422,2.354052 -8.46405,3.438349 v 0.0036 c -0.0155,0.0045 -0.0271,0.009 -0.0405,0.01309 -0.0155,0.0045 -0.0329,0.01128 -0.0465,0.01525 -0.008,0.0036 -0.0116,0.0045 -0.0193,0.0072 -0.0135,0.0045 -0.0289,0.01128 -0.0425,0.01525 -0.003,0.0036 -0.008,0.0036 -0.0116,0.0045 -7.94629,2.738034 -17.79559,5.065884 -29.0166,6.839604 m 23.56837,-17.772063 c -3.60123,0 -6.52047,1.228294 -6.52047,2.746745 0,1.516285 2.91924,4.252129 6.52047,4.252129 3.60124,0 6.52047,-2.735844 6.52047,-4.252129 0,-1.518451 -2.91923,-2.746745 -6.52047,-2.746745 m -19.1252,-12.742833 c -3.60124,0 -6.52048,1.230477 -6.52048,2.746753 0,1.516276 2.91924,4.254302 6.52048,4.254302 3.60123,0 6.52048,-2.738026 6.52048,-4.254302 0,-1.516276 -2.91925,-2.746753 -6.52048,-2.746753 m -113.503627,0 c -3.601427,0 -6.520667,1.230477 -6.520667,2.746753 0,1.516276 2.91924,4.254302 6.520667,4.254302 3.601045,0 6.520476,-2.738026 6.520476,-4.254302 0,-1.516276 -2.919431,-2.746753 -6.520476,-2.746753 m 84.757947,-5.727808 c -3.60123,0 -6.52048,1.230477 -6.52048,2.746744 0,1.51846 2.91925,4.254302 6.52048,4.254302 3.60123,0 6.52048,-2.735842 6.52048,-4.254302 0,-1.516267 -2.91925,-2.746744 -6.52048,-2.746744 m -56.010991,0 c -3.601232,0 -6.520672,1.230477 -6.520672,2.746744 0,1.51846 2.91944,4.254302 6.520672,4.254302 3.601235,0 6.520476,-2.735842 6.520476,-4.254302 0,-1.516267 -2.919241,-2.746744 -6.520476,-2.746744 m 28.004831,-1.50754 c -3.60047,0 -6.519915,1.230459 -6.519915,2.746744 0,1.518451 2.919445,4.254293 6.519915,4.254293 3.60122,0 6.52046,-2.735842 6.52046,-4.254293 0,-1.516285 -2.91924,-2.746744 -6.52046,-2.746744"
       style="fill:#3b6c9f;fill-opacity:1;fill-rule:nonzero;stroke:none;stroke-width:0.0205305"
       id="path2414" />
    <path
       d="m 195.21861,87.861498 c 5.33618,-3.043466 8.6399,-6.390183 9.44746,-9.915805 0.0232,-0.09596 0.0444,-0.194157 0.0618,-0.290149 0.087,-0.464713 0.12943,-0.933776 0.12943,-1.40283 0,-1.836993 -0.67619,-3.632524 -1.96868,-5.366974 2.31258,1.61882 3.86398,3.303089 4.60006,5.02225 0.031,0.07419 0.0966,0.117823 0.16423,0.117823 0.0251,0 0.0522,-0.0063 0.0773,-0.01958 0.0367,0.09382 0.0715,0.187623 0.10432,0.283624 -0.9544,4.17794 -5.41924,8.104991 -12.61592,11.571699"
       style="fill:#6082b0;fill-opacity:1;fill-rule:nonzero;stroke:none;stroke-width:0.0205305"
       id="path2416" />
    <path
       d="M 52.73143,98.163441 C 44.64932,96.878431 37.283018,95.305421 30.832674,93.498982 20.540174,90.616969 12.576306,87.134993 7.7486452,83.273399 4.9795152,81.0568 3.2416892,78.715844 2.6874002,76.287614 c 0.03402,-0.09821 0.07053,-0.198525 0.109738,-0.29671 0.02517,0.01309 0.05163,0.01959 0.07783,0.01959 0.06778,0 0.133116,-0.04359 0.164602,-0.115639 2.490151,-5.785831 14.2098088,-11.150621 32.9999868,-15.110387 18.965216,-3.99686 43.548478,-6.198189 69.221583,-6.198189 2.31066,0 4.61167,0.01751 6.90108,0.05235 -46.924427,1.616663 -83.506711,10.565963 -87.295931,21.648958 0.335207,1.470465 1.104715,2.908204 2.273185,4.304473 -0.539607,0.08502 -1.045983,0.198553 -1.508109,0.335996 -1.67311,0.495236 -2.766038,1.315558 -2.766038,2.244956 0,1.479183 2.775307,4.116861 6.251732,4.247762 0.08791,0.0045 0.179483,0.0063 0.269127,0.0063 1.741499,0 3.323801,-0.641407 4.493432,-1.47263 3.892964,2.27769 8.91885,4.387377 14.889675,6.281093 0.923877,1.775894 2.233581,3.822324 3.962134,5.927654"
       style="fill:#365699;fill-opacity:1;fill-rule:nonzero;stroke:none;stroke-width:0.0205305"
       id="path2418" />
    <path
       d="m 207.65293,76.025813 c -0.0676,0 -0.1333,-0.04359 -0.16423,-0.117823 -2.47682,-5.788005 -14.19048,-11.157154 -32.98297,-15.119105 -18.96831,-3.999044 -43.56064,-6.202557 -69.24456,-6.202557 -25.673107,0 -50.256367,2.20132 -69.221584,6.198189 -18.790178,3.959767 -30.5098368,9.324548 -32.9999868,15.110396 -0.04398,0.102498 -0.153785,0.143987 -0.244582,0.09382 -0.09081,-0.04801 -0.128862,-0.172353 -0.08462,-0.274896 2.542306,-5.905838 14.3549008,-11.351339 33.2619678,-15.337297 18.986663,-4.001219 43.594068,-6.204723 69.288815,-6.204723 25.70515,0 50.32069,2.205688 69.31217,6.211275 18.91035,3.985958 30.71676,9.435819 33.24382,15.346006 0.0444,0.102508 0.006,0.224726 -0.085,0.274906 -0.0251,0.01525 -0.0522,0.02175 -0.0792,0.02175"
       style="fill:#374976;fill-opacity:1;fill-rule:nonzero;stroke:none;stroke-width:0.0205305"
       id="path2420" />
    <path
       d="m 163.27312,87.248439 c 0,0.255258 -0.0271,0.50834 -0.0754,0.757055 -0.51583,2.59403 -5.46753,10.790647 -9.94395,14.575886 -5.55836,4.70154 -15.11013,2.96491 -26.66345,1.2261 -6.14373,-0.92285 -12.85547,-1.84572 -19.8319,-1.80208 -0.49652,0.005 -0.99497,0.006 -1.49729,0.006 -0.4998,0 -0.99962,-0.004 -1.49749,-0.006 -0.47238,-0.004 -0.94649,-0.006 -1.41886,-0.0131 -6.425235,-0.0808 -12.881755,0.86395 -18.912475,1.80645 -6.469858,1.01231 -12.449572,2.0246 -17.375572,1.77372 -3.568004,-0.18544 -6.583072,-1.02976 -8.829402,-3.02384 -6.119974,-5.425849 -9.327469,-11.645863 -9.900302,-14.543146 -0.04946,-0.248715 -0.07516,-0.501797 -0.07516,-0.757055 0,-8.150805 25.972171,-14.759141 58.009261,-14.759141 28.02549,0 51.41033,5.057151 56.8257,11.778959 0.77667,0.962115 1.18625,1.959151 1.18625,2.980182"
       style="fill:#4492aa;fill-opacity:1;fill-rule:nonzero;stroke:none;stroke-width:0.0205305"
       id="path2422" />
    <path
       d="M 55.628451,100.77711 C 50.560063,95.726501 48.003067,90.472982 47.505,87.959673 c -0.04639,-0.237812 -0.06974,-0.475606 -0.06974,-0.70905 0,-3.780873 6.140648,-7.511564 16.847755,-10.236513 10.944158,-2.786021 25.49728,-4.319734 40.978155,-4.319734 15.48299,0 30.03476,1.533713 40.97951,4.319734 7.75887,1.974446 13.12016,4.476835 15.48491,7.142876 -1.30603,-0.390535 -2.61785,-0.741784 -3.93741,-1.064676 -13.16072,-3.231087 -26.82185,-4.134304 -40.25886,-4.134304 -31.756175,0 -57.552911,6.494901 -58.003842,14.547528 -2.886589,1.612267 -4.495167,3.403427 -4.495167,5.292787 0,0.21816 0.02202,0.43633 0.06434,0.65232 0.08868,0.44943 0.268349,0.890139 0.533807,1.326469"
       style="fill:#3d74a2;fill-opacity:1;fill-rule:nonzero;stroke:none;stroke-width:0.0205305"
       id="path2424" />
    <path
       d="m 105.26117,88.594546 c -0.10051,0 -0.18238,-0.09382 -0.18238,-0.207271 V 72.487114 c 0,-0.113446 0.0819,-0.205087 0.18238,-0.205087 0.10239,0 0.18354,0.09168 0.18354,0.205087 v 15.900161 c 0,0.113464 -0.0811,0.207271 -0.18354,0.207271"
       style="fill:#374976;fill-opacity:1;fill-rule:nonzero;stroke:none;stroke-width:0.0205305"
       id="path2426" />
    <path
       d="m 74.821835,90.592972 c -0.06124,0 -0.120942,-0.03484 -0.155521,-0.09821 -4.917506,-8.905667 -4.146638,-14.89005 -4.111478,-15.140931 0.01583,-0.113464 0.109739,-0.189825 0.209428,-0.172371 0.09989,0.01958 0.167892,0.124367 0.15224,0.237822 -0.0084,0.05884 -0.777434,6.095645 4.06047,14.857325 0.0535,0.09821 0.02722,0.224707 -0.05854,0.285789 -0.03012,0.01958 -0.06356,0.0306 -0.0966,0.0306"
       style="fill:#374976;fill-opacity:1;fill-rule:nonzero;stroke:none;stroke-width:0.0205305"
       id="path2428" />
    <path
       d="m 135.70164,90.592972 c -0.0329,0 -0.0657,-0.01128 -0.0965,-0.0306 -0.085,-0.0611 -0.11207,-0.187605 -0.058,-0.285789 4.83771,-8.761681 4.06877,-14.798427 4.06105,-14.857325 -0.0174,-0.113446 0.0523,-0.218183 0.1507,-0.237804 0.10041,-0.01751 0.19319,0.05884 0.21058,0.172353 0.0348,0.25089 0.80563,6.235273 -4.11128,15.140949 -0.0348,0.06327 -0.0947,0.09821 -0.15649,0.09821"
       style="fill:#374976;fill-opacity:1;fill-rule:nonzero;stroke:none;stroke-width:0.0205305"
       id="path2430" />
    <path
       d="m 107.24726,101.79815 c 7.46522,0 14.68314,1.09522 21.06838,2.06387 10.95439,1.66028 19.60586,2.97147 24.82997,-1.44646 4.5228,-3.824499 9.39528,-12.040753 9.87249,-14.455887 0.0465,-0.237812 0.0715,-0.475606 0.0715,-0.70905 0,-3.780873 -6.14182,-7.511564 -16.84891,-10.236513 -10.94474,-2.786021 -25.49652,-4.319734 -40.97951,-4.319734 -15.480875,0 -30.033996,1.533713 -40.978154,4.319734 -10.707107,2.724949 -16.847754,6.45564 -16.847754,10.236513 0,0.233444 0.02338,0.471238 0.06975,0.70905 0.551393,2.783838 3.625771,8.920948 9.835587,14.425347 5.085004,4.50736 14.221978,3.07183 24.801766,1.40719 6.24053,-0.97957 13.31278,-2.09225 20.205165,-2.00497 0.47199,0.006 0.94456,0.009 1.41808,0.0131 0.99422,0.006 1.99788,0.006 2.99286,0 0.16229,-0.004 0.32651,-0.004 0.48879,-0.004 m 35.49457,4.03395 c -4.18083,0 -9.04559,-0.73741 -14.47449,-1.55991 -6.51275,-0.9883 -13.89295,-2.10969 -21.50694,-2.05951 -0.99498,0.006 -2.00154,0.006 -2.99691,0 -0.4745,-0.004 -0.94784,-0.006 -1.4204,-0.0131 -6.863025,-0.085 -13.617845,0.97522 -20.150305,2.00279 -10.662668,1.67772 -19.870929,3.12419 -25.078038,-1.49227 -6.285353,-5.569859 -9.404168,-11.820414 -9.967154,-14.660975 -0.05214,-0.26616 -0.07864,-0.536706 -0.07864,-0.798489 0,-4.05142 6.084813,-7.827922 17.133496,-10.640125 10.969664,-2.792574 25.551576,-4.328462 41.058721,-4.328462 15.5081,0 30.09079,1.535888 41.06064,4.328462 11.04907,2.812203 17.13292,6.588705 17.13292,10.640125 0,0.261783 -0.0271,0.532329 -0.0792,0.798489 -0.55642,2.816554 -5.61244,10.978266 -10.0116,14.698055 -2.71443,2.29733 -6.30215,3.08491 -10.62209,3.08491"
       style="fill:#374976;fill-opacity:1;fill-rule:nonzero;stroke:none;stroke-width:0.0205305"
       id="path2432" />
    <path
       d="m 155.49297,98.798321 c 0,0.21816 -0.0212,0.43633 -0.0637,0.65232 -1.31762,6.647609 -22.585,11.955679 -48.87169,12.125849 -0.42891,0.004 -0.86168,0.004 -1.29636,0.004 -0.43277,0 -0.86516,0 -1.29579,-0.004 -0.41056,-0.005 -0.82014,-0.006 -1.22875,-0.0131 -25.717157,-0.3229 -46.345431,-5.56767 -47.64199,-12.112769 -0.04233,-0.21598 -0.06434,-0.43414 -0.06434,-0.65232 0,-7.059951 22.489557,-12.782533 50.23086,-12.782533 27.74342,0 50.23181,5.722582 50.23181,12.782533"
       style="fill:#324795;fill-opacity:1;fill-rule:nonzero;stroke:none;stroke-width:0.0205305"
       id="path2434" />
    <path
       d="m 146.63673,102.77773 c 0,0.18108 -0.0174,0.35997 -0.0542,0.53887 l -0.002,0.0175 c -0.39026,1.81953 -6.19204,8.16388 -9.63292,9.60817 -4.7411,1.98752 -10.33423,1.43119 -17.88445,0.87702 -3.72489,-0.27269 -7.92503,-0.54758 -12.73377,-0.51487 -0.35355,0 -0.71097,0 -1.06839,0 -0.35704,0 -0.71214,0 -1.06724,0 -0.33867,-0.004 -0.67561,-0.005 -1.01237,-0.0113 -4.872875,-0.0633 -9.066065,0.23562 -12.752305,0.53452 -4.96368,0.40143 -9.008501,0.80287 -12.556994,0.32507 -1.459234,-0.19635 -2.834046,-0.53888 -4.153973,-1.09304 -3.450932,-1.44864 -9.422531,-7.95007 -9.779555,-9.74343 -0.03478,-0.17888 -0.05313,-0.3578 -0.05313,-0.53888 0,-5.814199 18.524722,-10.526655 41.375567,-10.526655 22.85354,0 41.37556,4.712456 41.37556,10.526655"
       style="fill:#4492aa;fill-opacity:1;fill-rule:nonzero;stroke:none;stroke-width:0.0205305"
       id="path2436" />
    <path
       d="m 73.717123,113.05786 c -3.450926,-1.44646 -9.421363,-7.9479 -9.778394,-9.74126 -0.03478,-0.1789 -0.05313,-0.35779 -0.05313,-0.53887 0,-5.814209 18.524726,-10.526671 41.375581,-10.526671 22.85354,0 41.37555,4.712462 41.37555,10.526671 0,0.18108 -0.0174,0.35997 -0.0541,0.53887 l -0.002,0.0175 v 0 c -0.68007,-0.23127 -1.30217,-0.4538 -1.77745,-0.5607 -2.65841,-0.60433 -5.34195,-1.06248 -8.03514,-1.42902 -6.46059,-0.88139 -12.9772,-1.23919 -19.48223,-1.23919 -22.055055,0 -40.079779,4.39174 -41.309493,9.92669 -1.850656,0.62398 -2.881176,1.31993 -2.881176,2.05297 0,0.085 0.01391,0.168 0.04096,0.25309 0.08037,0.24435 0.276849,0.48651 0.58095,0.71995"
       style="fill:#3d74a2;fill-opacity:1;fill-rule:nonzero;stroke:none;stroke-width:0.0205305"
       id="path2438" />
    <path
       d="m 105.69587,107.71926 c -0.10051,0 -0.18161,-0.0917 -0.18161,-0.20727 V 91.614003 c 0,-0.115621 0.0811,-0.207254 0.18161,-0.207254 0.10239,0 0.18353,0.09168 0.18353,0.207254 v 15.897987 c 0,0.11563 -0.0811,0.20727 -0.18353,0.20727"
       style="fill:#374976;fill-opacity:1;fill-rule:nonzero;stroke:none;stroke-width:0.0205305"
       id="path2440" />
    <path
       d="m 75.256534,111.16633 c -0.06124,0 -0.120943,-0.0349 -0.155522,-0.0982 -4.917505,-8.90566 -4.146637,-14.890039 -4.111478,-15.140949 0.01605,-0.11343 0.10935,-0.1898 0.209428,-0.17235 0.09989,0.0175 0.167893,0.12437 0.152242,0.23563 -0.0084,0.0611 -0.777436,6.097819 4.06047,14.859499 0.05351,0.096 0.02724,0.2247 -0.05854,0.28361 -0.03012,0.0218 -0.06356,0.0327 -0.0966,0.0327"
       style="fill:#374976;fill-opacity:1;fill-rule:nonzero;stroke:none;stroke-width:0.0205305"
       id="path2442" />
    <path
       d="m 135.95281,111.37359 c -0.0329,0 -0.0657,-0.0113 -0.0966,-0.0327 -0.085,-0.0588 -0.11205,-0.18762 -0.0579,-0.28361 4.84543,-8.77695 4.06877,-14.798419 4.06104,-14.859519 -0.0155,-0.11129 0.0522,-0.21816 0.15264,-0.23561 0.0986,-0.0175 0.19319,0.0588 0.20865,0.17236 0.0348,0.2487 0.80563,6.235279 -4.11129,15.140929 -0.0348,0.0633 -0.0947,0.0982 -0.15649,0.0982"
       style="fill:#374976;fill-opacity:1;fill-rule:nonzero;stroke:none;stroke-width:0.0205305"
       id="path2444" />
    <path
       d="m 137.42884,112.08482 c 0,0.085 -0.0135,0.16798 -0.0405,0.25307 -0.84427,2.5766 -14.4629,4.6361 -31.29634,4.70155 -0.27628,0 -0.55256,0 -0.83076,0 -0.27685,0 -0.5537,0 -0.8296,0 -0.26275,-0.004 -0.52512,-0.004 -0.78689,-0.005 -16.468325,-0.12654 -29.678138,-2.15987 -30.508503,-4.69717 -0.02706,-0.085 -0.04097,-0.16801 -0.04097,-0.25308 0,-2.73803 14.401468,-4.95681 32.165943,-4.95681 17.76661,0 32.16769,2.21878 32.16769,4.95681"
       style="fill:#324795;fill-opacity:1;fill-rule:nonzero;stroke:none;stroke-width:0.0205305"
       id="path2446" />
    <path
       d="m 80.399114,115.22863 c -1.191461,-0.22251 -2.2585,-0.46252 -3.18489,-0.71558 l 0.441847,-1.37447 h 0.09351 c 0.0037,0.0131 0.008,0.0262 0.01275,0.0415 0.316655,0.9403 1.636592,1.51845 2.361668,1.90461 0.09138,0.0502 0.183154,0.0982 0.275117,0.14399"
       style="fill:#596593;fill-opacity:1;fill-rule:nonzero;stroke:none;stroke-width:0.0205305"
       id="path2462" />
    <path
       d="m 130.07181,115.23955 c 0.79985,-0.40143 2.33771,-1.02104 2.68934,-2.05734 l 0.43663,1.36138 c -0.91383,0.24436 -1.96096,0.47779 -3.12597,0.69596"
       style="fill:#596593;fill-opacity:1;fill-rule:nonzero;stroke:none;stroke-width:0.0205305"
       id="path2490" />
    <path
       d="m 132.76117,113.18221 c 0,0.0698 -0.009,0.13964 -0.0348,0.20945 -0.34969,1.03848 -1.89141,1.65807 -2.69126,2.05952 -2.08076,1.04502 -4.29676,1.76497 -6.5031,2.37585 -6.55331,1.81516 -13.30756,2.45659 -20.04113,2.3475 -5.955185,-0.10035 -11.939725,-0.89012 -17.697455,-2.63984 -1.40939,-0.42761 -2.82283,-0.9054 -4.18682,-1.5032 -0.514295,-0.2247 -1.019512,-0.46906 -1.517386,-0.73522 -0.725077,-0.38615 -2.045013,-0.96431 -2.36167,-1.90461 -0.02393,-0.0698 -0.03478,-0.13964 -0.03478,-0.20945 0,-2.24715 12.327856,-4.07103 27.533611,-4.07103 14.24266,0 25.96019,1.60137 27.38987,3.64997 0.0966,0.13744 0.1449,0.27926 0.1449,0.42106"
       style="fill:#f4df89;fill-opacity:1;fill-rule:nonzero;stroke:none;stroke-width:0.0205305"
       id="path2698" />
    <path
       d="m 81.641385,115.81989 v 0 c -0.514296,-0.22472 -1.019512,-0.46907 -1.517387,-0.73525 -0.725077,-0.38615 -2.045014,-0.96429 -2.361668,-1.9046 -0.02395,-0.0698 -0.03478,-0.13964 -0.03478,-0.20945 0,-2.24714 12.327855,-4.07104 27.53361,-4.07104 14.24266,0 25.9602,1.60137 27.38987,3.64997 -0.483,-0.3687 -0.98919,-0.69597 -1.76778,-0.8923 -2.3918,-0.60433 -4.9034,-0.7396 -7.3435,-0.87051 -2.15997,-0.11345 -4.32574,-0.16798 -6.4915,-0.16798 -5.27821,0 -10.5622,0.32289 -15.80544,0.8814 -9.318205,0.99485 -15.934505,2.66384 -19.601429,4.31976"
       style="fill:#f3b962;fill-opacity:1;fill-rule:nonzero;stroke:none;stroke-width:0.0205305"
       id="path2700" />
    <path
       d="m 111.78164,63.197467 c 0,1.518451 -2.91924,4.254292 -6.52047,4.254292 -3.60047,0 -6.519905,-2.735841 -6.519905,-4.254292 0,-1.516285 2.919435,-2.746745 6.519905,-2.746745 3.60123,0 6.52047,1.23046 6.52047,2.746745"
       style="fill:#f4df89;fill-opacity:1;fill-rule:nonzero;stroke:none;stroke-width:0.0205305"
       id="path2702" />
    <path
       d="m 83.776815,64.705006 c 0,1.51846 -2.919239,4.254302 -6.520474,4.254302 -3.601232,0 -6.52067,-2.735842 -6.52067,-4.254302 0,-1.516267 2.919438,-2.746744 6.52067,-2.746744 3.601235,0 6.520474,1.230477 6.520474,2.746744"
       style="fill:#f4df89;fill-opacity:1;fill-rule:nonzero;stroke:none;stroke-width:0.0205305"
       id="path2704" />
    <path
       d="m 55.030307,70.431957 c 0,1.516276 -2.919432,4.254302 -6.520477,4.254302 -3.601427,0 -6.520667,-2.738026 -6.520667,-4.254302 0,-1.516276 2.91924,-2.746754 6.520667,-2.746754 3.601045,0 6.520477,1.230478 6.520477,2.746754"
       style="fill:#f4df89;fill-opacity:1;fill-rule:nonzero;stroke:none;stroke-width:0.0205305"
       id="path2706" />
    <path
       d="m 35.907054,83.173039 c 0,1.516276 -2.920011,4.254296 -6.520865,4.254296 -0.08964,0 -0.181218,-0.0036 -0.269126,-0.0063 -3.476425,-0.130891 -6.251732,-2.768578 -6.251732,-4.247752 0,-0.929399 1.092927,-1.749711 2.766037,-2.244956 1.061816,-0.316358 2.356251,-0.503981 3.754821,-0.503981 3.600854,0 6.520865,1.230477 6.520865,2.748937"
       style="fill:#f4df89;fill-opacity:1;fill-rule:nonzero;stroke:none;stroke-width:0.0205305"
       id="path2708" />
    <path
       d="m 126.74686,64.705006 c 0,1.51846 2.91924,4.254302 6.52047,4.254302 3.60124,0 6.52049,-2.735842 6.52049,-4.254302 0,-1.516267 -2.91925,-2.746744 -6.52049,-2.746744 -3.60123,0 -6.52047,1.230477 -6.52047,2.746744"
       style="fill:#f4df89;fill-opacity:1;fill-rule:nonzero;stroke:none;stroke-width:0.0205305"
       id="path2710" />
    <path
       d="m 155.49297,70.431957 c 0,1.516276 2.91925,4.254302 6.52049,4.254302 3.60123,0 6.52047,-2.738026 6.52047,-4.254302 0,-1.516276 -2.91924,-2.746754 -6.52047,-2.746754 -3.60124,0 -6.52049,1.230478 -6.52049,2.746754"
       style="fill:#f4df89;fill-opacity:1;fill-rule:nonzero;stroke:none;stroke-width:0.0205305"
       id="path2712" />
    <path
       d="m 174.61779,83.173039 c 0,1.516276 2.91923,4.252121 6.52046,4.252121 3.60124,0 6.52048,-2.735845 6.52048,-4.252121 0,-1.518451 -2.91924,-2.746744 -6.52048,-2.746744 -3.60123,0 -6.52046,1.228293 -6.52046,2.746744"
       style="fill:#f4df89;fill-opacity:1;fill-rule:nonzero;stroke:none;stroke-width:0.0205305"
       id="path2714" />
    <path
       d="m 135.01192,67.47795 c -0.0908,0 -0.17775,-0.02175 -0.24922,-0.08727 -0.10626,-0.09821 -0.14104,-0.272712 -0.11979,-0.425435 0.0212,-0.154899 0.0908,-0.294535 0.16422,-0.425427 0.26469,-0.475615 0.5912,-0.905401 0.966,-1.274104 0.31104,-0.307613 1.12055,-0.916322 1.72914,-0.916322 0.25308,0 0.47139,0.106894 0.60471,0.383974 0.34389,0.719971 -1.03555,1.725731 -1.47218,2.028985 -0.41731,0.290158 -0.87133,0.514874 -1.34466,0.665405 -0.0889,0.02834 -0.18548,0.05018 -0.27822,0.05018"
       style="fill:#faefc4;fill-opacity:1;fill-rule:nonzero;stroke:none;stroke-width:0.0205305"
       id="path2716" />
    <path
       d="m 165.74414,72.618006 c -0.006,0 -0.0135,0 -0.0212,-0.0036 -0.12171,-0.0045 -0.2473,-0.06769 -0.31105,-0.185449 -0.0986,-0.181071 -0.0232,-0.414515 0.0735,-0.597779 0.17773,-0.338163 0.98725,-1.265387 1.52626,-1.265387 0.12172,0 0.22798,0.04801 0.31105,0.157083 0.49653,0.661054 -0.84428,1.618819 -1.24419,1.802083 -0.10627,0.05018 -0.21832,0.09157 -0.33423,0.09157"
       style="fill:#faefc4;fill-opacity:1;fill-rule:nonzero;stroke:none;stroke-width:0.0205305"
       id="path2718" />
    <path
       d="m 183.3929,86.131417 c -0.12945,0 -0.25117,-0.04152 -0.31299,-0.163626 -0.0811,-0.150539 -0.0173,-0.344715 0.056,-0.501788 0.45789,-0.964311 1.33115,-1.64282 2.27783,-1.850073 0.0908,-0.01959 0.18933,-0.03267 0.28592,-0.03267 0.2956,0 0.56994,0.124357 0.56994,0.551959 0.002,0.495254 -0.61824,0.883596 -0.93702,1.121399 -0.5197,0.383977 -1.09737,0.67196 -1.70208,0.83777 -0.0754,0.02184 -0.15842,0.03709 -0.23763,0.03709"
       style="fill:#faefc4;fill-opacity:1;fill-rule:nonzero;stroke:none;stroke-width:0.0205305"
       id="path2720" />
    <path
       d="m 107.76116,66.040211 c -0.14296,0 -0.27627,-0.04576 -0.37481,-0.167994 -0.11591,-0.146171 -0.13716,-0.366528 -0.0928,-0.554152 0.0426,-0.191982 0.14491,-0.357792 0.25117,-0.51269 0.41924,-0.608691 0.966,-1.101752 1.57844,-1.435564 0.19513,-0.106894 0.55449,-0.340329 0.81144,-0.340329 0.0367,0 0.0734,0.0063 0.10626,0.01751 1.30408,0.453801 -1.33694,2.620211 -1.76005,2.844928 -0.15842,0.08285 -0.34583,0.148346 -0.51971,0.148346"
       style="fill:#faefc4;fill-opacity:1;fill-rule:nonzero;stroke:none;stroke-width:0.0205305"
       id="path2722" />
    <path
       d="m 79.635977,67.659022 c -0.0074,0 -0.01468,0 -0.02202,0 -0.206723,-0.009 -0.42272,-0.157083 -0.463291,-0.386159 -0.04327,-0.242171 0.113407,-0.466879 0.261398,-0.652318 0.31704,-0.39271 0.655139,-0.789762 1.068778,-1.053765 0.183733,-0.117814 0.560278,-0.314165 0.861089,-0.314165 0.138911,0 0.261592,0.04152 0.341963,0.152723 0.489371,0.676326 -1.112055,1.817355 -1.484736,2.046421 -0.174845,0.109042 -0.364567,0.207263 -0.563177,0.207263"
       style="fill:#faefc4;fill-opacity:1;fill-rule:nonzero;stroke:none;stroke-width:0.0205305"
       id="path2724" />
    <path
       d="m 51.791127,72.600551 c -0.0033,0 -0.0059,0 -0.0093,0 -0.183738,-0.0036 -0.398187,-0.07852 -0.451512,-0.277062 -0.04968,-0.185449 0.06472,-0.370897 0.174269,-0.517068 0.190878,-0.257442 0.389878,-0.5127 0.63292,-0.706866 0.184504,-0.148356 0.543276,-0.329436 0.851236,-0.329436 0.169242,0 0.323028,0.0546 0.424267,0.198535 0.265457,0.381799 -0.32168,0.92504 -0.551776,1.14102 -0.301975,0.283615 -0.677554,0.490877 -1.070133,0.490877"
       style="fill:#faefc4;fill-opacity:1;fill-rule:nonzero;stroke:none;stroke-width:0.0205305"
       id="path2726" />
    <path
       d="m 33.146623,84.828943 c -0.142001,0 -0.280722,-0.04359 -0.369978,-0.163625 -0.09371,-0.124358 -0.107614,-0.307622 -0.06607,-0.464713 0.04134,-0.159249 0.130795,-0.294517 0.227007,-0.4167 0.195522,-0.250889 0.426006,-0.464695 0.680643,-0.634863 0.169438,-0.111298 0.355295,-0.174546 0.514299,-0.174546 0.289023,0 0.48976,0.207271 0.342731,0.691604 -0.16924,0.560687 -0.624415,1.016672 -1.135818,1.138845 -0.06201,0.01525 -0.127701,0.02401 -0.192811,0.02401"
       style="fill:#faefc4;fill-opacity:1;fill-rule:nonzero;stroke:none;stroke-width:0.0205305"
       id="path2728" />
  </g>
</svg>
