<?xml version="1.0" encoding="UTF-8" standalone="no"?>
<!-- Created with Inkscape (http://www.inkscape.org/) -->

<svg
   width="205.53264mm"
   height="115.45238mm"
   viewBox="0 0 205.53264 115.45238"
   version="1.1"
   id="svg14356"
   inkscape:version="1.1.2 (0a00cf5339, 2022-02-04)"
   sodipodi:docname="separateUFO2ndModel.svg"
   xmlns:inkscape="http://www.inkscape.org/namespaces/inkscape"
   xmlns:sodipodi="http://sodipodi.sourceforge.net/DTD/sodipodi-0.dtd"
   xmlns="http://www.w3.org/2000/svg"
   xmlns:svg="http://www.w3.org/2000/svg">
  <sodipodi:namedview
     id="namedview14358"
     pagecolor="#ffffff"
     bordercolor="#666666"
     borderopacity="1.0"
     inkscape:pageshadow="2"
     inkscape:pageopacity="0.0"
     inkscape:pagecheckerboard="false"
     inkscape:document-units="mm"
     showgrid="false"
     inkscape:zoom="0.555499"
     inkscape:cx="120.61228"
     inkscape:cy="-108.91109"
     inkscape:window-width="1846"
     inkscape:window-height="1016"
     inkscape:window-x="74"
     inkscape:window-y="27"
     inkscape:window-maximized="1"
     inkscape:current-layer="layer1"
     fit-margin-top="1"
     fit-margin-left="1"
     fit-margin-right="0"
     fit-margin-bottom="0" />
  <defs
     id="defs14353" />
  <g
     inkscape:label="Layer 1"
     inkscape:groupmode="layer"
     id="layer1"
     transform="translate(-2.4542416,-178.14952)">
    <path
       d="m 152.073,220.16752 c -0.73995,0 -0.74188,1.2981 0,1.2981 0.73996,0 0.74189,-1.2981 0,-1.2981"
       style="fill:#fdefdb;fill-opacity:1;fill-rule:nonzero;stroke:none;stroke-width:0.0205305"
       id="path2232" />
    <path
       d="m 106.58037,195.57111 c -0.74189,0 -0.74189,1.3003 0,1.3003 0.73996,0 0.73996,-1.3003 0,-1.3003"
       style="fill:#fdefdb;fill-opacity:1;fill-rule:nonzero;stroke:none;stroke-width:0.0205305"
       id="path2234" />
    <path
       d="m 146.28476,235.15356 c -0.73996,0 -0.73996,1.2981 0,1.2981 0.73996,0 0.74189,-1.2981 0,-1.2981"
       style="fill:#fdefdb;fill-opacity:1;fill-rule:nonzero;stroke:none;stroke-width:0.0205305"
       id="path2264" />
    <path
       d="m 157.52896,271.614 c -0.73996,0 -0.74189,1.2981 0,1.2981 0.73994,0 0.74187,-1.2981 0,-1.2981"
       style="fill:#fdefdb;fill-opacity:1;fill-rule:nonzero;stroke:none;stroke-width:0.0205305"
       id="path2268" />
    <path
       d="m 101.45093,190.55758 c -0.73996,0 -0.74188,1.29811 0,1.29811 0.73995,0 0.74188,-1.29811 0,-1.29811"
       style="fill:#fdefdb;fill-opacity:1;fill-rule:nonzero;stroke:none;stroke-width:0.0205305"
       id="path2278" />
    <path
       d="m 72.996145,228.51685 c -0.739953,0 -0.741307,1.29811 0,1.29811 0.740343,0 0.74169,-1.29811 0,-1.29811"
       style="fill:#fdefdb;fill-opacity:1;fill-rule:nonzero;stroke:none;stroke-width:0.0205305"
       id="path2282" />
    <path
       d="M 157.91729,238.59845 H 52.525522 c 0.0056,-7.09704 1.11302,-13.90174 3.137749,-20.2112 7.33945,-22.88595 26.757528,-39.23773 49.556979,-39.23773 1.78901,0 3.55487,0.10035 5.29752,0.29671 23.7809,2.67911 42.90377,23.2132 46.70979,49.55495 0.45209,3.12419 0.6878,6.33127 0.68973,9.59727"
       style="fill:#f4df89;fill-opacity:1;fill-rule:nonzero;stroke:none;stroke-width:0.0205305"
       id="path2396" />
    <path
       d="m 145.2009,216.03757 c -0.4598,0 -0.93121,-0.0719 -1.37751,-0.16799 -3.2071,-0.69596 -6.20555,-2.36932 -8.86398,-4.5161 -2.65649,-2.14461 -4.99226,-4.75609 -7.1986,-7.47666 -2.73571,-3.3729 -5.35356,-7.06214 -6.48764,-11.45171 -0.74381,-2.88638 -0.12557,-6.42072 2.3184,-6.42072 0.49845,0 1.07031,0.14618 1.72527,0.47561 4.39529,2.21224 8.75193,5.17497 12.53091,8.84022 4.29868,4.16921 7.83229,9.2351 9.83384,15.2653 0.53323,1.60791 0.74767,3.67179 -0.62597,4.84554 -0.52936,0.45379 -1.18238,0.60651 -1.85472,0.60651"
       style="fill:#f8ecb8;fill-opacity:1;fill-rule:nonzero;stroke:none;stroke-width:0.0205305"
       id="path2398" />
    <path
       d="m 115.94281,190.0427 c -0.21638,0 -0.43084,-0.0458 -0.62983,-0.14617 -0.71484,-0.35561 -1.07032,-1.28283 -1.1708,-2.15987 -0.20478,-1.81953 0.5487,-4.6121 2.50001,-4.76046 0.0599,-0.004 0.11592,-0.007 0.17195,-0.007 2.06722,0 2.10781,3.02601 1.53786,4.65137 -0.24922,0.7156 -0.59119,1.41592 -1.12442,1.89371 -0.36321,0.32507 -0.82883,0.52797 -1.28477,0.52797"
       style="fill:#f8ecb8;fill-opacity:1;fill-rule:nonzero;stroke:none;stroke-width:0.0205305"
       id="path2400" />
    <path
       d="m 91.464449,181.19594 c 4.38524,-1.33519 8.996521,-2.04642 13.755801,-2.04642 -4.75908,0 -9.370371,0.71123 -13.755801,2.04642"
       style="fill:#81674f;fill-opacity:1;fill-rule:nonzero;stroke:none;stroke-width:0.0205305"
       id="path2402" />
    <path
       d="m 54.088504,224.22764 c 0.0058,-0.0262 0.01161,-0.0524 0.01758,-0.0785 0.05465,-0.24871 0.110512,-0.49525 0.168086,-0.74178 0.04326,-0.18326 0.0879,-0.36653 0.132728,-0.55197 0.06317,-0.25744 0.12635,-0.51706 0.192423,-0.77668 0.03883,-0.15053 0.07961,-0.30107 0.11959,-0.45162 0.278015,-1.05374 0.580375,-2.09441 0.907849,-3.12199 0.01254,-0.0392 0.02414,-0.0807 0.03653,-0.11781 5.809115,-18.10805 19.178121,-32.1276 35.801179,-37.19131 4.38544,-1.3352 8.996721,-2.04643 13.755791,-2.04643 v 0 c 1.78903,0 3.55486,0.10036 5.29754,0.29671 -4.99036,0.58906 -9.88699,1.56864 -14.698231,3.66306 -6.52434,2.83839 -12.52376,7.16468 -17.563745,12.63418 -4.367464,4.74082 -10.626929,11.083 -6.107227,18.14077 2.497297,3.90087 6.268547,4.22594 10.074762,4.22594 0.37944,0 0.75985,-0.004 1.13872,-0.007 0.37886,-0.004 0.75676,-0.007 1.13272,-0.007 0.31782,0 0.63409,0.002 0.94823,0.009 5.46986,0.11346 10.93836,0.32289 16.401271,0.65452 8.12674,0.49089 16.25849,1.22392 24.33615,2.40858 -6.76584,-0.37307 -13.77898,-0.5716 -20.96019,-0.5716 -18.614171,0 -36.073204,1.3221 -51.131737,3.63035"
       style="fill:#f3c46d;fill-opacity:1;fill-rule:nonzero;stroke:none;stroke-width:0.0205305"
       id="path2404" />
    <path
       d="m 118.31336,238.59845 h -9.23685 c 2.94434,0 6.20555,-0.44288 9.23685,0"
       style="fill:#f2a951;fill-opacity:1;fill-rule:nonzero;stroke:none;stroke-width:0.0205305"
       id="path2406" />
    <path
       d="m 207.98681,248.01245 c 0,0.46907 -0.0465,0.93813 -0.13137,1.40282 -0.0193,0.096 -0.0387,0.19418 -0.0618,0.29017 -0.9544,4.17795 -5.41923,8.10499 -12.61592,11.5717 l -0.0155,0.009 c -17.12518,8.23806 -49.69858,13.87774 -87.28936,14.13081 -0.43857,0.004 -0.88098,0.005 -1.32341,0.006 -0.4405,0.004 -0.8868,0.004 -1.32921,0.004 -0.44302,0 -0.88602,0 -1.32903,-0.004 -0.44319,-0.004 -0.88427,-0.005 -1.3236,-0.006 -0.84043,-0.007 -1.67698,-0.0131 -2.51353,-0.024 -52.251902,-0.69157 -94.2331454,-11.78985 -97.4076004,-25.6894 -0.02199,-0.0938 -0.0421,-0.19418 -0.06048,-0.28799 -0.08597,-0.46469 -0.131758,-0.93377 -0.131758,-1.40284 0,-5.0855 5.189911,-9.84597 14.2335714,-13.92573 l 0.0077,-0.007 c 17.885682,-8.06946 50.836208,-13.48224 88.524747,-13.48224 56.75423,0 102.76657,12.2742 102.76657,27.41515"
       style="fill:#4492aa;fill-opacity:1;fill-rule:nonzero;stroke:none;stroke-width:0.0205305"
       id="path2408" />
    <path
       d="m 207.79362,249.70544 c -0.0329,-0.096 -0.0676,-0.18982 -0.10433,-0.28361 0,0 0.003,-0.004 0.003,-0.004 0.0908,-0.0502 0.12945,-0.17236 0.085,-0.27489 -0.86361,-2.02242 -2.81299,-3.98813 -5.76121,-5.86219 -10.78731,-12.05953 -51.44996,-21.02628 -99.96482,-21.02628 -20.073401,0 -40.271426,1.35483 -60.079571,5.16844 -8.130019,1.56862 -17.093307,3.31181 -25.276458,6.65633 17.886005,-8.07007 50.836531,-13.48285 88.525089,-13.48285 56.75423,0 102.76656,12.2742 102.76656,27.41514 0,0.46906 -0.0465,0.93813 -0.13138,1.40283 -0.0193,0.096 -0.0387,0.19417 -0.0618,0.29017 v 0"
       style="fill:#8fbecc;fill-opacity:1;fill-rule:nonzero;stroke:none;stroke-width:0.0205305"
       id="path2410" />
    <path
       d="m 157.52702,271.614 h 0.002 c 11.22101,-1.77373 21.07031,-4.10159 29.0166,-6.83961 -7.94629,2.73802 -17.79559,5.06588 -29.01853,6.83961 m 29.03014,-6.84396 c 0.0135,-0.005 0.0289,-0.0113 0.0426,-0.0152 -0.0134,0.005 -0.0289,0.0113 -0.0426,0.0152 m 0.0618,-0.0218 c 0.0135,-0.005 0.0308,-0.0113 0.0465,-0.0152 -0.0135,0.005 -0.0328,0.0113 -0.0465,0.0152 m 0.087,-0.0283 v -0.004 0.004 m 8.46406,-3.44054 0.008,-0.004 v 0 0 c 7.19667,-3.4667 11.66151,-7.39375 12.61592,-11.57171 v 0 c -0.95441,4.18013 -5.42117,8.10717 -12.62364,11.57388"
       style="fill:#213671;fill-opacity:1;fill-rule:nonzero;stroke:none;stroke-width:0.0205305"
       id="path2412" />
    <path
       d="m 157.52896,271.614 c 2.93856,-3.79615 5.42503,-8.2228 5.80563,-10.14924 0.0522,-0.26616 0.0792,-0.53669 0.0792,-0.79849 0,-4.05142 -6.08383,-7.82792 -17.1329,-10.64012 -10.96986,-2.79257 -25.55254,-4.32848 -41.06065,-4.32848 -15.507141,0 -30.089051,1.53591 -41.058714,4.32848 -11.048684,2.8122 -17.133497,6.5887 -17.133497,10.64012 0,0.2618 0.02645,0.53233 0.07863,0.79849 0.201897,1.02103 0.733195,2.47839 1.621716,4.18667 -5.970826,-1.89371 -10.996711,-4.00341 -14.889676,-6.28109 1.248837,-0.89014 2.027433,-1.99843 2.027433,-2.78166 0,-1.51845 -2.920011,-2.74894 -6.520865,-2.74894 -0.789794,0 -1.546365,0.0611 -2.246713,0.168 -1.168468,-1.39629 -1.937972,-2.83403 -2.273179,-4.30448 3.78922,-11.083 40.371504,-20.0323 87.295945,-21.64893 23.16266,0.35779 45.08111,2.51113 62.34348,6.1502 13.2071,2.78383 22.91731,6.26581 28.38291,10.09685 1.2925,1.73445 1.9687,3.52998 1.9687,5.36698 0,0.46905 -0.0425,0.93811 -0.12943,1.40283 -0.0173,0.096 -0.0387,0.19415 -0.0618,0.29015 -0.80757,3.52562 -4.11127,6.87233 -9.44745,9.9158 v 0 l -0.008,0.004 c -2.50193,1.2043 -5.33422,2.35405 -8.46405,3.43835 v 0.004 c -0.0155,0.005 -0.0271,0.009 -0.0405,0.0131 -0.0155,0.005 -0.0329,0.0113 -0.0465,0.0153 -0.008,0.004 -0.0116,0.005 -0.0193,0.007 -0.0135,0.004 -0.0289,0.0113 -0.0425,0.0152 -0.003,0.004 -0.008,0.004 -0.0116,0.005 -7.94629,2.73803 -17.79559,5.06588 -29.0166,6.8396 m 23.56837,-17.77206 c -3.60123,0 -6.52047,1.22829 -6.52047,2.74675 0,1.51628 2.91924,4.25212 6.52047,4.25212 3.60124,0 6.52047,-2.73584 6.52047,-4.25212 0,-1.51846 -2.91923,-2.74675 -6.52047,-2.74675 m -19.1252,-12.74283 c -3.60124,0 -6.52048,1.23047 -6.52048,2.74675 0,1.51628 2.91924,4.2543 6.52048,4.2543 3.60123,0 6.52048,-2.73802 6.52048,-4.2543 0,-1.51628 -2.91925,-2.74675 -6.52048,-2.74675 m -113.503623,0 c -3.601427,0 -6.520667,1.23047 -6.520667,2.74675 0,1.51628 2.91924,4.2543 6.520667,4.2543 3.601045,0 6.520476,-2.73802 6.520476,-4.2543 0,-1.51628 -2.919431,-2.74675 -6.520476,-2.74675 m 84.757943,-5.72781 c -3.60123,0 -6.52048,1.23048 -6.52048,2.74674 0,1.51846 2.91925,4.25431 6.52048,4.25431 3.60123,0 6.52048,-2.73585 6.52048,-4.25431 0,-1.51626 -2.91925,-2.74674 -6.52048,-2.74674 m -56.010987,0 c -3.601232,0 -6.520672,1.23048 -6.520672,2.74674 0,1.51846 2.91944,4.25431 6.520672,4.25431 3.601235,0 6.520476,-2.73585 6.520476,-4.25431 0,-1.51626 -2.919241,-2.74674 -6.520476,-2.74674 m 28.004827,-1.50754 c -3.60047,0 -6.519911,1.23046 -6.519911,2.74674 0,1.51845 2.919441,4.2543 6.519911,4.2543 3.60122,0 6.52046,-2.73585 6.52046,-4.2543 0,-1.51628 -2.91924,-2.74674 -6.52046,-2.74674"
       style="fill:#3b6c9f;fill-opacity:1;fill-rule:nonzero;stroke:none;stroke-width:0.0205305"
       id="path2414" />
    <path
       d="m 195.17769,261.27714 c 5.33618,-3.04347 8.6399,-6.39018 9.44746,-9.9158 0.0232,-0.096 0.0444,-0.19416 0.0618,-0.29015 0.087,-0.46472 0.12943,-0.93378 0.12943,-1.40283 0,-1.837 -0.67619,-3.63253 -1.96868,-5.36698 2.31258,1.61882 3.86398,3.30309 4.60006,5.02225 0.031,0.0742 0.0966,0.11783 0.16423,0.11783 0.0251,0 0.0522,-0.006 0.0773,-0.0196 0.0367,0.0938 0.0715,0.18762 0.10432,0.28362 -0.9544,4.17794 -5.41924,8.10499 -12.61592,11.5717"
       style="fill:#6082b0;fill-opacity:1;fill-rule:nonzero;stroke:none;stroke-width:0.0205305"
       id="path2416" />
    <path
       d="m 52.690514,271.57908 c -8.08211,-1.28501 -15.448412,-2.85802 -21.898756,-4.66446 -10.2925,-2.88201 -18.256368,-6.36398 -23.0840284,-10.22558 -2.76913,-2.2166 -4.506956,-4.55755 -5.061245,-6.98578 0.03402,-0.0982 0.07053,-0.19853 0.109738,-0.29671 0.02517,0.0131 0.05163,0.0196 0.07783,0.0196 0.06778,0 0.133116,-0.0436 0.164602,-0.11564 2.490151,-5.78583 14.2098084,-11.15062 32.9999864,-15.11039 18.965216,-3.99686 43.548478,-6.19819 69.221579,-6.19819 2.31066,0 4.61167,0.0175 6.90108,0.0523 -46.924423,1.61666 -83.506707,10.56596 -87.295927,21.64896 0.335207,1.47046 1.104715,2.9082 2.273185,4.30447 -0.539607,0.085 -1.045983,0.19856 -1.508109,0.336 -1.67311,0.49523 -2.766038,1.31556 -2.766038,2.24495 0,1.47919 2.775307,4.11687 6.251732,4.24777 0.08791,0.005 0.179483,0.006 0.269127,0.006 1.741499,0 3.323801,-0.64141 4.493432,-1.47263 3.892964,2.27769 8.91885,4.38737 14.889675,6.28109 0.923877,1.77589 2.233581,3.82232 3.962134,5.92765"
       style="fill:#365699;fill-opacity:1;fill-rule:nonzero;stroke:none;stroke-width:0.0205305"
       id="path2418" />
    <path
       d="m 207.61201,249.44146 c -0.0676,0 -0.1333,-0.0436 -0.16423,-0.11783 -2.47682,-5.788 -14.19048,-11.15715 -32.98297,-15.1191 -18.96831,-3.99905 -43.56064,-6.20256 -69.24456,-6.20256 -25.673103,0 -50.256363,2.20132 -69.22158,6.19819 -18.790178,3.95977 -30.5098364,9.32455 -32.9999864,15.1104 -0.04398,0.10249 -0.153785,0.14398 -0.244582,0.0938 -0.09081,-0.048 -0.128862,-0.17236 -0.08462,-0.2749 2.542306,-5.90584 14.3549004,-11.35134 33.2619674,-15.3373 18.986663,-4.00122 43.594068,-6.20472 69.288811,-6.20472 25.70515,0 50.32069,2.20569 69.31217,6.21127 18.91035,3.98596 30.71676,9.43582 33.24382,15.34601 0.0444,0.10251 0.006,0.22473 -0.085,0.27491 -0.0251,0.0153 -0.0522,0.0217 -0.0792,0.0217"
       style="fill:#374976;fill-opacity:1;fill-rule:nonzero;stroke:none;stroke-width:0.0205305"
       id="path2420" />
    <path
       d="m 163.2322,260.66408 c 0,0.25526 -0.0271,0.50834 -0.0754,0.75706 -0.51583,2.59403 -5.46753,10.79064 -9.94395,14.57588 -5.55836,4.70154 -15.11013,2.96491 -26.66345,1.2261 -6.14373,-0.92285 -12.85547,-1.84572 -19.8319,-1.80208 -0.49652,0.005 -0.99497,0.006 -1.49729,0.006 -0.4998,0 -0.99962,-0.004 -1.49749,-0.006 -0.47238,-0.004 -0.94649,-0.006 -1.41886,-0.0131 -6.425231,-0.0808 -12.881751,0.86395 -18.912471,1.80645 -6.469858,1.01231 -12.449572,2.0246 -17.375572,1.77372 -3.568004,-0.18544 -6.583072,-1.02976 -8.829402,-3.02384 -6.119974,-5.42585 -9.327469,-11.64586 -9.900302,-14.54314 -0.04946,-0.24872 -0.07516,-0.5018 -0.07516,-0.75706 0,-8.1508 25.972171,-14.75914 58.009257,-14.75914 28.02549,0 51.41033,5.05715 56.8257,11.77896 0.77667,0.96211 1.18625,1.95915 1.18625,2.98018"
       style="fill:#4492aa;fill-opacity:1;fill-rule:nonzero;stroke:none;stroke-width:0.0205305"
       id="path2422" />
    <path
       d="m 55.587535,274.19275 c -5.068388,-5.05061 -7.625384,-10.30413 -8.123451,-12.81743 -0.04639,-0.23782 -0.06974,-0.47561 -0.06974,-0.70905 0,-3.78088 6.140648,-7.51157 16.847755,-10.23652 10.944158,-2.78602 25.49728,-4.31973 40.978151,-4.31973 15.48299,0 30.03476,1.53371 40.97951,4.31973 7.75887,1.97445 13.12016,4.47684 15.48491,7.14288 -1.30603,-0.39054 -2.61785,-0.74179 -3.93741,-1.06468 -13.16072,-3.23108 -26.82185,-4.1343 -40.25886,-4.1343 -31.756171,0 -57.552907,6.4949 -58.003838,14.54753 -2.886589,1.61226 -4.495167,3.40342 -4.495167,5.29278 0,0.21816 0.02202,0.43633 0.06434,0.65232 0.08868,0.44943 0.268349,0.89014 0.533807,1.32647"
       style="fill:#3d74a2;fill-opacity:1;fill-rule:nonzero;stroke:none;stroke-width:0.0205305"
       id="path2424" />
    <path
       d="m 105.22025,262.01019 c -0.10051,0 -0.18238,-0.0938 -0.18238,-0.20727 v -15.90016 c 0,-0.11345 0.0819,-0.20509 0.18238,-0.20509 0.10239,0 0.18354,0.0917 0.18354,0.20509 v 15.90016 c 0,0.11346 -0.0811,0.20727 -0.18354,0.20727"
       style="fill:#374976;fill-opacity:1;fill-rule:nonzero;stroke:none;stroke-width:0.0205305"
       id="path2426" />
    <path
       d="m 74.780919,264.00861 c -0.06124,0 -0.120942,-0.0348 -0.155521,-0.0982 -4.917506,-8.90566 -4.146638,-14.89005 -4.111478,-15.14093 0.01583,-0.11346 0.109739,-0.18982 0.209428,-0.17237 0.09989,0.0196 0.167892,0.12437 0.15224,0.23782 -0.0084,0.0588 -0.777434,6.09565 4.06047,14.85733 0.0535,0.0982 0.02722,0.22471 -0.05854,0.28579 -0.03012,0.0196 -0.06356,0.0306 -0.0966,0.0306"
       style="fill:#374976;fill-opacity:1;fill-rule:nonzero;stroke:none;stroke-width:0.0205305"
       id="path2428" />
    <path
       d="m 135.66072,264.00861 c -0.0329,0 -0.0657,-0.0113 -0.0965,-0.0306 -0.085,-0.0611 -0.11207,-0.1876 -0.058,-0.28578 4.83771,-8.76169 4.06877,-14.79843 4.06105,-14.85733 -0.0174,-0.11345 0.0523,-0.21818 0.1507,-0.2378 0.10041,-0.0175 0.19319,0.0588 0.21058,0.17235 0.0348,0.25089 0.80563,6.23527 -4.11128,15.14095 -0.0348,0.0633 -0.0947,0.0982 -0.15649,0.0982"
       style="fill:#374976;fill-opacity:1;fill-rule:nonzero;stroke:none;stroke-width:0.0205305"
       id="path2430" />
    <path
       d="m 107.20634,275.21379 c 7.46522,0 14.68314,1.09522 21.06838,2.06387 10.95439,1.66028 19.60586,2.97147 24.82997,-1.44646 4.5228,-3.8245 9.39528,-12.04075 9.87249,-14.45588 0.0465,-0.23782 0.0715,-0.47561 0.0715,-0.70905 0,-3.78088 -6.14182,-7.51157 -16.84891,-10.23652 -10.94474,-2.78602 -25.49652,-4.31973 -40.97951,-4.31973 -15.480871,0 -30.033992,1.53371 -40.97815,4.31973 -10.707107,2.72495 -16.847754,6.45564 -16.847754,10.23652 0,0.23344 0.02338,0.47123 0.06975,0.70905 0.551393,2.78383 3.625771,8.92094 9.835587,14.42534 5.085004,4.50736 14.221978,3.07183 24.801766,1.40719 6.24053,-0.97957 13.31278,-2.09225 20.205161,-2.00497 0.47199,0.006 0.94456,0.009 1.41808,0.0131 0.99422,0.006 1.99788,0.006 2.99286,0 0.16229,-0.004 0.32651,-0.004 0.48879,-0.004 m 35.49457,4.03395 c -4.18083,0 -9.04559,-0.73741 -14.47449,-1.55991 -6.51275,-0.9883 -13.89295,-2.10969 -21.50694,-2.05951 -0.99498,0.006 -2.00154,0.006 -2.99691,0 -0.4745,-0.004 -0.94784,-0.006 -1.4204,-0.0131 -6.863021,-0.085 -13.617841,0.97522 -20.150301,2.00279 -10.662668,1.67772 -19.870929,3.12419 -25.078038,-1.49227 -6.285353,-5.56986 -9.404168,-11.82041 -9.967154,-14.66097 -0.05214,-0.26616 -0.07864,-0.53671 -0.07864,-0.79849 0,-4.05142 6.084813,-7.82792 17.133496,-10.64013 10.969664,-2.79257 25.551576,-4.32846 41.058717,-4.32846 15.5081,0 30.09079,1.53589 41.06064,4.32846 11.04907,2.81221 17.13292,6.58871 17.13292,10.64013 0,0.26178 -0.0271,0.53233 -0.0792,0.79849 -0.55642,2.81655 -5.61244,10.97826 -10.0116,14.69805 -2.71443,2.29733 -6.30215,3.08491 -10.62209,3.08491"
       style="fill:#374976;fill-opacity:1;fill-rule:nonzero;stroke:none;stroke-width:0.0205305"
       id="path2432" />
    <path
       d="m 155.45205,272.21396 c 0,0.21816 -0.0212,0.43633 -0.0637,0.65232 -1.31762,6.64761 -22.585,11.95568 -48.87169,12.12585 -0.42891,0.004 -0.86168,0.004 -1.29636,0.004 -0.43277,0 -0.86516,0 -1.29579,-0.004 -0.41056,-0.005 -0.82014,-0.006 -1.22875,-0.0131 -25.717153,-0.3229 -46.345427,-5.56767 -47.641986,-12.11277 -0.04233,-0.21598 -0.06434,-0.43414 -0.06434,-0.65232 0,-7.05995 22.489557,-12.78253 50.230856,-12.78253 27.74342,0 50.23181,5.72258 50.23181,12.78253"
       style="fill:#324795;fill-opacity:1;fill-rule:nonzero;stroke:none;stroke-width:0.0205305"
       id="path2434" />
    <path
       d="m 146.59581,276.19337 c 0,0.18108 -0.0174,0.35997 -0.0542,0.53887 l -0.002,0.0175 c -0.39026,1.81953 -6.19204,8.16388 -9.63292,9.60817 -4.7411,1.98752 -10.33423,1.43119 -17.88445,0.87702 -3.72489,-0.27269 -7.92503,-0.54758 -12.73377,-0.51487 -0.35355,0 -0.71097,0 -1.06839,0 -0.35704,0 -0.71214,0 -1.06724,0 -0.33867,-0.004 -0.67561,-0.005 -1.01237,-0.0113 -4.872871,-0.0633 -9.066061,0.23562 -12.752301,0.53452 -4.96368,0.40143 -9.008501,0.80287 -12.556994,0.32507 -1.459234,-0.19635 -2.834046,-0.53888 -4.153973,-1.09304 -3.450932,-1.44864 -9.422531,-7.95007 -9.779555,-9.74343 -0.03478,-0.17888 -0.05313,-0.3578 -0.05313,-0.53888 0,-5.8142 18.524722,-10.52665 41.375563,-10.52665 22.85354,0 41.37556,4.71245 41.37556,10.52665"
       style="fill:#4492aa;fill-opacity:1;fill-rule:nonzero;stroke:none;stroke-width:0.0205305"
       id="path2436" />
    <path
       d="m 73.676207,286.4735 c -3.450926,-1.44646 -9.421363,-7.9479 -9.778394,-9.74126 -0.03478,-0.1789 -0.05313,-0.35779 -0.05313,-0.53887 0,-5.81421 18.524726,-10.52667 41.375577,-10.52667 22.85354,0 41.37555,4.71246 41.37555,10.52667 0,0.18108 -0.0174,0.35997 -0.0541,0.53887 l -0.002,0.0175 v 0 c -0.68007,-0.23127 -1.30217,-0.4538 -1.77745,-0.5607 -2.65841,-0.60433 -5.34195,-1.06248 -8.03514,-1.42902 -6.46059,-0.88139 -12.9772,-1.23919 -19.48223,-1.23919 -22.055051,0 -40.079775,4.39174 -41.309489,9.92669 -1.850656,0.62398 -2.881176,1.31993 -2.881176,2.05297 0,0.085 0.01391,0.168 0.04096,0.25309 0.08037,0.24435 0.276849,0.48651 0.58095,0.71995"
       style="fill:#3d74a2;fill-opacity:1;fill-rule:nonzero;stroke:none;stroke-width:0.0205305"
       id="path2438" />
    <path
       d="m 105.65495,281.1349 c -0.10051,0 -0.18161,-0.0917 -0.18161,-0.20727 v -15.89798 c 0,-0.11563 0.0811,-0.20726 0.18161,-0.20726 0.10239,0 0.18353,0.0917 0.18353,0.20726 v 15.89798 c 0,0.11563 -0.0811,0.20727 -0.18353,0.20727"
       style="fill:#374976;fill-opacity:1;fill-rule:nonzero;stroke:none;stroke-width:0.0205305"
       id="path2440" />
    <path
       d="m 75.215618,284.58197 c -0.06124,0 -0.120943,-0.0349 -0.155522,-0.0982 -4.917505,-8.90566 -4.146637,-14.89004 -4.111478,-15.14095 0.01605,-0.11343 0.10935,-0.1898 0.209428,-0.17235 0.09989,0.0175 0.167893,0.12437 0.152242,0.23563 -0.0084,0.0611 -0.777436,6.09782 4.06047,14.8595 0.05351,0.096 0.02724,0.2247 -0.05854,0.28361 -0.03012,0.0218 -0.06356,0.0327 -0.0966,0.0327"
       style="fill:#374976;fill-opacity:1;fill-rule:nonzero;stroke:none;stroke-width:0.0205305"
       id="path2442" />
    <path
       d="m 135.91189,284.78923 c -0.0329,0 -0.0657,-0.0113 -0.0966,-0.0327 -0.085,-0.0588 -0.11205,-0.18762 -0.0579,-0.28361 4.84543,-8.77695 4.06877,-14.79842 4.06104,-14.85952 -0.0155,-0.11129 0.0522,-0.21816 0.15264,-0.23561 0.0986,-0.0175 0.19319,0.0588 0.20865,0.17236 0.0348,0.2487 0.80563,6.23528 -4.11129,15.14093 -0.0348,0.0633 -0.0947,0.0982 -0.15649,0.0982"
       style="fill:#374976;fill-opacity:1;fill-rule:nonzero;stroke:none;stroke-width:0.0205305"
       id="path2444" />
    <path
       d="m 137.38792,285.50046 c 0,0.085 -0.0135,0.16798 -0.0405,0.25307 -0.84427,2.5766 -14.4629,4.6361 -31.29634,4.70155 -0.27628,0 -0.55256,0 -0.83076,0 -0.27685,0 -0.5537,0 -0.8296,0 -0.26275,-0.004 -0.52512,-0.004 -0.78689,-0.005 -16.468321,-0.12654 -29.678134,-2.15987 -30.508499,-4.69717 -0.02706,-0.085 -0.04097,-0.16801 -0.04097,-0.25308 0,-2.73803 14.401468,-4.95681 32.165939,-4.95681 17.76661,0 32.16769,2.21878 32.16769,4.95681"
       style="fill:#324795;fill-opacity:1;fill-rule:nonzero;stroke:none;stroke-width:0.0205305"
       id="path2446" />
    <path
       d="m 80.358198,288.64427 c -1.191461,-0.22251 -2.2585,-0.46252 -3.18489,-0.71558 l 0.441847,-1.37447 h 0.09351 c 0.0037,0.0131 0.008,0.0262 0.01275,0.0415 0.316655,0.9403 1.636592,1.51845 2.361668,1.90461 0.09138,0.0502 0.183154,0.0982 0.275117,0.14399"
       style="fill:#596593;fill-opacity:1;fill-rule:nonzero;stroke:none;stroke-width:0.0205305"
       id="path2462" />
    <path
       d="m 130.03089,288.65519 c 0.79985,-0.40143 2.33771,-1.02104 2.68934,-2.05734 l 0.43663,1.36138 c -0.91383,0.24436 -1.96096,0.47779 -3.12597,0.69596"
       style="fill:#596593;fill-opacity:1;fill-rule:nonzero;stroke:none;stroke-width:0.0205305"
       id="path2490" />
    <path
       d="m 132.72025,286.59785 c 0,0.0698 -0.009,0.13964 -0.0348,0.20945 -0.34969,1.03848 -1.89141,1.65807 -2.69126,2.05952 -2.08076,1.04502 -4.29676,1.76497 -6.5031,2.37585 -6.55331,1.81516 -13.30756,2.45659 -20.04113,2.3475 -5.955181,-0.10035 -11.939721,-0.89012 -17.697451,-2.63984 -1.40939,-0.42761 -2.82283,-0.9054 -4.18682,-1.5032 -0.514295,-0.2247 -1.019512,-0.46906 -1.517386,-0.73522 -0.725077,-0.38615 -2.045013,-0.96431 -2.36167,-1.90461 -0.02393,-0.0698 -0.03478,-0.13964 -0.03478,-0.20945 0,-2.24715 12.327856,-4.07103 27.533607,-4.07103 14.24266,0 25.96019,1.60137 27.38987,3.64997 0.0966,0.13744 0.1449,0.27926 0.1449,0.42106"
       style="fill:#f4df89;fill-opacity:1;fill-rule:nonzero;stroke:none;stroke-width:0.0205305"
       id="path2698" />
    <path
       d="m 81.600469,289.23553 v 0 c -0.514296,-0.22472 -1.019512,-0.46907 -1.517387,-0.73525 -0.725077,-0.38615 -2.045014,-0.96429 -2.361668,-1.9046 -0.02395,-0.0698 -0.03478,-0.13964 -0.03478,-0.20945 0,-2.24714 12.327855,-4.07104 27.533606,-4.07104 14.24266,0 25.9602,1.60137 27.38987,3.64997 -0.483,-0.3687 -0.98919,-0.69597 -1.76778,-0.8923 -2.3918,-0.60433 -4.9034,-0.7396 -7.3435,-0.87051 -2.15997,-0.11345 -4.32574,-0.16798 -6.4915,-0.16798 -5.27821,0 -10.5622,0.32289 -15.80544,0.8814 -9.318201,0.99485 -15.934501,2.66384 -19.601425,4.31976"
       style="fill:#f3b962;fill-opacity:1;fill-rule:nonzero;stroke:none;stroke-width:0.0205305"
       id="path2700" />
    <path
       d="m 111.74072,236.61311 c 0,1.51845 -2.91924,4.25429 -6.52047,4.25429 -3.60047,0 -6.519901,-2.73584 -6.519901,-4.25429 0,-1.51629 2.919431,-2.74675 6.519901,-2.74675 3.60123,0 6.52047,1.23046 6.52047,2.74675"
       style="fill:#f4df89;fill-opacity:1;fill-rule:nonzero;stroke:none;stroke-width:0.0205305"
       id="path2702" />
    <path
       d="m 83.735899,238.12065 c 0,1.51846 -2.919239,4.2543 -6.520474,4.2543 -3.601232,0 -6.52067,-2.73584 -6.52067,-4.2543 0,-1.51627 2.919438,-2.74675 6.52067,-2.74675 3.601235,0 6.520474,1.23048 6.520474,2.74675"
       style="fill:#f4df89;fill-opacity:1;fill-rule:nonzero;stroke:none;stroke-width:0.0205305"
       id="path2704" />
    <path
       d="m 54.989391,243.8476 c 0,1.51628 -2.919432,4.2543 -6.520477,4.2543 -3.601427,0 -6.520667,-2.73802 -6.520667,-4.2543 0,-1.51628 2.91924,-2.74675 6.520667,-2.74675 3.601045,0 6.520477,1.23047 6.520477,2.74675"
       style="fill:#f4df89;fill-opacity:1;fill-rule:nonzero;stroke:none;stroke-width:0.0205305"
       id="path2706" />
    <path
       d="m 35.866138,256.58868 c 0,1.51628 -2.920011,4.2543 -6.520865,4.2543 -0.08964,0 -0.181218,-0.004 -0.269126,-0.006 -3.476425,-0.13089 -6.251732,-2.76858 -6.251732,-4.24775 0,-0.9294 1.092927,-1.74972 2.766037,-2.24496 1.061816,-0.31636 2.356251,-0.50398 3.754821,-0.50398 3.600854,0 6.520865,1.23048 6.520865,2.74894"
       style="fill:#f4df89;fill-opacity:1;fill-rule:nonzero;stroke:none;stroke-width:0.0205305"
       id="path2708" />
    <path
       d="m 126.70594,238.12065 c 0,1.51846 2.91924,4.2543 6.52047,4.2543 3.60124,0 6.52049,-2.73584 6.52049,-4.2543 0,-1.51627 -2.91925,-2.74675 -6.52049,-2.74675 -3.60123,0 -6.52047,1.23048 -6.52047,2.74675"
       style="fill:#f4df89;fill-opacity:1;fill-rule:nonzero;stroke:none;stroke-width:0.0205305"
       id="path2710" />
    <path
       d="m 155.45205,243.8476 c 0,1.51628 2.91925,4.2543 6.52049,4.2543 3.60123,0 6.52047,-2.73802 6.52047,-4.2543 0,-1.51628 -2.91924,-2.74675 -6.52047,-2.74675 -3.60124,0 -6.52049,1.23047 -6.52049,2.74675"
       style="fill:#f4df89;fill-opacity:1;fill-rule:nonzero;stroke:none;stroke-width:0.0205305"
       id="path2712" />
    <path
       d="m 174.57687,256.58868 c 0,1.51628 2.91923,4.25212 6.52046,4.25212 3.60124,0 6.52048,-2.73584 6.52048,-4.25212 0,-1.51845 -2.91924,-2.74674 -6.52048,-2.74674 -3.60123,0 -6.52046,1.22829 -6.52046,2.74674"
       style="fill:#f4df89;fill-opacity:1;fill-rule:nonzero;stroke:none;stroke-width:0.0205305"
       id="path2714" />
    <path
       d="m 134.971,240.89359 c -0.0908,0 -0.17775,-0.0217 -0.24922,-0.0873 -0.10626,-0.0982 -0.14104,-0.27271 -0.11979,-0.42543 0.0212,-0.1549 0.0908,-0.29454 0.16422,-0.42543 0.26469,-0.47561 0.5912,-0.9054 0.966,-1.2741 0.31104,-0.30762 1.12055,-0.91633 1.72914,-0.91633 0.25308,0 0.47139,0.1069 0.60471,0.38398 0.34389,0.71997 -1.03555,1.72573 -1.47218,2.02898 -0.41731,0.29016 -0.87133,0.51488 -1.34466,0.66541 -0.0889,0.0283 -0.18548,0.0502 -0.27822,0.0502"
       style="fill:#faefc4;fill-opacity:1;fill-rule:nonzero;stroke:none;stroke-width:0.0205305"
       id="path2716" />
    <path
       d="m 165.70322,246.03365 c -0.006,0 -0.0135,0 -0.0212,-0.004 -0.12171,-0.004 -0.2473,-0.0677 -0.31105,-0.18545 -0.0986,-0.18107 -0.0232,-0.41452 0.0735,-0.59778 0.17773,-0.33816 0.98725,-1.26539 1.52626,-1.26539 0.12172,0 0.22798,0.048 0.31105,0.15709 0.49653,0.66105 -0.84428,1.61882 -1.24419,1.80208 -0.10627,0.0502 -0.21832,0.0916 -0.33423,0.0916"
       style="fill:#faefc4;fill-opacity:1;fill-rule:nonzero;stroke:none;stroke-width:0.0205305"
       id="path2718" />
    <path
       d="m 183.35198,259.54706 c -0.12945,0 -0.25117,-0.0415 -0.31299,-0.16363 -0.0811,-0.15054 -0.0173,-0.34471 0.056,-0.50178 0.45789,-0.96432 1.33115,-1.64282 2.27783,-1.85008 0.0908,-0.0196 0.18933,-0.0327 0.28592,-0.0327 0.2956,0 0.56994,0.12436 0.56994,0.55196 0.002,0.49526 -0.61824,0.8836 -0.93702,1.1214 -0.5197,0.38398 -1.09737,0.67196 -1.70208,0.83777 -0.0754,0.0218 -0.15842,0.0371 -0.23763,0.0371"
       style="fill:#faefc4;fill-opacity:1;fill-rule:nonzero;stroke:none;stroke-width:0.0205305"
       id="path2720" />
    <path
       d="m 107.72024,239.45585 c -0.14296,0 -0.27627,-0.0458 -0.37481,-0.16799 -0.11591,-0.14617 -0.13716,-0.36653 -0.0928,-0.55415 0.0426,-0.19198 0.14491,-0.35779 0.25117,-0.51269 0.41924,-0.60869 0.966,-1.10175 1.57844,-1.43557 0.19513,-0.10689 0.55449,-0.34033 0.81144,-0.34033 0.0367,0 0.0734,0.006 0.10626,0.0175 1.30408,0.45381 -1.33694,2.62022 -1.76005,2.84493 -0.15842,0.0829 -0.34583,0.14835 -0.51971,0.14835"
       style="fill:#faefc4;fill-opacity:1;fill-rule:nonzero;stroke:none;stroke-width:0.0205305"
       id="path2722" />
    <path
       d="m 79.595061,241.07466 c -0.0074,0 -0.01468,0 -0.02202,0 -0.206723,-0.009 -0.42272,-0.15708 -0.463291,-0.38615 -0.04327,-0.24218 0.113407,-0.46688 0.261398,-0.65232 0.31704,-0.39271 0.655139,-0.78976 1.068778,-1.05377 0.183733,-0.11781 0.560278,-0.31416 0.861089,-0.31416 0.138911,0 0.261592,0.0415 0.341963,0.15272 0.489371,0.67633 -1.112055,1.81736 -1.484736,2.04642 -0.174845,0.10904 -0.364567,0.20726 -0.563177,0.20726"
       style="fill:#faefc4;fill-opacity:1;fill-rule:nonzero;stroke:none;stroke-width:0.0205305"
       id="path2724" />
    <path
       d="m 51.750211,246.01619 c -0.0033,0 -0.0059,0 -0.0093,0 -0.183738,-0.004 -0.398187,-0.0785 -0.451512,-0.27706 -0.04968,-0.18545 0.06472,-0.3709 0.174269,-0.51707 0.190878,-0.25744 0.389878,-0.5127 0.63292,-0.70686 0.184504,-0.14836 0.543276,-0.32944 0.851236,-0.32944 0.169242,0 0.323028,0.0546 0.424267,0.19854 0.265457,0.3818 -0.32168,0.92504 -0.551776,1.14102 -0.301975,0.28361 -0.677554,0.49087 -1.070133,0.49087"
       style="fill:#faefc4;fill-opacity:1;fill-rule:nonzero;stroke:none;stroke-width:0.0205305"
       id="path2726" />
    <path
       d="m 33.105707,258.24459 c -0.142001,0 -0.280722,-0.0436 -0.369978,-0.16363 -0.09371,-0.12436 -0.107614,-0.30762 -0.06607,-0.46471 0.04134,-0.15925 0.130795,-0.29452 0.227007,-0.4167 0.195522,-0.25089 0.426006,-0.4647 0.680643,-0.63487 0.169438,-0.11129 0.355295,-0.17454 0.514299,-0.17454 0.289023,0 0.48976,0.20727 0.342731,0.6916 -0.16924,0.56069 -0.624415,1.01667 -1.135818,1.13885 -0.06201,0.0152 -0.127701,0.024 -0.192811,0.024"
       style="fill:#faefc4;fill-opacity:1;fill-rule:nonzero;stroke:none;stroke-width:0.0205305"
       id="path2728" />
  </g>
</svg>
