<?xml version="1.0" encoding="UTF-8" standalone="no"?>
<!-- Created with Inkscape (http://www.inkscape.org/) -->

<svg
   width="210mm"
   height="297mm"
   viewBox="0 0 210 297"
   version="1.1"
   id="svg14356"
   inkscape:version="1.1.2 (0a00cf5339, 2022-02-04)"
   sodipodi:docname="separateUFO2ndModel.svg"
   xmlns:inkscape="http://www.inkscape.org/namespaces/inkscape"
   xmlns:sodipodi="http://sodipodi.sourceforge.net/DTD/sodipodi-0.dtd"
   xmlns="http://www.w3.org/2000/svg"
   xmlns:svg="http://www.w3.org/2000/svg">
  <sodipodi:namedview
     id="namedview14358"
     pagecolor="#ffffff"
     bordercolor="#666666"
     borderopacity="1.0"
     inkscape:pageshadow="2"
     inkscape:pageopacity="0.0"
     inkscape:pagecheckerboard="0"
     inkscape:document-units="mm"
     showgrid="false"
     inkscape:zoom="0.75187991"
     inkscape:cx="397.00489"
     inkscape:cy="561.92484"
     inkscape:window-width="1846"
     inkscape:window-height="1016"
     inkscape:window-x="74"
     inkscape:window-y="27"
     inkscape:window-maximized="1"
     inkscape:current-layer="layer1" />
  <defs
     id="defs14353" />
  <g
     inkscape:label="Layer 1"
     inkscape:groupmode="layer"
     id="layer1">
    <path
       d="m 204.6318,97.917737 c 1.27684,-0.0793 2.16285,-0.22444 2.16285,-0.22444 0,0 -0.88601,-0.1451 -2.16285,-0.22443 -0.33391,-0.0213 -0.63746,-0.15672 -0.87082,-0.37148 -0.2732,-0.24959 -0.45155,-0.60366 -0.47621,-1.00222 -0.0759,-1.30212 -0.21818,-2.20567 -0.21818,-2.20567 0,0 -0.1423,0.90355 -0.22008,2.20567 -0.0436,0.73909 -0.62229,1.3292 -1.34704,1.3737 -1.27683,0.0793 -2.16284,0.22443 -2.16284,0.22443 0,0 0.88601,0.14512 2.16284,0.22444 0.72475,0.0445 1.3034,0.63268 1.34704,1.37177 0.0778,1.302123 0.22008,2.207603 0.22008,2.207603 0,0 0.14229,-0.90548 0.21818,-2.207603 0.0456,-0.73909 0.62229,-1.32727 1.34703,-1.37177"
       style="fill:#fdefdb;fill-opacity:1;fill-rule:nonzero;stroke:none;stroke-width:0.0191592"
       id="path2218" />
    <path
       d="m 184.64448,165.09569 c -0.72664,0 -0.72853,1.1512 0,1.1512 0.72665,0 0.72854,-1.1512 0,-1.1512"
       style="fill:#fdefdb;fill-opacity:1;fill-rule:nonzero;stroke:none;stroke-width:0.0191592"
       id="path2228" />
    <path
       d="m 180.54647,85.326105 c -0.72664,0 -0.72853,1.153137 0,1.153137 0.72664,0 0.72854,-1.153137 0,-1.153137"
       style="fill:#fdefdb;fill-opacity:1;fill-rule:nonzero;stroke:none;stroke-width:0.0191592"
       id="path2230" />
    <path
       d="m 152.04628,112.73826 c -0.72664,0 -0.72854,1.1512 0,1.1512 0.72664,0 0.72854,-1.1512 0,-1.1512"
       style="fill:#fdefdb;fill-opacity:1;fill-rule:nonzero;stroke:none;stroke-width:0.0191592"
       id="path2232" />
    <path
       d="m 107.37221,90.925397 c -0.72854,0 -0.72854,1.15314 0,1.15314 0.72664,0 0.72664,-1.15314 0,-1.15314"
       style="fill:#fdefdb;fill-opacity:1;fill-rule:nonzero;stroke:none;stroke-width:0.0191592"
       id="path2234" />
    <path
       d="m 20.456684,89.251797 c -0.726827,0 -0.728152,1.15314 0,1.15314 0.726835,0 0.728159,-1.15314 0,-1.15314"
       style="fill:#fdefdb;fill-opacity:1;fill-rule:nonzero;stroke:none;stroke-width:0.0191592"
       id="path2238" />
    <path
       d="m 180.54836,100.92054 c -0.72663,0 -0.72853,1.1512 0,1.1512 0.72665,0 0.72665,-1.1512 0,-1.1512"
       style="fill:#fdefdb;fill-opacity:1;fill-rule:nonzero;stroke:none;stroke-width:0.0191592"
       id="path2242" />
    <path
       d="m 161.76769,93.312927 c -0.72664,0 -0.72664,1.15314 0,1.15314 0.72664,0 0.72854,-1.15314 0,-1.15314"
       style="fill:#fdefdb;fill-opacity:1;fill-rule:nonzero;stroke:none;stroke-width:0.0191592"
       id="path2248" />
    <path
       d="m 57.202616,167.2762 c -0.727016,0 -0.728156,1.15314 0,1.15314 0.726828,0 0.727968,-1.15314 0,-1.15314"
       style="fill:#fdefdb;fill-opacity:1;fill-rule:nonzero;stroke:none;stroke-width:0.0191592"
       id="path2250" />
    <path
       d="m 146.36218,126.02835 c -0.72664,0 -0.72664,1.1512 0,1.1512 0.72665,0 0.72854,-1.1512 0,-1.1512"
       style="fill:#fdefdb;fill-opacity:1;fill-rule:nonzero;stroke:none;stroke-width:0.0191592"
       id="path2264" />
    <path
       d="m 183.1931,113.20647 c -0.72663,0 -0.72853,1.15314 0,1.15314 0.72664,0 0.72854,-1.15314 0,-1.15314"
       style="fill:#fdefdb;fill-opacity:1;fill-rule:nonzero;stroke:none;stroke-width:0.0191592"
       id="path2266" />
    <path
       d="m 157.40406,158.36261 c -0.72664,0 -0.72854,1.1512 0,1.1512 0.72663,0 0.72853,-1.1512 0,-1.1512"
       style="fill:#fdefdb;fill-opacity:1;fill-rule:nonzero;stroke:none;stroke-width:0.0191592"
       id="path2268" />
    <path
       d="m 80.721627,74.280371 c -0.726828,0 -0.728156,1.151202 0,1.151202 0.72683,0 0.728158,-1.151202 0,-1.151202"
       style="fill:#fdefdb;fill-opacity:1;fill-rule:nonzero;stroke:none;stroke-width:0.0191592"
       id="path2276" />
    <path
       d="m 102.33506,86.479242 c -0.72664,0 -0.72853,1.151201 0,1.151201 0.72664,0 0.72854,-1.151201 0,-1.151201"
       style="fill:#fdefdb;fill-opacity:1;fill-rule:nonzero;stroke:none;stroke-width:0.0191592"
       id="path2278" />
    <path
       d="m 74.392278,120.14271 c -0.726639,0 -0.727968,1.1512 0,1.1512 0.727022,0 0.728345,-1.1512 0,-1.1512"
       style="fill:#fdefdb;fill-opacity:1;fill-rule:nonzero;stroke:none;stroke-width:0.0191592"
       id="path2282" />
    <path
       d="M 157.78541,129.08339 H 54.289991 c 0.0055,-6.29388 1.092993,-12.3285 3.08129,-17.92393 7.207389,-20.295973 26.276065,-34.797252 48.665279,-34.797252 1.75683,0 3.4909,0.089 5.2022,0.263133 23.35301,2.375925 42.13179,20.586196 45.86933,43.946889 0.44395,2.77063 0.67542,5.61477 0.67732,8.51116"
       style="fill:#f4df89;fill-opacity:1;fill-rule:nonzero;stroke:none;stroke-width:0.0191592"
       id="path2396" />
    <path
       d="m 145.29783,109.07569 c -0.45153,0 -0.91446,-0.0638 -1.35272,-0.14898 -3.1494,-0.6172 -6.0939,-2.10118 -8.70449,-4.00502 -2.60869,-1.9019 -4.90244,-4.21785 -7.06908,-6.630533 -2.68648,-2.99119 -5.25722,-6.26293 -6.3709,-10.155732 -0.73043,-2.559733 -0.12331,-5.694097 2.27668,-5.694097 0.48949,0 1.05106,0.129631 1.69423,0.421785 4.3162,1.96188 8.59445,4.589329 12.30543,7.839784 4.22134,3.69739 7.69137,8.18998 9.6569,13.537743 0.52364,1.42595 0.73422,3.25626 -0.6147,4.29718 -0.51984,0.40244 -1.16111,0.53787 -1.82135,0.53787"
       style="fill:#f8ecb8;fill-opacity:1;fill-rule:nonzero;stroke:none;stroke-width:0.0191592"
       id="path2398" />
    <path
       d="m 116.56619,86.02263 c -0.21249,0 -0.42309,-0.04063 -0.6185,-0.129631 -0.70198,-0.315371 -1.05106,-1.137659 -1.14973,-1.915445 -0.2011,-1.613617 0.53882,-4.090152 2.45502,-4.221719 0.0588,-0.0039 0.11384,-0.0058 0.16886,-0.0058 2.03003,0 2.06988,2.683558 1.51019,4.124979 -0.24474,0.634612 -0.58055,1.255681 -1.10419,1.679401 -0.35668,0.288283 -0.81391,0.468219 -1.26165,0.468219"
       style="fill:#f8ecb8;fill-opacity:1;fill-rule:nonzero;stroke:none;stroke-width:0.0191592"
       id="path2400" />
    <path
       d="m 92.528278,78.177044 c 4.30633,-1.184093 8.834642,-1.814836 13.508282,-1.814836 -4.67345,0 -9.201762,0.630743 -13.508282,1.814836"
       style="fill:#81674f;fill-opacity:1;fill-rule:nonzero;stroke:none;stroke-width:0.0191592"
       id="path2402" />
    <path
       d="m 55.824849,116.33891 c 0.0057,-0.0232 0.0114,-0.0464 0.01726,-0.0696 0.05367,-0.22056 0.108523,-0.4392 0.165061,-0.65783 0.04248,-0.16252 0.08632,-0.32505 0.13034,-0.48951 0.06203,-0.2283 0.124076,-0.45854 0.188961,-0.68878 0.03813,-0.1335 0.07817,-0.267 0.117438,-0.40051 0.273013,-0.93449 0.569932,-1.85739 0.891513,-2.76868 0.01232,-0.0348 0.02371,-0.0716 0.03587,-0.10448 5.70459,-16.058783 18.833042,-28.491766 35.156996,-32.982421 4.30653,-1.184093 8.834842,-1.814835 13.508282,-1.814835 v 0 c 1.75684,0 3.4909,0.089 5.20221,0.263132 -4.90055,0.522394 -9.70908,1.391116 -14.433752,3.248517 -6.406946,2.517166 -12.298415,6.35386 -17.247718,11.204384 -4.288878,4.20431 -10.435714,9.828753 -5.997337,16.087803 2.452362,3.45942 6.155755,3.7477 9.893488,3.7477 0.372616,0 0.74618,-0.004 1.118227,-0.006 0.372047,-0.004 0.743145,-0.006 1.112346,-0.006 0.312095,0 0.622671,0.002 0.931161,0.008 5.371443,0.10062 10.741543,0.28635 16.106155,0.58045 7.98051,0.43533 15.96595,1.08541 23.89827,2.136 -6.6441,-0.33085 -13.53105,-0.50691 -20.58305,-0.50691 -18.279243,0 -35.42413,1.17248 -50.211709,3.2195"
       style="fill:#f3c46d;fill-opacity:1;fill-rule:nonzero;stroke:none;stroke-width:0.0191592"
       id="path2404" />
    <path
       d="m 118.89408,129.08339 h -9.07065 c 2.89137,0 6.0939,-0.39276 9.07065,0"
       style="fill:#f2a951;fill-opacity:1;fill-rule:nonzero;stroke:none;stroke-width:0.0191592"
       id="path2406" />
    <path
       d="m 206.95401,137.43202 c 0,0.41598 -0.0456,0.83196 -0.12901,1.24407 -0.019,0.0851 -0.038,0.1722 -0.0607,0.25733 -0.93723,3.70513 -5.32173,7.18776 -12.38892,10.26214 l -0.0152,0.008 c -16.81704,7.30577 -48.80434,12.30721 -85.71874,12.53165 -0.43067,0.003 -0.86513,0.004 -1.2996,0.006 -0.43257,0.003 -0.87083,0.003 -1.30529,0.003 -0.43504,0 -0.87007,0 -1.30511,-0.003 -0.43522,-0.003 -0.86836,-0.004 -1.29979,-0.006 -0.8253,-0.006 -1.6468,-0.0116 -2.4683,-0.0213 -51.311723,-0.61333 -92.5375822,-10.45563 -95.6549182,-22.78219 -0.0216,-0.0832 -0.04134,-0.1722 -0.05939,-0.25539 -0.08442,-0.41211 -0.129387,-0.8281 -0.129387,-1.24408 0,-4.50999 5.0965272,-8.73172 13.9774622,-12.34978 l 0.0076,-0.006 c 17.563831,-7.15664 49.921466,-11.95686 86.931873,-11.95686 55.73303,0 100.91745,10.88515 100.91745,24.31261"
       style="fill:#4492aa;fill-opacity:1;fill-rule:nonzero;stroke:none;stroke-width:0.0191592"
       id="path2408" />
    <path
       d="m 206.7643,138.93342 c -0.0323,-0.0851 -0.0664,-0.16834 -0.10245,-0.25152 0,0 0.003,-0.003 0.003,-0.003 0.0892,-0.0445 0.12711,-0.15285 0.0835,-0.24378 -0.84807,-1.79355 -2.76237,-3.5368 -5.65754,-5.19878 -10.59292,-10.69496 -50.52392,-18.64696 -98.16583,-18.64696 -19.712218,0 -39.54681,1.20151 -58.99854,4.58353 -7.983732,1.39111 -16.78574,2.93702 -24.821649,5.90305 17.564175,-7.1568 49.92181,-11.95702 86.932219,-11.95702 55.73303,0 100.91745,10.88515 100.91745,24.31261 0,0.41598 -0.0456,0.83196 -0.12901,1.24407 -0.019,0.0851 -0.038,0.1722 -0.0607,0.25733 v 0"
       style="fill:#8fbecc;fill-opacity:1;fill-rule:nonzero;stroke:none;stroke-width:0.0191592"
       id="path2410" />
    <path
       d="m 157.40216,158.36261 h 0.002 c 11.01911,-1.57299 20.69119,-3.63741 28.49449,-6.06558 -7.8033,2.42817 -17.47538,4.49259 -28.49639,6.06558 m 28.5078,-6.06944 c 0.0132,-0.004 0.0284,-0.01 0.0418,-0.0135 -0.0132,0.004 -0.0284,0.01 -0.0418,0.0135 m 0.0607,-0.0194 c 0.0132,-0.004 0.0303,-0.01 0.0456,-0.0135 -0.0132,0.004 -0.0322,0.01 -0.0456,0.0135 m 0.0854,-0.0251 v -0.003 0.003 m 8.31176,-3.05118 0.008,-0.003 v 0 0 c 7.06718,-3.07438 11.45168,-6.55701 12.38892,-10.26215 v 0 c -0.93724,3.70707 -5.32363,7.18969 -12.3965,10.26408"
       style="fill:#213671;fill-opacity:1;fill-rule:nonzero;stroke:none;stroke-width:0.0191592"
       id="path2412" />
    <path
       d="m 157.40406,158.36261 c 2.88569,-3.36654 5.32742,-7.29224 5.70117,-9.00066 0.0512,-0.23604 0.0778,-0.47596 0.0778,-0.70813 0,-3.59292 -5.97437,-6.94204 -16.82463,-9.43599 -10.77247,-2.47653 -25.09276,-3.83863 -40.32183,-3.83863 -15.228114,0 -29.547645,1.3621 -40.319927,3.83863 -10.849881,2.49395 -16.825207,5.84307 -16.825207,9.43599 0,0.23217 0.02598,0.47209 0.07722,0.70813 0.198264,0.90548 0.720002,2.19792 1.592536,3.71287 -5.86339,-1.6794 -10.798843,-3.55035 -14.62176,-5.57027 1.226366,-0.7894 1.990952,-1.77227 1.990952,-2.46686 0,-1.34661 -2.86747,-2.43784 -6.403532,-2.43784 -0.775584,0 -1.518541,0.0542 -2.206287,0.14898 -1.147444,-1.23827 -1.903102,-2.5133 -2.232277,-3.81735 3.721039,-9.82875 39.645084,-17.76527 85.725202,-19.19895 22.74589,0.3173 44.26995,2.22695 61.22171,5.45419 12.96946,2.46879 22.50494,5.55672 27.8722,8.95421 1.26925,1.53816 1.93328,3.1305 1.93328,4.7596 0,0.41597 -0.0418,0.83195 -0.12711,1.24407 -0.017,0.0851 -0.038,0.17219 -0.0607,0.25732 -0.79304,3.12663 -4.03731,6.0946 -9.27746,8.79364 v 0 l -0.008,0.003 c -2.45692,1.06801 -5.23825,2.08765 -8.31176,3.04924 v 0.003 c -0.0152,0.004 -0.0266,0.008 -0.0398,0.0116 -0.0152,0.004 -0.0323,0.01 -0.0456,0.0135 -0.008,0.003 -0.0114,0.004 -0.019,0.006 -0.0132,0.004 -0.0284,0.01 -0.0418,0.0135 -0.003,0.003 -0.008,0.003 -0.0114,0.004 -7.8033,2.42817 -17.47538,4.49258 -28.49449,6.06557 m 23.14431,-15.76082 c -3.53644,0 -6.40316,1.08929 -6.40316,2.4359 0,1.34469 2.86672,3.77092 6.40316,3.77092 3.53644,0 6.40315,-2.42623 6.40315,-3.77092 0,-1.34661 -2.86671,-2.4359 -6.40315,-2.4359 m -18.78061,-11.30079 c -3.53643,0 -6.40315,1.09123 -6.40315,2.43591 0,1.34468 2.86672,3.77285 6.40315,3.77285 3.53644,0 6.40316,-2.42817 6.40316,-3.77285 0,-1.34468 -2.86672,-2.43591 -6.40316,-2.43591 m -111.461305,0 c -3.536625,0 -6.403338,1.09123 -6.403338,2.43591 0,1.34468 2.866713,3.77285 6.403338,3.77285 3.53625,0 6.403151,-2.42817 6.403151,-3.77285 0,-1.34468 -2.866901,-2.43591 -6.403151,-2.43591 m 83.232865,-5.0796 c -3.53643,0 -6.40315,1.09123 -6.40315,2.4359 0,1.34662 2.86672,3.77285 6.40315,3.77285 3.53643,0 6.40315,-2.42623 6.40315,-3.77285 0,-1.34467 -2.86672,-2.4359 -6.40315,-2.4359 m -55.003164,0 c -3.536434,0 -6.403342,1.09123 -6.403342,2.4359 0,1.34662 2.866908,3.77285 6.403342,3.77285 3.536437,0 6.403151,-2.42623 6.403151,-3.77285 0,-1.34467 -2.866714,-2.4359 -6.403151,-2.4359 m 27.500924,-1.33693 c -3.53568,0 -6.402592,1.09121 -6.402592,2.4359 0,1.34661 2.866912,3.77284 6.402592,3.77284 3.53643,0 6.40314,-2.42623 6.40314,-3.77284 0,-1.34469 -2.86671,-2.4359 -6.40314,-2.4359"
       style="fill:#3b6c9f;fill-opacity:1;fill-rule:nonzero;stroke:none;stroke-width:0.0191592"
       id="path2414" />
    <path
       d="m 194.37537,149.19556 c 5.24016,-2.69904 8.48443,-5.66701 9.27746,-8.79364 0.0228,-0.0851 0.0436,-0.17219 0.0607,-0.25732 0.0854,-0.41212 0.12711,-0.8281 0.12711,-1.24407 0,-1.6291 -0.66403,-3.22144 -1.93327,-4.7596 2.27098,1.43562 3.79446,2.92928 4.5173,4.45389 0.0304,0.0658 0.0949,0.10449 0.16127,0.10449 0.0247,0 0.0512,-0.006 0.0759,-0.0174 0.036,0.0832 0.0702,0.16639 0.10245,0.25152 -0.93723,3.70513 -5.32173,7.18776 -12.38892,10.26215"
       style="fill:#6082b0;fill-opacity:1;fill-rule:nonzero;stroke:none;stroke-width:0.0191592"
       id="path2416" />
    <path
       d="m 54.452014,158.33165 c -7.936686,-1.13959 -15.170443,-2.53458 -21.504723,-4.13659 -10.107303,-2.55586 -17.927875,-5.64379 -22.66867,-9.06837 -2.7193042,-1.96575 -4.4258602,-4.04178 -4.9701762,-6.19521 0.03341,-0.0871 0.06926,-0.17606 0.107764,-0.26313 0.02472,0.0116 0.0507,0.0174 0.07643,0.0174 0.06656,0 0.13072,-0.0387 0.161639,-0.10255 2.445345,-5.13106 13.9541272,-9.88872 32.4062062,-13.40037 18.623968,-3.54454 42.764894,-5.49675 67.976046,-5.49675 2.26909,0 4.52869,0.0155 6.77691,0.0464 -46.080094,1.43371 -82.004139,9.37023 -85.725178,19.19898 0.329175,1.30405 1.084837,2.57908 2.232282,3.81734 -0.529898,0.0754 -1.027162,0.17608 -1.480973,0.29797 -1.643005,0.43919 -2.716267,1.16668 -2.716267,1.9909 0,1.31178 2.72537,3.65096 6.139242,3.76704 0.08633,0.004 0.176253,0.006 0.264284,0.006 1.710164,0 3.263995,-0.56882 4.41258,-1.30598 3.822917,2.01993 8.75837,3.89087 14.62176,5.57027 0.907253,1.57492 2.193391,3.38976 3.890841,5.25683"
       style="fill:#365699;fill-opacity:1;fill-rule:nonzero;stroke:none;stroke-width:0.0191592"
       id="path2418" />
    <path
       d="m 206.58595,138.69931 c -0.0664,0 -0.1309,-0.0387 -0.16127,-0.10449 -2.43225,-5.13299 -13.93515,-9.89452 -32.3895,-13.4081 -18.627,-3.54648 -42.77684,-5.50062 -67.99862,-5.50062 -25.211154,0 -49.352079,1.9522 -67.976047,5.49675 -18.452079,3.51164 -29.9608622,8.2693 -32.4062072,13.40037 -0.04319,0.0909 -0.151017,0.12769 -0.24018,0.0832 -0.08918,-0.0426 -0.126544,-0.15285 -0.0831,-0.24379 2.496562,-5.23748 14.0966082,-10.06672 32.6634732,-13.60159 18.645029,-3.54841 42.809664,-5.50255 68.042071,-5.50255 25.24264,0 49.41525,1.95608 68.06502,5.50836 18.57009,3.53487 30.16406,8.36798 32.64564,13.60932 0.0436,0.0909 0.006,0.19929 -0.0835,0.24379 -0.0247,0.0135 -0.0512,0.0193 -0.0778,0.0193"
       style="fill:#374976;fill-opacity:1;fill-rule:nonzero;stroke:none;stroke-width:0.0191592"
       id="path2420" />
    <path
       d="m 163.00468,148.65188 c 0,0.22637 -0.0266,0.45081 -0.074,0.67138 -0.50655,2.30047 -5.36915,9.56948 -9.76503,12.92635 -5.45834,4.16948 -14.83824,2.62938 -26.18368,1.08735 -6.03318,-0.81841 -12.62416,-1.63684 -19.47506,-1.59814 -0.48759,0.004 -0.97707,0.006 -1.47035,0.006 -0.49081,0 -0.98163,-0.003 -1.47054,-0.006 -0.46388,-0.003 -0.92946,-0.006 -1.39333,-0.0116 -6.309622,-0.0716 -12.649972,0.76618 -18.572175,1.60201 -6.353444,0.89775 -12.225563,1.79549 -17.062927,1.57299 -3.503804,-0.16445 -6.464621,-0.91322 -8.670532,-2.68163 -6.009854,-4.81182 -9.159636,-10.32792 -9.722162,-12.89732 -0.04857,-0.22057 -0.07381,-0.44501 -0.07381,-0.67138 0,-7.22839 25.504844,-13.08887 56.965476,-13.08887 27.52122,0 50.48529,4.48484 55.80322,10.44595 0.76269,0.85324 1.1649,1.73744 1.1649,2.64292"
       style="fill:#4492aa;fill-opacity:1;fill-rule:nonzero;stroke:none;stroke-width:0.0191592"
       id="path2422" />
    <path
       d="m 57.296908,160.64953 c -4.977191,-4.47904 -7.488178,-9.13802 -7.977283,-11.3669 -0.04556,-0.2109 -0.06849,-0.42179 -0.06849,-0.62881 0,-3.353 6.030156,-6.66149 16.544606,-9.07806 10.747236,-2.47073 25.0385,-3.83088 40.240819,-3.83088 15.2044,0 29.49433,1.36015 40.24215,3.83088 7.61927,1.751 12.88409,3.9702 15.20629,6.33453 -1.28253,-0.34634 -2.57075,-0.65784 -3.86656,-0.94419 -12.92392,-2.86543 -26.33923,-3.66643 -39.53447,-3.66643 -31.184774,0 -56.517344,5.75988 -56.960161,12.9012 -2.834649,1.42981 -4.414284,3.01827 -4.414284,4.69381 0,0.19347 0.02162,0.38695 0.06318,0.5785 0.08708,0.39857 0.263521,0.7894 0.524202,1.17635"
       style="fill:#3d74a2;fill-opacity:1;fill-rule:nonzero;stroke:none;stroke-width:0.0191592"
       id="path2424" />
    <path
       d="m 106.03656,149.84565 c -0.0987,0 -0.1791,-0.0832 -0.1791,-0.18381 v -14.10076 c 0,-0.10061 0.0804,-0.18188 0.1791,-0.18188 0.10055,0 0.18024,0.0813 0.18024,0.18188 v 14.10076 c 0,0.10062 -0.0797,0.18381 -0.18024,0.18381"
       style="fill:#374976;fill-opacity:1;fill-rule:nonzero;stroke:none;stroke-width:0.0191592"
       id="path2426" />
    <path
       d="m 76.144938,151.61792 c -0.06014,0 -0.118766,-0.0309 -0.152723,-0.0871 -4.829023,-7.89782 -4.072025,-13.20496 -4.037498,-13.42745 0.01554,-0.10062 0.107764,-0.16834 0.205659,-0.15286 0.09809,0.0174 0.164872,0.11029 0.149502,0.2109 -0.0082,0.0522 -0.763446,5.40581 3.987408,13.17594 0.05254,0.0871 0.02673,0.19928 -0.05748,0.25345 -0.02958,0.0174 -0.06242,0.0271 -0.09486,0.0271"
       style="fill:#374976;fill-opacity:1;fill-rule:nonzero;stroke:none;stroke-width:0.0191592"
       id="path2428" />
    <path
       d="m 135.92931,151.61792 c -0.0323,0 -0.0645,-0.01 -0.0948,-0.0271 -0.0835,-0.0542 -0.11005,-0.16638 -0.057,-0.25345 4.75067,-7.77013 3.99556,-13.12371 3.98798,-13.17594 -0.0171,-0.10061 0.0513,-0.19349 0.14799,-0.21089 0.0986,-0.0155 0.18972,0.0522 0.20679,0.15285 0.0342,0.22249 0.79114,5.52963 -4.03731,13.42746 -0.0342,0.0561 -0.093,0.0871 -0.15367,0.0871"
       style="fill:#374976;fill-opacity:1;fill-rule:nonzero;stroke:none;stroke-width:0.0191592"
       id="path2430" />
    <path
       d="m 107.98691,161.55502 c 7.3309,0 14.41895,0.97127 20.6893,1.83031 10.75728,1.47238 19.25308,2.63519 24.38319,-1.28277 4.44142,-3.39169 9.22623,-10.67812 9.69485,-12.81993 0.0456,-0.2109 0.0702,-0.42179 0.0702,-0.62881 0,-3.353 -6.0313,-6.66149 -16.54574,-9.07806 -10.74781,-2.47073 -25.03775,-3.83088 -40.24215,-3.83088 -15.202316,0 -29.493581,1.36015 -40.240817,3.83088 -10.51445,2.41657 -16.544606,5.72506 -16.544606,9.07806 0,0.20702 0.02296,0.41791 0.06849,0.62881 0.541471,2.46879 3.560531,7.91137 9.658611,12.79284 4.993508,3.99728 13.966077,2.7242 24.355498,1.24794 6.128243,-0.86871 13.073242,-1.85546 19.841604,-1.77807 0.4635,0.006 0.92756,0.008 1.39257,0.0116 0.97632,0.006 1.96193,0.006 2.939,0 0.15937,-0.003 0.32063,-0.003 0.48,-0.003 m 34.85591,3.57743 c -4.1056,0 -8.88283,-0.65396 -14.21405,-1.38337 -6.39556,-0.87646 -13.64298,-1.87095 -21.11996,-1.82645 -0.97708,0.006 -1.96553,0.006 -2.94299,0 -0.46596,-0.003 -0.93078,-0.006 -1.39484,-0.0116 -6.739532,-0.0754 -13.372813,0.86485 -19.787726,1.77614 -10.470815,1.48785 -19.513389,2.77062 -24.626804,-1.3234 -6.172258,-4.93953 -9.234955,-10.48271 -9.787811,-13.00181 -0.0512,-0.23604 -0.07722,-0.47597 -0.07722,-0.70813 0,-3.59292 5.975327,-6.94204 16.825207,-9.43599 10.772282,-2.47654 25.091814,-3.83862 40.319934,-3.83862 15.22906,0 29.54936,1.36208 40.32182,3.83862 10.85026,2.49395 16.82464,5.84307 16.82464,9.43599 0,0.23216 -0.0266,0.47209 -0.0778,0.70813 -0.54641,2.49781 -5.51145,9.73587 -9.83145,13.0347 -2.6656,2.03734 -6.18876,2.73579 -10.43097,2.73579"
       style="fill:#374976;fill-opacity:1;fill-rule:nonzero;stroke:none;stroke-width:0.0191592"
       id="path2432" />
    <path
       d="m 155.36453,158.89468 c 0,0.19347 -0.0208,0.38695 -0.0626,0.5785 -1.29392,5.89531 -22.17862,10.60267 -47.99233,10.75358 -0.42119,0.003 -0.84617,0.003 -1.27304,0.003 -0.42498,0 -0.84958,0 -1.27247,-0.003 -0.40317,-0.004 -0.80538,-0.006 -1.20664,-0.0116 -25.254413,-0.28636 -45.511515,-4.93759 -46.784745,-10.74198 -0.04157,-0.19154 -0.06318,-0.38502 -0.06318,-0.5785 0,-6.26099 22.084894,-11.33595 49.327035,-11.33595 27.24422,0 49.32797,5.07496 49.32797,11.33595"
       style="fill:#324795;fill-opacity:1;fill-rule:nonzero;stroke:none;stroke-width:0.0191592"
       id="path2434" />
    <path
       d="m 146.66764,162.42374 c 0,0.16059 -0.0171,0.31924 -0.0532,0.47789 l -0.002,0.0155 c -0.38324,1.61362 -6.08063,7.23999 -9.45959,8.52083 -4.6558,1.7626 -10.14828,1.26922 -17.56265,0.77778 -3.65787,-0.24184 -7.78244,-0.48562 -12.50465,-0.45661 -0.34719,0 -0.69818,0 -1.04917,0 -0.35061,0 -0.69932,0 -1.04803,0 -0.33258,-0.003 -0.66346,-0.004 -0.99415,-0.01 -4.785192,-0.0561 -8.902942,0.20896 -12.522852,0.47403 -4.874365,0.356 -8.846405,0.71201 -12.331048,0.28828 -1.432978,-0.17413 -2.783052,-0.47789 -4.079229,-0.96933 -3.388839,-1.2847 -9.252988,-7.05038 -9.603588,-8.64078 -0.03415,-0.15865 -0.05217,-0.31731 -0.05217,-0.4779 0,-5.15622 18.191398,-9.33537 40.631077,-9.33537 22.44233,0 40.63107,4.17915 40.63107,9.33537"
       style="fill:#4492aa;fill-opacity:1;fill-rule:nonzero;stroke:none;stroke-width:0.0191592"
       id="path2436" />
    <path
       d="m 75.060104,171.54049 c -3.388833,-1.28277 -9.251841,-7.04845 -9.602448,-8.63886 -0.03415,-0.15865 -0.05217,-0.3173 -0.05217,-0.47789 0,-5.15622 18.191401,-9.33538 40.631084,-9.33538 22.44233,0 40.63107,4.17916 40.63107,9.33538 0,0.16059 -0.0171,0.31924 -0.0531,0.47789 l -0.002,0.0155 v 0 c -0.66783,-0.20509 -1.27874,-0.40244 -1.74546,-0.49724 -2.61058,-0.53594 -5.24584,-0.94224 -7.89057,-1.2673 -6.34434,-0.78165 -12.74369,-1.09895 -19.13167,-1.09895 -21.658212,0 -39.358607,3.89473 -40.566194,8.8033 -1.817356,0.55336 -2.829334,1.17055 -2.829334,1.82064 0,0.0754 0.01366,0.14898 0.04022,0.22444 0.07892,0.2167 0.271867,0.43146 0.570496,0.63848"
       style="fill:#3d74a2;fill-opacity:1;fill-rule:nonzero;stroke:none;stroke-width:0.0191592"
       id="path2438" />
    <path
       d="m 106.46344,166.80605 c -0.0987,0 -0.17834,-0.0813 -0.17834,-0.18381 V 152.5234 c 0,-0.10254 0.0797,-0.1838 0.17834,-0.1838 0.10055,0 0.18023,0.0813 0.18023,0.1838 v 14.09884 c 0,0.10254 -0.0797,0.18381 -0.18023,0.18381"
       style="fill:#374976;fill-opacity:1;fill-rule:nonzero;stroke:none;stroke-width:0.0191592"
       id="path2440" />
    <path
       d="m 76.571815,169.86302 c -0.06014,0 -0.118767,-0.031 -0.152723,-0.0871 -4.829023,-7.89782 -4.072025,-13.20495 -4.037499,-13.42746 0.01576,-0.1006 0.107382,-0.16833 0.20566,-0.15285 0.09809,0.0155 0.164872,0.11029 0.149502,0.20896 -0.0082,0.0542 -0.763447,5.40774 3.987409,13.17787 0.05255,0.0851 0.02675,0.19928 -0.05748,0.25152 -0.02958,0.0194 -0.06242,0.029 -0.09486,0.029"
       style="fill:#374976;fill-opacity:1;fill-rule:nonzero;stroke:none;stroke-width:0.0191592"
       id="path2442" />
    <path
       d="m 136.17596,170.04682 c -0.0323,0 -0.0645,-0.01 -0.0949,-0.029 -0.0835,-0.0522 -0.11003,-0.16639 -0.0569,-0.25152 4.75824,-7.78367 3.99556,-13.1237 3.98797,-13.17788 -0.0152,-0.0987 0.0512,-0.19348 0.14989,-0.20895 0.0968,-0.0155 0.18972,0.0522 0.2049,0.15285 0.0342,0.22056 0.79113,5.52964 -4.03731,13.42746 -0.0342,0.0561 -0.093,0.0871 -0.15368,0.0871"
       style="fill:#374976;fill-opacity:1;fill-rule:nonzero;stroke:none;stroke-width:0.0191592"
       id="path2444" />
    <path
       d="m 137.62543,170.67756 c 0,0.0754 -0.0132,0.14898 -0.0398,0.22444 -0.82908,2.285 -14.20266,4.11144 -30.73322,4.16948 -0.2713,0 -0.54261,0 -0.81581,0 -0.27187,0 -0.54374,0 -0.81467,0 -0.25802,-0.003 -0.51567,-0.003 -0.77274,-0.004 -16.171991,-0.11222 -29.144116,-1.91544 -29.95954,-4.1656 -0.02657,-0.0754 -0.04023,-0.14899 -0.04023,-0.22444 0,-2.42817 14.142333,-4.39586 31.58717,-4.39586 17.44693,0 31.58888,1.96769 31.58888,4.39586"
       style="fill:#324795;fill-opacity:1;fill-rule:nonzero;stroke:none;stroke-width:0.0191592"
       id="path2446" />
    <path
       d="m 81.621863,173.4656 c -1.170022,-0.19734 -2.217862,-0.41018 -3.127583,-0.63461 l 0.433896,-1.21892 h 0.09183 c 0.0036,0.0116 0.0078,0.0232 0.01252,0.0368 0.310957,0.83389 1.607144,1.34661 2.319174,1.68907 0.08974,0.0445 0.179858,0.0871 0.270166,0.12769"
       style="fill:#596593;fill-opacity:1;fill-rule:nonzero;stroke:none;stroke-width:0.0191592"
       id="path2462" />
    <path
       d="m 130.40078,173.47528 c 0.78546,-0.356 2.29565,-0.90549 2.64095,-1.82451 l 0.42877,1.20731 c -0.89739,0.2167 -1.92568,0.42372 -3.06972,0.6172"
       style="fill:#596593;fill-opacity:1;fill-rule:nonzero;stroke:none;stroke-width:0.0191592"
       id="path2490" />
    <path
       d="m 130.40078,173.47528 c 0,0.0619 -0.009,0.12383 -0.0342,0.18574 -0.3434,0.92096 -1.85738,1.47044 -2.64284,1.82645 -2.04332,0.92676 -4.21944,1.56524 -6.38608,2.10698 -6.43541,1.60974 -13.06812,2.17858 -19.68053,2.08184 -5.848032,-0.089 -11.724887,-0.78939 -17.379012,-2.3411 -1.384029,-0.37922 -2.772043,-0.80294 -4.111487,-1.33308 -0.505042,-0.19927 -1.001168,-0.41597 -1.490084,-0.65202 -0.712031,-0.34245 -2.008216,-0.85518 -2.319176,-1.68907 -0.0235,-0.0619 -0.03415,-0.12383 -0.03415,-0.18574 0,-1.99284 12.106036,-3.61032 27.038189,-3.61032 13.98638,0 25.49307,1.42014 26.89703,3.23691 0.0949,0.12189 0.14229,0.24765 0.14229,0.37341"
       style="fill:#f4df89;fill-opacity:1;fill-rule:nonzero;stroke:none;stroke-width:0.0191592"
       id="path2698" />
    <path
       d="m 82.841782,173.98994 v 0 c -0.505043,-0.19929 -1.001168,-0.41599 -1.490084,-0.65204 -0.712031,-0.34245 -2.008218,-0.85517 -2.319174,-1.68906 -0.02352,-0.0619 -0.03415,-0.12384 -0.03415,-0.18575 0,-1.99283 12.106034,-3.61032 27.038186,-3.61032 13.98638,0 25.49308,1.42014 26.89703,3.23691 -0.47431,-0.32698 -0.97139,-0.61721 -1.73597,-0.79133 -2.34877,-0.53594 -4.81517,-0.6559 -7.21137,-0.77199 -2.1211,-0.10061 -4.2479,-0.14897 -6.37469,-0.14897 -5.18324,0 -10.37216,0.28635 -15.52105,0.78165 -9.150532,0.88227 -15.647785,2.36238 -19.248728,3.8309"
       style="fill:#f3b962;fill-opacity:1;fill-rule:nonzero;stroke:none;stroke-width:0.0191592"
       id="path2700" />
    <path
       d="m 112.43971,127.32273 c 0,1.34661 -2.86672,3.77284 -6.40315,3.77284 -3.53568,0 -6.402582,-2.42623 -6.402582,-3.77284 0,-1.34469 2.866902,-2.4359 6.402582,-2.4359 3.53643,0 6.40315,1.09121 6.40315,2.4359"
       style="fill:#f4df89;fill-opacity:1;fill-rule:nonzero;stroke:none;stroke-width:0.0191592"
       id="path2702" />
    <path
       d="m 84.93879,128.65966 c 0,1.34662 -2.866714,3.77285 -6.403151,3.77285 -3.536434,0 -6.403341,-2.42623 -6.403341,-3.77285 0,-1.34467 2.866907,-2.4359 6.403341,-2.4359 3.536437,0 6.403151,1.09123 6.403151,2.4359"
       style="fill:#f4df89;fill-opacity:1;fill-rule:nonzero;stroke:none;stroke-width:0.0191592"
       id="path2704" />
    <path
       d="m 56.709526,133.7385 c 0,1.34468 -2.866901,3.77285 -6.403151,3.77285 -3.536625,0 -6.403338,-2.42817 -6.403338,-3.77285 0,-1.34468 2.866713,-2.43591 6.403338,-2.43591 3.53625,0 6.403151,1.09123 6.403151,2.43591"
       style="fill:#f4df89;fill-opacity:1;fill-rule:nonzero;stroke:none;stroke-width:0.0191592"
       id="path2706" />
    <path
       d="m 37.930366,145.03769 c 0,1.34468 -2.867471,3.77284 -6.403533,3.77284 -0.08803,0 -0.177957,-0.003 -0.264284,-0.006 -3.413872,-0.11608 -6.139242,-2.45526 -6.139242,-3.76704 0,-0.82422 1.073262,-1.5517 2.716267,-1.9909 1.04271,-0.28055 2.313854,-0.44694 3.687259,-0.44694 3.536062,0 6.403533,1.09122 6.403533,2.43784"
       style="fill:#f4df89;fill-opacity:1;fill-rule:nonzero;stroke:none;stroke-width:0.0191592"
       id="path2708" />
    <path
       d="m 127.13565,128.65966 c 0,1.34662 2.86672,3.77285 6.40315,3.77285 3.53644,0 6.40316,-2.42623 6.40316,-3.77285 0,-1.34467 -2.86672,-2.4359 -6.40316,-2.4359 -3.53643,0 -6.40315,1.09123 -6.40315,2.4359"
       style="fill:#f4df89;fill-opacity:1;fill-rule:nonzero;stroke:none;stroke-width:0.0191592"
       id="path2710" />
    <path
       d="m 155.36453,133.7385 c 0,1.34468 2.86672,3.77285 6.40316,3.77285 3.53643,0 6.40315,-2.42817 6.40315,-3.77285 0,-1.34468 -2.86672,-2.43591 -6.40315,-2.43591 -3.53644,0 -6.40316,1.09123 -6.40316,2.43591"
       style="fill:#f4df89;fill-opacity:1;fill-rule:nonzero;stroke:none;stroke-width:0.0191592"
       id="path2712" />
    <path
       d="m 174.14522,145.03769 c 0,1.34468 2.86671,3.77091 6.40314,3.77091 3.53645,0 6.40316,-2.42623 6.40316,-3.77091 0,-1.34661 -2.86671,-2.4359 -6.40316,-2.4359 -3.53643,0 -6.40314,1.08929 -6.40314,2.4359"
       style="fill:#f4df89;fill-opacity:1;fill-rule:nonzero;stroke:none;stroke-width:0.0191592"
       id="path2714" />
    <path
       d="m 135.252,131.11879 c -0.0892,0 -0.17455,-0.0193 -0.24474,-0.0774 -0.10435,-0.0871 -0.1385,-0.24185 -0.11763,-0.37729 0.0208,-0.13737 0.0892,-0.2612 0.16127,-0.37728 0.25992,-0.42179 0.58055,-0.80294 0.94861,-1.12992 0.30545,-0.2728 1.10039,-0.81262 1.69803,-0.81262 0.24853,0 0.46291,0.0948 0.59383,0.34052 0.3377,0.63849 -1.01692,1.53043 -1.44569,1.79937 -0.40981,0.25732 -0.85565,0.4566 -1.32047,0.5901 -0.0873,0.0251 -0.18214,0.0445 -0.27321,0.0445"
       style="fill:#faefc4;fill-opacity:1;fill-rule:nonzero;stroke:none;stroke-width:0.0191592"
       id="path2716" />
    <path
       d="m 165.43124,135.67716 c -0.006,0 -0.0132,0 -0.0208,-0.003 -0.11952,-0.004 -0.24285,-0.06 -0.30545,-0.16446 -0.0968,-0.16058 -0.0228,-0.3676 0.0721,-0.53013 0.17454,-0.29989 0.96948,-1.12218 1.4988,-1.12218 0.11953,0 0.22388,0.0426 0.30545,0.1393 0.4876,0.58625 -0.82908,1.43562 -1.2218,1.59815 -0.10435,0.0445 -0.21439,0.0812 -0.32822,0.0812"
       style="fill:#faefc4;fill-opacity:1;fill-rule:nonzero;stroke:none;stroke-width:0.0191592"
       id="path2718" />
    <path
       d="m 182.76244,147.66127 c -0.12712,0 -0.24665,-0.0368 -0.30735,-0.14511 -0.0797,-0.1335 -0.017,-0.3057 0.055,-0.445 0.44965,-0.85518 1.30719,-1.4569 2.23684,-1.6407 0.0892,-0.0174 0.18592,-0.029 0.28078,-0.029 0.29028,0 0.55969,0.11029 0.55969,0.4895 0.002,0.4392 -0.60712,0.7836 -0.92016,0.99449 -0.51035,0.34052 -1.07763,0.59591 -1.67146,0.74296 -0.074,0.0194 -0.15557,0.0329 -0.23336,0.0329"
       style="fill:#faefc4;fill-opacity:1;fill-rule:nonzero;stroke:none;stroke-width:0.0191592"
       id="path2720" />
    <path
       d="m 108.49157,129.84376 c -0.14039,0 -0.2713,-0.0406 -0.36806,-0.14898 -0.11383,-0.12963 -0.1347,-0.32505 -0.0911,-0.49144 0.0418,-0.17026 0.1423,-0.3173 0.24664,-0.45467 0.4117,-0.53981 0.94862,-0.97707 1.55004,-1.2731 0.19162,-0.0948 0.54451,-0.30182 0.79684,-0.30182 0.036,0 0.0721,0.006 0.10435,0.0155 1.28062,0.40244 -1.31289,2.32368 -1.72838,2.52297 -0.15557,0.0735 -0.33961,0.13156 -0.51036,0.13156"
       style="fill:#faefc4;fill-opacity:1;fill-rule:nonzero;stroke:none;stroke-width:0.0191592"
       id="path2722" />
    <path
       d="m 80.872458,131.27937 c -0.0072,0 -0.01442,0 -0.02163,0 -0.203003,-0.008 -0.415114,-0.1393 -0.454955,-0.34245 -0.04249,-0.21477 0.111366,-0.41405 0.256694,-0.5785 0.311336,-0.34827 0.643351,-0.70039 1.049548,-0.93451 0.180427,-0.10448 0.550197,-0.27861 0.845595,-0.27861 0.136411,0 0.256885,0.0368 0.33581,0.13544 0.480569,0.59978 -1.092045,1.61168 -1.458021,1.81483 -0.171699,0.0967 -0.358007,0.1838 -0.553043,0.1838"
       style="fill:#faefc4;fill-opacity:1;fill-rule:nonzero;stroke:none;stroke-width:0.0191592"
       id="path2724" />
    <path
       d="m 53.528631,135.66168 c -0.0032,0 -0.0058,0 -0.0091,0 -0.180432,-0.003 -0.391022,-0.0696 -0.443388,-0.24571 -0.04878,-0.16446 0.06356,-0.32892 0.171133,-0.45855 0.187444,-0.22831 0.382863,-0.45468 0.621532,-0.62687 0.181184,-0.13157 0.5335,-0.29216 0.83592,-0.29216 0.166196,0 0.317215,0.0484 0.416632,0.17607 0.260681,0.33859 -0.315892,0.82035 -0.541847,1.01189 -0.296542,0.25152 -0.665363,0.43533 -1.050878,0.43533"
       style="fill:#faefc4;fill-opacity:1;fill-rule:nonzero;stroke:none;stroke-width:0.0191592"
       id="path2726" />
    <path
       d="m 35.219604,146.5062 c -0.139446,0 -0.275671,-0.0387 -0.363321,-0.14511 -0.09202,-0.11028 -0.105677,-0.27281 -0.06488,-0.41212 0.0406,-0.14123 0.128442,-0.26119 0.222922,-0.36954 0.192005,-0.2225 0.418342,-0.41211 0.668396,-0.56302 0.16639,-0.0987 0.348902,-0.15479 0.505046,-0.15479 0.283822,0 0.480947,0.18381 0.336564,0.61333 -0.166195,0.49724 -0.61318,0.90162 -1.115381,1.00997 -0.0609,0.0135 -0.125403,0.0213 -0.189342,0.0213"
       style="fill:#faefc4;fill-opacity:1;fill-rule:nonzero;stroke:none;stroke-width:0.0191592"
       id="path2728" />
  </g>
</svg>
