<?xml version="1.0" encoding="UTF-8" standalone="no"?>
<!-- Created with Inkscape (http://www.inkscape.org/) -->

<svg
   width="206.53264mm"
   height="368.18945mm"
   viewBox="0 0 206.53264 368.18946"
   version="1.1"
   id="svg14356"
   inkscape:version="1.1.2 (0a00cf5339, 2022-02-04)"
   sodipodi:docname="ufoHaloScale1.svg"
   xmlns:inkscape="http://www.inkscape.org/namespaces/inkscape"
   xmlns:sodipodi="http://sodipodi.sourceforge.net/DTD/sodipodi-0.dtd"
   xmlns="http://www.w3.org/2000/svg"
   xmlns:svg="http://www.w3.org/2000/svg">
  <sodipodi:namedview
     id="namedview14358"
     pagecolor="#ffffff"
     bordercolor="#666666"
     borderopacity="1.0"
     inkscape:pageshadow="2"
     inkscape:pageopacity="0.0"
     inkscape:pagecheckerboard="false"
     inkscape:document-units="mm"
     showgrid="false"
     inkscape:zoom="0.42532078"
     inkscape:cx="119.06715"
     inkscape:cy="537.76821"
     inkscape:window-width="1846"
     inkscape:window-height="1016"
     inkscape:window-x="74"
     inkscape:window-y="27"
     inkscape:window-maximized="1"
     inkscape:current-layer="layer2"
     fit-margin-top="100"
     fit-margin-left="1"
     fit-margin-right="0"
     fit-margin-bottom="-200"
     inkscape:snap-nodes="false"
     inkscape:snap-others="false"
     inkscape:rotation="1" />
  <defs
     id="defs14353">
    <clipPath
       clipPathUnits="userSpaceOnUse"
       id="clipPath520">
      <path
         d="m 9999.97,1604.9 c -11.73,0 -23.45,0 -35.2,0.1 -1653.8,7.4 -2924.82,535 -3636.48,909.7 -174.86,92 -252.01,301.1 -178.55,484.6 L 8011.77,7649 9657.19,11757.9 c 111.56,-9.7 226.24,-14.6 342.81,-14.6 116.6,0 231.3,4.9 342.9,14.6 l 1645.4,-4108.9 1862,-4649.7 c 73.5,-183.5 -3.8,-392.6 -178.7,-484.7 -713.2,-375.4 -1998.8,-909.7 -3671.63,-909.7 m 0.03,10211.8 c -47.87,0 -94.79,1.2 -139.44,3.7 h -0.01 v 0 c -46.62,2.5 -93.52,6.3 -139.29,11.4 -11.03,1.2 -22,2.6 -32.88,4 l 124.3,310.4 c 33.85,84.5 110.62,126.7 187.32,126.7 76.8,0 153.5,-42.2 187.4,-126.7 l 124.3,-310.4 c -10.9,-1.4 -21.9,-2.8 -33,-4 -45.2,-5 -92.1,-8.9 -139.3,-11.5 v 0 h -0.4 c -45,-2.4 -91.8,-3.6 -139,-3.6 m -91.19,238.2 -9.37,-166.2 c 21.5,-0.9 43.43,-1.5 65.57,-1.8 v 166.6 c -9.04,0.2 -18.05,0.3 -27.02,0.5 -0.99,0 -1.97,0.1 -2.97,0.1 -8.79,0.2 -17.52,0.5 -26.21,0.8 m 182.29,0 c -8.7,-0.3 -17.4,-0.6 -26.1,-0.8 -1,0 -2,-0.1 -3,-0.1 -9,-0.2 -18,-0.3 -27,-0.5 v -166.6 c 22,0.3 43.9,0.9 65.5,1.7 l -9.4,166.3 m 126.4,7.7 c -18.8,-1.6 -37.5,-3 -56.5,-4.2 l 9.4,-166 c 22.1,1.5 44,3.3 65.7,5.4 l -18.6,164.8 m -434.96,0 -18.64,-164.6 c 21.78,-2.1 43.63,-3.8 65.65,-5.3 l 9.34,165.7 c -18.79,1.2 -37.54,2.6 -56.35,4.2"
         id="path518" />
    </clipPath>
    <clipPath
       clipPathUnits="userSpaceOnUse"
       id="clipPath526">
      <path
         d="m 9638.4,1596.8 h 724.797 V 12281.6 H 9638.4 Z"
         id="path524" />
    </clipPath>
    <clipPath
       clipPathUnits="userSpaceOnUse"
       id="clipPath538">
      <path
         d="m 9999.97,1604.9 c -11.73,0 -23.45,0 -35.2,0.1 -1653.8,7.4 -2924.82,535 -3636.48,909.7 -174.86,92 -252.01,301.1 -178.55,484.6 L 8011.77,7649 9657.19,11757.9 c 111.56,-9.7 226.24,-14.6 342.81,-14.6 116.6,0 231.3,4.9 342.9,14.6 l 1645.4,-4108.9 1862,-4649.7 c 73.5,-183.5 -3.8,-392.6 -178.7,-484.7 -713.2,-375.4 -1998.8,-909.7 -3671.63,-909.7 m 0.03,10211.8 c -47.87,0 -94.79,1.2 -139.44,3.7 h -0.01 v 0 c -46.62,2.5 -93.52,6.3 -139.29,11.4 -11.03,1.2 -22,2.6 -32.88,4 l 124.3,310.4 c 33.85,84.5 110.62,126.7 187.32,126.7 76.8,0 153.5,-42.2 187.4,-126.7 l 124.3,-310.4 c -10.9,-1.4 -21.9,-2.8 -33,-4 -45.2,-5 -92.1,-8.9 -139.3,-11.5 v 0 h -0.4 c -45,-2.4 -91.8,-3.6 -139,-3.6 m -91.19,238.2 -9.37,-166.2 c 21.5,-0.9 43.43,-1.5 65.57,-1.8 v 166.6 c -9.04,0.2 -18.05,0.3 -27.02,0.5 -0.99,0 -1.97,0.1 -2.97,0.1 -8.79,0.2 -17.52,0.5 -26.21,0.8 m 182.29,0 c -8.7,-0.3 -17.4,-0.6 -26.1,-0.8 -1,0 -2,-0.1 -3,-0.1 -9,-0.2 -18,-0.3 -27,-0.5 v -166.6 c 22,0.3 43.9,0.9 65.5,1.7 l -9.4,166.3 m 126.4,7.7 c -18.8,-1.6 -37.5,-3 -56.5,-4.2 l 9.4,-166 c 22.1,1.5 44,3.3 65.7,5.4 l -18.6,164.8 m -434.96,0 -18.64,-164.6 c 21.78,-2.1 43.63,-3.8 65.65,-5.3 l 9.34,165.7 c -18.79,1.2 -37.54,2.6 -56.35,4.2"
         id="path536" />
    </clipPath>
    <clipPath
       clipPathUnits="userSpaceOnUse"
       id="clipPath544">
      <path
         d="m 9278.4,1596.8 h 374.398 V 11926.4 H 9278.4 Z"
         id="path542" />
    </clipPath>
    <clipPath
       clipPathUnits="userSpaceOnUse"
       id="clipPath556">
      <path
         d="m 9999.97,1604.9 c -11.73,0 -23.45,0 -35.2,0.1 -1653.8,7.4 -2924.82,535 -3636.48,909.7 -174.86,92 -252.01,301.1 -178.55,484.6 L 8011.77,7649 9657.19,11757.9 c 111.56,-9.7 226.24,-14.6 342.81,-14.6 116.6,0 231.3,4.9 342.9,14.6 l 1645.4,-4108.9 1862,-4649.7 c 73.5,-183.5 -3.8,-392.6 -178.7,-484.7 -713.2,-375.4 -1998.8,-909.7 -3671.63,-909.7 m 0.03,10211.8 c -47.87,0 -94.79,1.2 -139.44,3.7 h -0.01 v 0 c -46.62,2.5 -93.52,6.3 -139.29,11.4 -11.03,1.2 -22,2.6 -32.88,4 l 124.3,310.4 c 33.85,84.5 110.62,126.7 187.32,126.7 76.8,0 153.5,-42.2 187.4,-126.7 l 124.3,-310.4 c -10.9,-1.4 -21.9,-2.8 -33,-4 -45.2,-5 -92.1,-8.9 -139.3,-11.5 v 0 h -0.4 c -45,-2.4 -91.8,-3.6 -139,-3.6 m -91.19,238.2 -9.37,-166.2 c 21.5,-0.9 43.43,-1.5 65.57,-1.8 v 166.6 c -9.04,0.2 -18.05,0.3 -27.02,0.5 -0.99,0 -1.97,0.1 -2.97,0.1 -8.79,0.2 -17.52,0.5 -26.21,0.8 m 182.29,0 c -8.7,-0.3 -17.4,-0.6 -26.1,-0.8 -1,0 -2,-0.1 -3,-0.1 -9,-0.2 -18,-0.3 -27,-0.5 v -166.6 c 22,0.3 43.9,0.9 65.5,1.7 l -9.4,166.3 m 126.4,7.7 c -18.8,-1.6 -37.5,-3 -56.5,-4.2 l 9.4,-166 c 22.1,1.5 44,3.3 65.7,5.4 l -18.6,164.8 m -434.96,0 -18.64,-164.6 c 21.78,-2.1 43.63,-3.8 65.65,-5.3 l 9.34,165.7 c -18.79,1.2 -37.54,2.6 -56.35,4.2"
         id="path554" />
    </clipPath>
    <clipPath
       clipPathUnits="userSpaceOnUse"
       id="clipPath562">
      <path
         d="m 10348.8,1596.8 h 369.598 V 11926.4 H 10348.8 Z"
         id="path560" />
    </clipPath>
    <clipPath
       clipPathUnits="userSpaceOnUse"
       id="clipPath574">
      <path
         d="m 9999.97,1604.9 c -11.73,0 -23.45,0 -35.2,0.1 -1653.8,7.4 -2924.82,535 -3636.48,909.7 -174.86,92 -252.01,301.1 -178.55,484.6 L 8011.77,7649 9657.19,11757.9 c 111.56,-9.7 226.24,-14.6 342.81,-14.6 116.6,0 231.3,4.9 342.9,14.6 l 1645.4,-4108.9 1862,-4649.7 c 73.5,-183.5 -3.8,-392.6 -178.7,-484.7 -713.2,-375.4 -1998.8,-909.7 -3671.63,-909.7 m 0.03,10211.8 c -47.87,0 -94.79,1.2 -139.44,3.7 h -0.01 v 0 c -46.62,2.5 -93.52,6.3 -139.29,11.4 -11.03,1.2 -22,2.6 -32.88,4 l 124.3,310.4 c 33.85,84.5 110.62,126.7 187.32,126.7 76.8,0 153.5,-42.2 187.4,-126.7 l 124.3,-310.4 c -10.9,-1.4 -21.9,-2.8 -33,-4 -45.2,-5 -92.1,-8.9 -139.3,-11.5 v 0 h -0.4 c -45,-2.4 -91.8,-3.6 -139,-3.6 m -91.19,238.2 -9.37,-166.2 c 21.5,-0.9 43.43,-1.5 65.57,-1.8 v 166.6 c -9.04,0.2 -18.05,0.3 -27.02,0.5 -0.99,0 -1.97,0.1 -2.97,0.1 -8.79,0.2 -17.52,0.5 -26.21,0.8 m 182.29,0 c -8.7,-0.3 -17.4,-0.6 -26.1,-0.8 -1,0 -2,-0.1 -3,-0.1 -9,-0.2 -18,-0.3 -27,-0.5 v -166.6 c 22,0.3 43.9,0.9 65.5,1.7 l -9.4,166.3 m 126.4,7.7 c -18.8,-1.6 -37.5,-3 -56.5,-4.2 l 9.4,-166 c 22.1,1.5 44,3.3 65.7,5.4 l -18.6,164.8 m -434.96,0 -18.64,-164.6 c 21.78,-2.1 43.63,-3.8 65.65,-5.3 l 9.34,165.7 c -18.79,1.2 -37.54,2.6 -56.35,4.2"
         id="path572" />
    </clipPath>
    <clipPath
       clipPathUnits="userSpaceOnUse"
       id="clipPath580">
      <path
         d="m 8923.2,1596.8 h 369.602 V 10856 H 8923.2 Z"
         id="path578" />
    </clipPath>
    <clipPath
       clipPathUnits="userSpaceOnUse"
       id="clipPath592">
      <path
         d="m 9999.97,1604.9 c -11.73,0 -23.45,0 -35.2,0.1 -1653.8,7.4 -2924.82,535 -3636.48,909.7 -174.86,92 -252.01,301.1 -178.55,484.6 L 8011.77,7649 9657.19,11757.9 c 111.56,-9.7 226.24,-14.6 342.81,-14.6 116.6,0 231.3,4.9 342.9,14.6 l 1645.4,-4108.9 1862,-4649.7 c 73.5,-183.5 -3.8,-392.6 -178.7,-484.7 -713.2,-375.4 -1998.8,-909.7 -3671.63,-909.7 m 0.03,10211.8 c -47.87,0 -94.79,1.2 -139.44,3.7 h -0.01 v 0 c -46.62,2.5 -93.52,6.3 -139.29,11.4 -11.03,1.2 -22,2.6 -32.88,4 l 124.3,310.4 c 33.85,84.5 110.62,126.7 187.32,126.7 76.8,0 153.5,-42.2 187.4,-126.7 l 124.3,-310.4 c -10.9,-1.4 -21.9,-2.8 -33,-4 -45.2,-5 -92.1,-8.9 -139.3,-11.5 v 0 h -0.4 c -45,-2.4 -91.8,-3.6 -139,-3.6 m -91.19,238.2 -9.37,-166.2 c 21.5,-0.9 43.43,-1.5 65.57,-1.8 v 166.6 c -9.04,0.2 -18.05,0.3 -27.02,0.5 -0.99,0 -1.97,0.1 -2.97,0.1 -8.79,0.2 -17.52,0.5 -26.21,0.8 m 182.29,0 c -8.7,-0.3 -17.4,-0.6 -26.1,-0.8 -1,0 -2,-0.1 -3,-0.1 -9,-0.2 -18,-0.3 -27,-0.5 v -166.6 c 22,0.3 43.9,0.9 65.5,1.7 l -9.4,166.3 m 126.4,7.7 c -18.8,-1.6 -37.5,-3 -56.5,-4.2 l 9.4,-166 c 22.1,1.5 44,3.3 65.7,5.4 l -18.6,164.8 m -434.96,0 -18.64,-164.6 c 21.78,-2.1 43.63,-3.8 65.65,-5.3 l 9.34,165.7 c -18.79,1.2 -37.54,2.6 -56.35,4.2"
         id="path590" />
    </clipPath>
    <clipPath
       clipPathUnits="userSpaceOnUse"
       id="clipPath598">
      <path
         d="m 10704,1596.8 h 374.398 V 10856 H 10704 Z"
         id="path596" />
    </clipPath>
    <clipPath
       clipPathUnits="userSpaceOnUse"
       id="clipPath610">
      <path
         d="m 9999.97,1604.9 c -11.73,0 -23.45,0 -35.2,0.1 -1653.8,7.4 -2924.82,535 -3636.48,909.7 -174.86,92 -252.01,301.1 -178.55,484.6 L 8011.77,7649 9657.19,11757.9 c 111.56,-9.7 226.24,-14.6 342.81,-14.6 116.6,0 231.3,4.9 342.9,14.6 l 1645.4,-4108.9 1862,-4649.7 c 73.5,-183.5 -3.8,-392.6 -178.7,-484.7 -713.2,-375.4 -1998.8,-909.7 -3671.63,-909.7 m 0.03,10211.8 c -47.87,0 -94.79,1.2 -139.44,3.7 h -0.01 v 0 c -46.62,2.5 -93.52,6.3 -139.29,11.4 -11.03,1.2 -22,2.6 -32.88,4 l 124.3,310.4 c 33.85,84.5 110.62,126.7 187.32,126.7 76.8,0 153.5,-42.2 187.4,-126.7 l 124.3,-310.4 c -10.9,-1.4 -21.9,-2.8 -33,-4 -45.2,-5 -92.1,-8.9 -139.3,-11.5 v 0 h -0.4 c -45,-2.4 -91.8,-3.6 -139,-3.6 m -91.19,238.2 -9.37,-166.2 c 21.5,-0.9 43.43,-1.5 65.57,-1.8 v 166.6 c -9.04,0.2 -18.05,0.3 -27.02,0.5 -0.99,0 -1.97,0.1 -2.97,0.1 -8.79,0.2 -17.52,0.5 -26.21,0.8 m 182.29,0 c -8.7,-0.3 -17.4,-0.6 -26.1,-0.8 -1,0 -2,-0.1 -3,-0.1 -9,-0.2 -18,-0.3 -27,-0.5 v -166.6 c 22,0.3 43.9,0.9 65.5,1.7 l -9.4,166.3 m 126.4,7.7 c -18.8,-1.6 -37.5,-3 -56.5,-4.2 l 9.4,-166 c 22.1,1.5 44,3.3 65.7,5.4 l -18.6,164.8 m -434.96,0 -18.64,-164.6 c 21.78,-2.1 43.63,-3.8 65.65,-5.3 l 9.34,165.7 c -18.79,1.2 -37.54,2.6 -56.35,4.2"
         id="path608" />
    </clipPath>
    <clipPath
       clipPathUnits="userSpaceOnUse"
       id="clipPath616">
      <path
         d="m 8568,1596.8 h 369.602 v 8548.8 H 8568 Z"
         id="path614" />
    </clipPath>
    <clipPath
       clipPathUnits="userSpaceOnUse"
       id="clipPath628">
      <path
         d="m 9999.97,1604.9 c -11.73,0 -23.45,0 -35.2,0.1 -1653.8,7.4 -2924.82,535 -3636.48,909.7 -174.86,92 -252.01,301.1 -178.55,484.6 L 8011.77,7649 9657.19,11757.9 c 111.56,-9.7 226.24,-14.6 342.81,-14.6 116.6,0 231.3,4.9 342.9,14.6 l 1645.4,-4108.9 1862,-4649.7 c 73.5,-183.5 -3.8,-392.6 -178.7,-484.7 -713.2,-375.4 -1998.8,-909.7 -3671.63,-909.7 m 0.03,10211.8 c -47.87,0 -94.79,1.2 -139.44,3.7 h -0.01 v 0 c -46.62,2.5 -93.52,6.3 -139.29,11.4 -11.03,1.2 -22,2.6 -32.88,4 l 124.3,310.4 c 33.85,84.5 110.62,126.7 187.32,126.7 76.8,0 153.5,-42.2 187.4,-126.7 l 124.3,-310.4 c -10.9,-1.4 -21.9,-2.8 -33,-4 -45.2,-5 -92.1,-8.9 -139.3,-11.5 v 0 h -0.4 c -45,-2.4 -91.8,-3.6 -139,-3.6 m -91.19,238.2 -9.37,-166.2 c 21.5,-0.9 43.43,-1.5 65.57,-1.8 v 166.6 c -9.04,0.2 -18.05,0.3 -27.02,0.5 -0.99,0 -1.97,0.1 -2.97,0.1 -8.79,0.2 -17.52,0.5 -26.21,0.8 m 182.29,0 c -8.7,-0.3 -17.4,-0.6 -26.1,-0.8 -1,0 -2,-0.1 -3,-0.1 -9,-0.2 -18,-0.3 -27,-0.5 v -166.6 c 22,0.3 43.9,0.9 65.5,1.7 l -9.4,166.3 m 126.4,7.7 c -18.8,-1.6 -37.5,-3 -56.5,-4.2 l 9.4,-166 c 22.1,1.5 44,3.3 65.7,5.4 l -18.6,164.8 m -434.96,0 -18.64,-164.6 c 21.78,-2.1 43.63,-3.8 65.65,-5.3 l 9.34,165.7 c -18.79,1.2 -37.54,2.6 -56.35,4.2"
         id="path626" />
    </clipPath>
    <clipPath
       clipPathUnits="userSpaceOnUse"
       id="clipPath634">
      <path
         d="m 11064,1596.8 h 369.602 v 8548.8 H 11064 Z"
         id="path632" />
    </clipPath>
    <clipPath
       clipPathUnits="userSpaceOnUse"
       id="clipPath646">
      <path
         d="m 9999.97,1604.9 c -11.73,0 -23.45,0 -35.2,0.1 -1653.8,7.4 -2924.82,535 -3636.48,909.7 -174.86,92 -252.01,301.1 -178.55,484.6 L 8011.77,7649 9657.19,11757.9 c 111.56,-9.7 226.24,-14.6 342.81,-14.6 116.6,0 231.3,4.9 342.9,14.6 l 1645.4,-4108.9 1862,-4649.7 c 73.5,-183.5 -3.8,-392.6 -178.7,-484.7 -713.2,-375.4 -1998.8,-909.7 -3671.63,-909.7 m 0.03,10211.8 c -47.87,0 -94.79,1.2 -139.44,3.7 h -0.01 v 0 c -46.62,2.5 -93.52,6.3 -139.29,11.4 -11.03,1.2 -22,2.6 -32.88,4 l 124.3,310.4 c 33.85,84.5 110.62,126.7 187.32,126.7 76.8,0 153.5,-42.2 187.4,-126.7 l 124.3,-310.4 c -10.9,-1.4 -21.9,-2.8 -33,-4 -45.2,-5 -92.1,-8.9 -139.3,-11.5 v 0 h -0.4 c -45,-2.4 -91.8,-3.6 -139,-3.6 m -91.19,238.2 -9.37,-166.2 c 21.5,-0.9 43.43,-1.5 65.57,-1.8 v 166.6 c -9.04,0.2 -18.05,0.3 -27.02,0.5 -0.99,0 -1.97,0.1 -2.97,0.1 -8.79,0.2 -17.52,0.5 -26.21,0.8 m 182.29,0 c -8.7,-0.3 -17.4,-0.6 -26.1,-0.8 -1,0 -2,-0.1 -3,-0.1 -9,-0.2 -18,-0.3 -27,-0.5 v -166.6 c 22,0.3 43.9,0.9 65.5,1.7 l -9.4,166.3 m 126.4,7.7 c -18.8,-1.6 -37.5,-3 -56.5,-4.2 l 9.4,-166 c 22.1,1.5 44,3.3 65.7,5.4 l -18.6,164.8 m -434.96,0 -18.64,-164.6 c 21.78,-2.1 43.63,-3.8 65.65,-5.3 l 9.34,165.7 c -18.79,1.2 -37.54,2.6 -56.35,4.2"
         id="path644" />
    </clipPath>
    <clipPath
       clipPathUnits="userSpaceOnUse"
       id="clipPath652">
      <path
         d="m 8208,1596.8 h 374.402 V 9080 H 8208 Z"
         id="path650" />
    </clipPath>
    <clipPath
       clipPathUnits="userSpaceOnUse"
       id="clipPath664">
      <path
         d="m 9999.97,1604.9 c -11.73,0 -23.45,0 -35.2,0.1 -1653.8,7.4 -2924.82,535 -3636.48,909.7 -174.86,92 -252.01,301.1 -178.55,484.6 L 8011.77,7649 9657.19,11757.9 c 111.56,-9.7 226.24,-14.6 342.81,-14.6 116.6,0 231.3,4.9 342.9,14.6 l 1645.4,-4108.9 1862,-4649.7 c 73.5,-183.5 -3.8,-392.6 -178.7,-484.7 -713.2,-375.4 -1998.8,-909.7 -3671.63,-909.7 m 0.03,10211.8 c -47.87,0 -94.79,1.2 -139.44,3.7 h -0.01 v 0 c -46.62,2.5 -93.52,6.3 -139.29,11.4 -11.03,1.2 -22,2.6 -32.88,4 l 124.3,310.4 c 33.85,84.5 110.62,126.7 187.32,126.7 76.8,0 153.5,-42.2 187.4,-126.7 l 124.3,-310.4 c -10.9,-1.4 -21.9,-2.8 -33,-4 -45.2,-5 -92.1,-8.9 -139.3,-11.5 v 0 h -0.4 c -45,-2.4 -91.8,-3.6 -139,-3.6 m -91.19,238.2 -9.37,-166.2 c 21.5,-0.9 43.43,-1.5 65.57,-1.8 v 166.6 c -9.04,0.2 -18.05,0.3 -27.02,0.5 -0.99,0 -1.97,0.1 -2.97,0.1 -8.79,0.2 -17.52,0.5 -26.21,0.8 m 182.29,0 c -8.7,-0.3 -17.4,-0.6 -26.1,-0.8 -1,0 -2,-0.1 -3,-0.1 -9,-0.2 -18,-0.3 -27,-0.5 v -166.6 c 22,0.3 43.9,0.9 65.5,1.7 l -9.4,166.3 m 126.4,7.7 c -18.8,-1.6 -37.5,-3 -56.5,-4.2 l 9.4,-166 c 22.1,1.5 44,3.3 65.7,5.4 l -18.6,164.8 m -434.96,0 -18.64,-164.6 c 21.78,-2.1 43.63,-3.8 65.65,-5.3 l 9.34,165.7 c -18.79,1.2 -37.54,2.6 -56.35,4.2"
         id="path662" />
    </clipPath>
    <clipPath
       clipPathUnits="userSpaceOnUse"
       id="clipPath670">
      <path
         d="m 11419.2,1596.8 h 369.602 V 9080 H 11419.2 Z"
         id="path668" />
    </clipPath>
    <clipPath
       clipPathUnits="userSpaceOnUse"
       id="clipPath682">
      <path
         d="m 9999.97,1604.9 c -11.73,0 -23.45,0 -35.2,0.1 -1653.8,7.4 -2924.82,535 -3636.48,909.7 -174.86,92 -252.01,301.1 -178.55,484.6 L 8011.77,7649 9657.19,11757.9 c 111.56,-9.7 226.24,-14.6 342.81,-14.6 116.6,0 231.3,4.9 342.9,14.6 l 1645.4,-4108.9 1862,-4649.7 c 73.5,-183.5 -3.8,-392.6 -178.7,-484.7 -713.2,-375.4 -1998.8,-909.7 -3671.63,-909.7 m 0.03,10211.8 c -47.87,0 -94.79,1.2 -139.44,3.7 h -0.01 v 0 c -46.62,2.5 -93.52,6.3 -139.29,11.4 -11.03,1.2 -22,2.6 -32.88,4 l 124.3,310.4 c 33.85,84.5 110.62,126.7 187.32,126.7 76.8,0 153.5,-42.2 187.4,-126.7 l 124.3,-310.4 c -10.9,-1.4 -21.9,-2.8 -33,-4 -45.2,-5 -92.1,-8.9 -139.3,-11.5 v 0 h -0.4 c -45,-2.4 -91.8,-3.6 -139,-3.6 m -91.19,238.2 -9.37,-166.2 c 21.5,-0.9 43.43,-1.5 65.57,-1.8 v 166.6 c -9.04,0.2 -18.05,0.3 -27.02,0.5 -0.99,0 -1.97,0.1 -2.97,0.1 -8.79,0.2 -17.52,0.5 -26.21,0.8 m 182.29,0 c -8.7,-0.3 -17.4,-0.6 -26.1,-0.8 -1,0 -2,-0.1 -3,-0.1 -9,-0.2 -18,-0.3 -27,-0.5 v -166.6 c 22,0.3 43.9,0.9 65.5,1.7 l -9.4,166.3 m 126.4,7.7 c -18.8,-1.6 -37.5,-3 -56.5,-4.2 l 9.4,-166 c 22.1,1.5 44,3.3 65.7,5.4 l -18.6,164.8 m -434.96,0 -18.64,-164.6 c 21.78,-2.1 43.63,-3.8 65.65,-5.3 l 9.34,165.7 c -18.79,1.2 -37.54,2.6 -56.35,4.2"
         id="path680" />
    </clipPath>
    <clipPath
       clipPathUnits="userSpaceOnUse"
       id="clipPath688">
      <path
         d="m 7852.8,1596.8 h 369.602 V 8369.6 H 7852.8 Z"
         id="path686" />
    </clipPath>
    <clipPath
       clipPathUnits="userSpaceOnUse"
       id="clipPath700">
      <path
         d="m 9999.97,1604.9 c -11.73,0 -23.45,0 -35.2,0.1 -1653.8,7.4 -2924.82,535 -3636.48,909.7 -174.86,92 -252.01,301.1 -178.55,484.6 L 8011.77,7649 9657.19,11757.9 c 111.56,-9.7 226.24,-14.6 342.81,-14.6 116.6,0 231.3,4.9 342.9,14.6 l 1645.4,-4108.9 1862,-4649.7 c 73.5,-183.5 -3.8,-392.6 -178.7,-484.7 -713.2,-375.4 -1998.8,-909.7 -3671.63,-909.7 m 0.03,10211.8 c -47.87,0 -94.79,1.2 -139.44,3.7 h -0.01 v 0 c -46.62,2.5 -93.52,6.3 -139.29,11.4 -11.03,1.2 -22,2.6 -32.88,4 l 124.3,310.4 c 33.85,84.5 110.62,126.7 187.32,126.7 76.8,0 153.5,-42.2 187.4,-126.7 l 124.3,-310.4 c -10.9,-1.4 -21.9,-2.8 -33,-4 -45.2,-5 -92.1,-8.9 -139.3,-11.5 v 0 h -0.4 c -45,-2.4 -91.8,-3.6 -139,-3.6 m -91.19,238.2 -9.37,-166.2 c 21.5,-0.9 43.43,-1.5 65.57,-1.8 v 166.6 c -9.04,0.2 -18.05,0.3 -27.02,0.5 -0.99,0 -1.97,0.1 -2.97,0.1 -8.79,0.2 -17.52,0.5 -26.21,0.8 m 182.29,0 c -8.7,-0.3 -17.4,-0.6 -26.1,-0.8 -1,0 -2,-0.1 -3,-0.1 -9,-0.2 -18,-0.3 -27,-0.5 v -166.6 c 22,0.3 43.9,0.9 65.5,1.7 l -9.4,166.3 m 126.4,7.7 c -18.8,-1.6 -37.5,-3 -56.5,-4.2 l 9.4,-166 c 22.1,1.5 44,3.3 65.7,5.4 l -18.6,164.8 m -434.96,0 -18.64,-164.6 c 21.78,-2.1 43.63,-3.8 65.65,-5.3 l 9.34,165.7 c -18.79,1.2 -37.54,2.6 -56.35,4.2"
         id="path698" />
    </clipPath>
    <clipPath
       clipPathUnits="userSpaceOnUse"
       id="clipPath706">
      <path
         d="m 11774.4,1596.8 h 374.402 V 8369.6 H 11774.4 Z"
         id="path704" />
    </clipPath>
    <clipPath
       clipPathUnits="userSpaceOnUse"
       id="clipPath718">
      <path
         d="m 9999.97,1604.9 c -11.73,0 -23.45,0 -35.2,0.1 -1653.8,7.4 -2924.82,535 -3636.48,909.7 -174.86,92 -252.01,301.1 -178.55,484.6 L 8011.77,7649 9657.19,11757.9 c 111.56,-9.7 226.24,-14.6 342.81,-14.6 116.6,0 231.3,4.9 342.9,14.6 l 1645.4,-4108.9 1862,-4649.7 c 73.5,-183.5 -3.8,-392.6 -178.7,-484.7 -713.2,-375.4 -1998.8,-909.7 -3671.63,-909.7 m 0.03,10211.8 c -47.87,0 -94.79,1.2 -139.44,3.7 h -0.01 v 0 c -46.62,2.5 -93.52,6.3 -139.29,11.4 -11.03,1.2 -22,2.6 -32.88,4 l 124.3,310.4 c 33.85,84.5 110.62,126.7 187.32,126.7 76.8,0 153.5,-42.2 187.4,-126.7 l 124.3,-310.4 c -10.9,-1.4 -21.9,-2.8 -33,-4 -45.2,-5 -92.1,-8.9 -139.3,-11.5 v 0 h -0.4 c -45,-2.4 -91.8,-3.6 -139,-3.6 m -91.19,238.2 -9.37,-166.2 c 21.5,-0.9 43.43,-1.5 65.57,-1.8 v 166.6 c -9.04,0.2 -18.05,0.3 -27.02,0.5 -0.99,0 -1.97,0.1 -2.97,0.1 -8.79,0.2 -17.52,0.5 -26.21,0.8 m 182.29,0 c -8.7,-0.3 -17.4,-0.6 -26.1,-0.8 -1,0 -2,-0.1 -3,-0.1 -9,-0.2 -18,-0.3 -27,-0.5 v -166.6 c 22,0.3 43.9,0.9 65.5,1.7 l -9.4,166.3 m 126.4,7.7 c -18.8,-1.6 -37.5,-3 -56.5,-4.2 l 9.4,-166 c 22.1,1.5 44,3.3 65.7,5.4 l -18.6,164.8 m -434.96,0 -18.64,-164.6 c 21.78,-2.1 43.63,-3.8 65.65,-5.3 l 9.34,165.7 c -18.79,1.2 -37.54,2.6 -56.35,4.2"
         id="path716" />
    </clipPath>
    <clipPath
       clipPathUnits="userSpaceOnUse"
       id="clipPath724">
      <path
         d="m 7497.6,1596.8 h 369.598 V 7304 H 7497.6 Z"
         id="path722" />
    </clipPath>
    <clipPath
       clipPathUnits="userSpaceOnUse"
       id="clipPath736">
      <path
         d="m 9999.97,1604.9 c -11.73,0 -23.45,0 -35.2,0.1 -1653.8,7.4 -2924.82,535 -3636.48,909.7 -174.86,92 -252.01,301.1 -178.55,484.6 L 8011.77,7649 9657.19,11757.9 c 111.56,-9.7 226.24,-14.6 342.81,-14.6 116.6,0 231.3,4.9 342.9,14.6 l 1645.4,-4108.9 1862,-4649.7 c 73.5,-183.5 -3.8,-392.6 -178.7,-484.7 -713.2,-375.4 -1998.8,-909.7 -3671.63,-909.7 m 0.03,10211.8 c -47.87,0 -94.79,1.2 -139.44,3.7 h -0.01 v 0 c -46.62,2.5 -93.52,6.3 -139.29,11.4 -11.03,1.2 -22,2.6 -32.88,4 l 124.3,310.4 c 33.85,84.5 110.62,126.7 187.32,126.7 76.8,0 153.5,-42.2 187.4,-126.7 l 124.3,-310.4 c -10.9,-1.4 -21.9,-2.8 -33,-4 -45.2,-5 -92.1,-8.9 -139.3,-11.5 v 0 h -0.4 c -45,-2.4 -91.8,-3.6 -139,-3.6 m -91.19,238.2 -9.37,-166.2 c 21.5,-0.9 43.43,-1.5 65.57,-1.8 v 166.6 c -9.04,0.2 -18.05,0.3 -27.02,0.5 -0.99,0 -1.97,0.1 -2.97,0.1 -8.79,0.2 -17.52,0.5 -26.21,0.8 m 182.29,0 c -8.7,-0.3 -17.4,-0.6 -26.1,-0.8 -1,0 -2,-0.1 -3,-0.1 -9,-0.2 -18,-0.3 -27,-0.5 v -166.6 c 22,0.3 43.9,0.9 65.5,1.7 l -9.4,166.3 m 126.4,7.7 c -18.8,-1.6 -37.5,-3 -56.5,-4.2 l 9.4,-166 c 22.1,1.5 44,3.3 65.7,5.4 l -18.6,164.8 m -434.96,0 -18.64,-164.6 c 21.78,-2.1 43.63,-3.8 65.65,-5.3 l 9.34,165.7 c -18.79,1.2 -37.54,2.6 -56.35,4.2"
         id="path734" />
    </clipPath>
    <clipPath
       clipPathUnits="userSpaceOnUse"
       id="clipPath742">
      <path
         d="m 12134.4,1596.8 h 369.602 V 7304 H 12134.4 Z"
         id="path740" />
    </clipPath>
    <clipPath
       clipPathUnits="userSpaceOnUse"
       id="clipPath754">
      <path
         d="m 9999.97,1604.9 c -11.73,0 -23.45,0 -35.2,0.1 -1653.8,7.4 -2924.82,535 -3636.48,909.7 -174.86,92 -252.01,301.1 -178.55,484.6 L 8011.77,7649 9657.19,11757.9 c 111.56,-9.7 226.24,-14.6 342.81,-14.6 116.6,0 231.3,4.9 342.9,14.6 l 1645.4,-4108.9 1862,-4649.7 c 73.5,-183.5 -3.8,-392.6 -178.7,-484.7 -713.2,-375.4 -1998.8,-909.7 -3671.63,-909.7 m 0.03,10211.8 c -47.87,0 -94.79,1.2 -139.44,3.7 h -0.01 v 0 c -46.62,2.5 -93.52,6.3 -139.29,11.4 -11.03,1.2 -22,2.6 -32.88,4 l 124.3,310.4 c 33.85,84.5 110.62,126.7 187.32,126.7 76.8,0 153.5,-42.2 187.4,-126.7 l 124.3,-310.4 c -10.9,-1.4 -21.9,-2.8 -33,-4 -45.2,-5 -92.1,-8.9 -139.3,-11.5 v 0 h -0.4 c -45,-2.4 -91.8,-3.6 -139,-3.6 m -91.19,238.2 -9.37,-166.2 c 21.5,-0.9 43.43,-1.5 65.57,-1.8 v 166.6 c -9.04,0.2 -18.05,0.3 -27.02,0.5 -0.99,0 -1.97,0.1 -2.97,0.1 -8.79,0.2 -17.52,0.5 -26.21,0.8 m 182.29,0 c -8.7,-0.3 -17.4,-0.6 -26.1,-0.8 -1,0 -2,-0.1 -3,-0.1 -9,-0.2 -18,-0.3 -27,-0.5 v -166.6 c 22,0.3 43.9,0.9 65.5,1.7 l -9.4,166.3 m 126.4,7.7 c -18.8,-1.6 -37.5,-3 -56.5,-4.2 l 9.4,-166 c 22.1,1.5 44,3.3 65.7,5.4 l -18.6,164.8 m -434.96,0 -18.64,-164.6 c 21.78,-2.1 43.63,-3.8 65.65,-5.3 l 9.34,165.7 c -18.79,1.2 -37.54,2.6 -56.35,4.2"
         id="path752" />
    </clipPath>
    <clipPath
       clipPathUnits="userSpaceOnUse"
       id="clipPath760">
      <path
         d="m 7137.6,1952 h 374.398 V 6588.8 H 7137.6 Z"
         id="path758" />
    </clipPath>
    <clipPath
       clipPathUnits="userSpaceOnUse"
       id="clipPath772">
      <path
         d="m 9999.97,1604.9 c -11.73,0 -23.45,0 -35.2,0.1 -1653.8,7.4 -2924.82,535 -3636.48,909.7 -174.86,92 -252.01,301.1 -178.55,484.6 L 8011.77,7649 9657.19,11757.9 c 111.56,-9.7 226.24,-14.6 342.81,-14.6 116.6,0 231.3,4.9 342.9,14.6 l 1645.4,-4108.9 1862,-4649.7 c 73.5,-183.5 -3.8,-392.6 -178.7,-484.7 -713.2,-375.4 -1998.8,-909.7 -3671.63,-909.7 m 0.03,10211.8 c -47.87,0 -94.79,1.2 -139.44,3.7 h -0.01 v 0 c -46.62,2.5 -93.52,6.3 -139.29,11.4 -11.03,1.2 -22,2.6 -32.88,4 l 124.3,310.4 c 33.85,84.5 110.62,126.7 187.32,126.7 76.8,0 153.5,-42.2 187.4,-126.7 l 124.3,-310.4 c -10.9,-1.4 -21.9,-2.8 -33,-4 -45.2,-5 -92.1,-8.9 -139.3,-11.5 v 0 h -0.4 c -45,-2.4 -91.8,-3.6 -139,-3.6 m -91.19,238.2 -9.37,-166.2 c 21.5,-0.9 43.43,-1.5 65.57,-1.8 v 166.6 c -9.04,0.2 -18.05,0.3 -27.02,0.5 -0.99,0 -1.97,0.1 -2.97,0.1 -8.79,0.2 -17.52,0.5 -26.21,0.8 m 182.29,0 c -8.7,-0.3 -17.4,-0.6 -26.1,-0.8 -1,0 -2,-0.1 -3,-0.1 -9,-0.2 -18,-0.3 -27,-0.5 v -166.6 c 22,0.3 43.9,0.9 65.5,1.7 l -9.4,166.3 m 126.4,7.7 c -18.8,-1.6 -37.5,-3 -56.5,-4.2 l 9.4,-166 c 22.1,1.5 44,3.3 65.7,5.4 l -18.6,164.8 m -434.96,0 -18.64,-164.6 c 21.78,-2.1 43.63,-3.8 65.65,-5.3 l 9.34,165.7 c -18.79,1.2 -37.54,2.6 -56.35,4.2"
         id="path770" />
    </clipPath>
    <clipPath
       clipPathUnits="userSpaceOnUse"
       id="clipPath778">
      <path
         d="m 12489.6,1952 h 369.598 V 6588.8 H 12489.6 Z"
         id="path776" />
    </clipPath>
    <clipPath
       clipPathUnits="userSpaceOnUse"
       id="clipPath790">
      <path
         d="m 9999.97,1604.9 c -11.73,0 -23.45,0 -35.2,0.1 -1653.8,7.4 -2924.82,535 -3636.48,909.7 -174.86,92 -252.01,301.1 -178.55,484.6 L 8011.77,7649 9657.19,11757.9 c 111.56,-9.7 226.24,-14.6 342.81,-14.6 116.6,0 231.3,4.9 342.9,14.6 l 1645.4,-4108.9 1862,-4649.7 c 73.5,-183.5 -3.8,-392.6 -178.7,-484.7 -713.2,-375.4 -1998.8,-909.7 -3671.63,-909.7 m 0.03,10211.8 c -47.87,0 -94.79,1.2 -139.44,3.7 h -0.01 v 0 c -46.62,2.5 -93.52,6.3 -139.29,11.4 -11.03,1.2 -22,2.6 -32.88,4 l 124.3,310.4 c 33.85,84.5 110.62,126.7 187.32,126.7 76.8,0 153.5,-42.2 187.4,-126.7 l 124.3,-310.4 c -10.9,-1.4 -21.9,-2.8 -33,-4 -45.2,-5 -92.1,-8.9 -139.3,-11.5 v 0 h -0.4 c -45,-2.4 -91.8,-3.6 -139,-3.6 m -91.19,238.2 -9.37,-166.2 c 21.5,-0.9 43.43,-1.5 65.57,-1.8 v 166.6 c -9.04,0.2 -18.05,0.3 -27.02,0.5 -0.99,0 -1.97,0.1 -2.97,0.1 -8.79,0.2 -17.52,0.5 -26.21,0.8 m 182.29,0 c -8.7,-0.3 -17.4,-0.6 -26.1,-0.8 -1,0 -2,-0.1 -3,-0.1 -9,-0.2 -18,-0.3 -27,-0.5 v -166.6 c 22,0.3 43.9,0.9 65.5,1.7 l -9.4,166.3 m 126.4,7.7 c -18.8,-1.6 -37.5,-3 -56.5,-4.2 l 9.4,-166 c 22.1,1.5 44,3.3 65.7,5.4 l -18.6,164.8 m -434.96,0 -18.64,-164.6 c 21.78,-2.1 43.63,-3.8 65.65,-5.3 l 9.34,165.7 c -18.79,1.2 -37.54,2.6 -56.35,4.2"
         id="path788" />
    </clipPath>
    <clipPath
       clipPathUnits="userSpaceOnUse"
       id="clipPath796">
      <path
         d="m 6782.4,1952 h 369.602 V 5523.2 H 6782.4 Z"
         id="path794" />
    </clipPath>
    <clipPath
       clipPathUnits="userSpaceOnUse"
       id="clipPath808">
      <path
         d="m 9999.97,1604.9 c -11.73,0 -23.45,0 -35.2,0.1 -1653.8,7.4 -2924.82,535 -3636.48,909.7 -174.86,92 -252.01,301.1 -178.55,484.6 L 8011.77,7649 9657.19,11757.9 c 111.56,-9.7 226.24,-14.6 342.81,-14.6 116.6,0 231.3,4.9 342.9,14.6 l 1645.4,-4108.9 1862,-4649.7 c 73.5,-183.5 -3.8,-392.6 -178.7,-484.7 -713.2,-375.4 -1998.8,-909.7 -3671.63,-909.7 m 0.03,10211.8 c -47.87,0 -94.79,1.2 -139.44,3.7 h -0.01 v 0 c -46.62,2.5 -93.52,6.3 -139.29,11.4 -11.03,1.2 -22,2.6 -32.88,4 l 124.3,310.4 c 33.85,84.5 110.62,126.7 187.32,126.7 76.8,0 153.5,-42.2 187.4,-126.7 l 124.3,-310.4 c -10.9,-1.4 -21.9,-2.8 -33,-4 -45.2,-5 -92.1,-8.9 -139.3,-11.5 v 0 h -0.4 c -45,-2.4 -91.8,-3.6 -139,-3.6 m -91.19,238.2 -9.37,-166.2 c 21.5,-0.9 43.43,-1.5 65.57,-1.8 v 166.6 c -9.04,0.2 -18.05,0.3 -27.02,0.5 -0.99,0 -1.97,0.1 -2.97,0.1 -8.79,0.2 -17.52,0.5 -26.21,0.8 m 182.29,0 c -8.7,-0.3 -17.4,-0.6 -26.1,-0.8 -1,0 -2,-0.1 -3,-0.1 -9,-0.2 -18,-0.3 -27,-0.5 v -166.6 c 22,0.3 43.9,0.9 65.5,1.7 l -9.4,166.3 m 126.4,7.7 c -18.8,-1.6 -37.5,-3 -56.5,-4.2 l 9.4,-166 c 22.1,1.5 44,3.3 65.7,5.4 l -18.6,164.8 m -434.96,0 -18.64,-164.6 c 21.78,-2.1 43.63,-3.8 65.65,-5.3 l 9.34,165.7 c -18.79,1.2 -37.54,2.6 -56.35,4.2"
         id="path806" />
    </clipPath>
    <clipPath
       clipPathUnits="userSpaceOnUse"
       id="clipPath814">
      <path
         d="m 12844.8,1952 h 374.398 V 5523.2 H 12844.8 Z"
         id="path812" />
    </clipPath>
    <clipPath
       clipPathUnits="userSpaceOnUse"
       id="clipPath826">
      <path
         d="m 9999.97,1604.9 c -11.73,0 -23.45,0 -35.2,0.1 -1653.8,7.4 -2924.82,535 -3636.48,909.7 -174.86,92 -252.01,301.1 -178.55,484.6 L 8011.77,7649 9657.19,11757.9 c 111.56,-9.7 226.24,-14.6 342.81,-14.6 116.6,0 231.3,4.9 342.9,14.6 l 1645.4,-4108.9 1862,-4649.7 c 73.5,-183.5 -3.8,-392.6 -178.7,-484.7 -713.2,-375.4 -1998.8,-909.7 -3671.63,-909.7 m 0.03,10211.8 c -47.87,0 -94.79,1.2 -139.44,3.7 h -0.01 v 0 c -46.62,2.5 -93.52,6.3 -139.29,11.4 -11.03,1.2 -22,2.6 -32.88,4 l 124.3,310.4 c 33.85,84.5 110.62,126.7 187.32,126.7 76.8,0 153.5,-42.2 187.4,-126.7 l 124.3,-310.4 c -10.9,-1.4 -21.9,-2.8 -33,-4 -45.2,-5 -92.1,-8.9 -139.3,-11.5 v 0 h -0.4 c -45,-2.4 -91.8,-3.6 -139,-3.6 m -91.19,238.2 -9.37,-166.2 c 21.5,-0.9 43.43,-1.5 65.57,-1.8 v 166.6 c -9.04,0.2 -18.05,0.3 -27.02,0.5 -0.99,0 -1.97,0.1 -2.97,0.1 -8.79,0.2 -17.52,0.5 -26.21,0.8 m 182.29,0 c -8.7,-0.3 -17.4,-0.6 -26.1,-0.8 -1,0 -2,-0.1 -3,-0.1 -9,-0.2 -18,-0.3 -27,-0.5 v -166.6 c 22,0.3 43.9,0.9 65.5,1.7 l -9.4,166.3 m 126.4,7.7 c -18.8,-1.6 -37.5,-3 -56.5,-4.2 l 9.4,-166 c 22.1,1.5 44,3.3 65.7,5.4 l -18.6,164.8 m -434.96,0 -18.64,-164.6 c 21.78,-2.1 43.63,-3.8 65.65,-5.3 l 9.34,165.7 c -18.79,1.2 -37.54,2.6 -56.35,4.2"
         id="path824" />
    </clipPath>
    <clipPath
       clipPathUnits="userSpaceOnUse"
       id="clipPath832">
      <path
         d="m 6427.2,1952 h 369.602 V 4812.8 H 6427.2 Z"
         id="path830" />
    </clipPath>
    <clipPath
       clipPathUnits="userSpaceOnUse"
       id="clipPath844">
      <path
         d="m 9999.97,1604.9 c -11.73,0 -23.45,0 -35.2,0.1 -1653.8,7.4 -2924.82,535 -3636.48,909.7 -174.86,92 -252.01,301.1 -178.55,484.6 L 8011.77,7649 9657.19,11757.9 c 111.56,-9.7 226.24,-14.6 342.81,-14.6 116.6,0 231.3,4.9 342.9,14.6 l 1645.4,-4108.9 1862,-4649.7 c 73.5,-183.5 -3.8,-392.6 -178.7,-484.7 -713.2,-375.4 -1998.8,-909.7 -3671.63,-909.7 m 0.03,10211.8 c -47.87,0 -94.79,1.2 -139.44,3.7 h -0.01 v 0 c -46.62,2.5 -93.52,6.3 -139.29,11.4 -11.03,1.2 -22,2.6 -32.88,4 l 124.3,310.4 c 33.85,84.5 110.62,126.7 187.32,126.7 76.8,0 153.5,-42.2 187.4,-126.7 l 124.3,-310.4 c -10.9,-1.4 -21.9,-2.8 -33,-4 -45.2,-5 -92.1,-8.9 -139.3,-11.5 v 0 h -0.4 c -45,-2.4 -91.8,-3.6 -139,-3.6 m -91.19,238.2 -9.37,-166.2 c 21.5,-0.9 43.43,-1.5 65.57,-1.8 v 166.6 c -9.04,0.2 -18.05,0.3 -27.02,0.5 -0.99,0 -1.97,0.1 -2.97,0.1 -8.79,0.2 -17.52,0.5 -26.21,0.8 m 182.29,0 c -8.7,-0.3 -17.4,-0.6 -26.1,-0.8 -1,0 -2,-0.1 -3,-0.1 -9,-0.2 -18,-0.3 -27,-0.5 v -166.6 c 22,0.3 43.9,0.9 65.5,1.7 l -9.4,166.3 m 126.4,7.7 c -18.8,-1.6 -37.5,-3 -56.5,-4.2 l 9.4,-166 c 22.1,1.5 44,3.3 65.7,5.4 l -18.6,164.8 m -434.96,0 -18.64,-164.6 c 21.78,-2.1 43.63,-3.8 65.65,-5.3 l 9.34,165.7 c -18.79,1.2 -37.54,2.6 -56.35,4.2"
         id="path842" />
    </clipPath>
    <clipPath
       clipPathUnits="userSpaceOnUse"
       id="clipPath850">
      <path
         d="m 13204.8,1952 h 369.598 V 4812.8 H 13204.8 Z"
         id="path848" />
    </clipPath>
    <clipPath
       clipPathUnits="userSpaceOnUse"
       id="clipPath862">
      <path
         d="m 9999.97,1604.9 c -11.73,0 -23.45,0 -35.2,0.1 -1653.8,7.4 -2924.82,535 -3636.48,909.7 -174.86,92 -252.01,301.1 -178.55,484.6 L 8011.77,7649 9657.19,11757.9 c 111.56,-9.7 226.24,-14.6 342.81,-14.6 116.6,0 231.3,4.9 342.9,14.6 l 1645.4,-4108.9 1862,-4649.7 c 73.5,-183.5 -3.8,-392.6 -178.7,-484.7 -713.2,-375.4 -1998.8,-909.7 -3671.63,-909.7 m 0.03,10211.8 c -47.87,0 -94.79,1.2 -139.44,3.7 h -0.01 v 0 c -46.62,2.5 -93.52,6.3 -139.29,11.4 -11.03,1.2 -22,2.6 -32.88,4 l 124.3,310.4 c 33.85,84.5 110.62,126.7 187.32,126.7 76.8,0 153.5,-42.2 187.4,-126.7 l 124.3,-310.4 c -10.9,-1.4 -21.9,-2.8 -33,-4 -45.2,-5 -92.1,-8.9 -139.3,-11.5 v 0 h -0.4 c -45,-2.4 -91.8,-3.6 -139,-3.6 m -91.19,238.2 -9.37,-166.2 c 21.5,-0.9 43.43,-1.5 65.57,-1.8 v 166.6 c -9.04,0.2 -18.05,0.3 -27.02,0.5 -0.99,0 -1.97,0.1 -2.97,0.1 -8.79,0.2 -17.52,0.5 -26.21,0.8 m 182.29,0 c -8.7,-0.3 -17.4,-0.6 -26.1,-0.8 -1,0 -2,-0.1 -3,-0.1 -9,-0.2 -18,-0.3 -27,-0.5 v -166.6 c 22,0.3 43.9,0.9 65.5,1.7 l -9.4,166.3 m 126.4,7.7 c -18.8,-1.6 -37.5,-3 -56.5,-4.2 l 9.4,-166 c 22.1,1.5 44,3.3 65.7,5.4 l -18.6,164.8 m -434.96,0 -18.64,-164.6 c 21.78,-2.1 43.63,-3.8 65.65,-5.3 l 9.34,165.7 c -18.79,1.2 -37.54,2.6 -56.35,4.2"
         id="path860" />
    </clipPath>
    <clipPath
       clipPathUnits="userSpaceOnUse"
       id="clipPath868">
      <path
         d="m 6067.2,2307.2 h 374.402 v 1440 H 6067.2 Z"
         id="path866" />
    </clipPath>
    <clipPath
       clipPathUnits="userSpaceOnUse"
       id="clipPath880">
      <path
         d="m 9999.97,1604.9 c -11.73,0 -23.45,0 -35.2,0.1 -1653.8,7.4 -2924.82,535 -3636.48,909.7 -174.86,92 -252.01,301.1 -178.55,484.6 L 8011.77,7649 9657.19,11757.9 c 111.56,-9.7 226.24,-14.6 342.81,-14.6 116.6,0 231.3,4.9 342.9,14.6 l 1645.4,-4108.9 1862,-4649.7 c 73.5,-183.5 -3.8,-392.6 -178.7,-484.7 -713.2,-375.4 -1998.8,-909.7 -3671.63,-909.7 m 0.03,10211.8 c -47.87,0 -94.79,1.2 -139.44,3.7 h -0.01 v 0 c -46.62,2.5 -93.52,6.3 -139.29,11.4 -11.03,1.2 -22,2.6 -32.88,4 l 124.3,310.4 c 33.85,84.5 110.62,126.7 187.32,126.7 76.8,0 153.5,-42.2 187.4,-126.7 l 124.3,-310.4 c -10.9,-1.4 -21.9,-2.8 -33,-4 -45.2,-5 -92.1,-8.9 -139.3,-11.5 v 0 h -0.4 c -45,-2.4 -91.8,-3.6 -139,-3.6 m -91.19,238.2 -9.37,-166.2 c 21.5,-0.9 43.43,-1.5 65.57,-1.8 v 166.6 c -9.04,0.2 -18.05,0.3 -27.02,0.5 -0.99,0 -1.97,0.1 -2.97,0.1 -8.79,0.2 -17.52,0.5 -26.21,0.8 m 182.29,0 c -8.7,-0.3 -17.4,-0.6 -26.1,-0.8 -1,0 -2,-0.1 -3,-0.1 -9,-0.2 -18,-0.3 -27,-0.5 v -166.6 c 22,0.3 43.9,0.9 65.5,1.7 l -9.4,166.3 m 126.4,7.7 c -18.8,-1.6 -37.5,-3 -56.5,-4.2 l 9.4,-166 c 22.1,1.5 44,3.3 65.7,5.4 l -18.6,164.8 m -434.96,0 -18.64,-164.6 c 21.78,-2.1 43.63,-3.8 65.65,-5.3 l 9.34,165.7 c -18.79,1.2 -37.54,2.6 -56.35,4.2"
         id="path878" />
    </clipPath>
    <clipPath
       clipPathUnits="userSpaceOnUse"
       id="clipPath886">
      <path
         d="m 13560,2307.2 h 369.602 v 1440 H 13560 Z"
         id="path884" />
    </clipPath>
  </defs>
  <g
     inkscape:label="Layer 1"
     inkscape:groupmode="layer"
     id="layer1"
     transform="translate(-1.4542416,-178.14952)"
     style="display:inline" />
  <g
     inkscape:groupmode="layer"
     id="layer2"
     inkscape:label="Layer 2"
     style="display:inline">
    <path
       id="path14802"
       style="display:inline;fill:#fffc00;fill-opacity:0.323033;stroke:none;stroke-width:0.366701"
       d="m 110.2651,109.86926 a 33.514561,24.518458 0 0 1 -6.43733,0.62004 33.514561,24.518458 0 0 1 -5.766573,-0.55526 L 26.23199,339.18036 a 134.11184,151.2378 0 0 0 77.98232,28.23011 134.11184,151.2378 0 0 0 78.6567,-28.80746 z" />
  </g>
</svg>
